<?xml version="1.0" encoding="UTF-8" standalone="no"?>
<svg
   width="1200pt"
   height="1200pt"
   version="1.1"
   viewBox="0 0 1200 1200"
   id="svg4676"
   sodipodi:docname="agility.svg"
   inkscape:version="1.2.2 (b0a8486541, 2022-12-01)"
   xmlns:inkscape="http://www.inkscape.org/namespaces/inkscape"
   xmlns:sodipodi="http://sodipodi.sourceforge.net/DTD/sodipodi-0.dtd"
   xmlns="http://www.w3.org/2000/svg"
   xmlns:svg="http://www.w3.org/2000/svg">
  <defs
     id="defs4680" />
  <sodipodi:namedview
     id="namedview4678"
     pagecolor="#ffffff"
     bordercolor="#000000"
     borderopacity="0.25"
     inkscape:showpageshadow="2"
     inkscape:pageopacity="0.0"
     inkscape:pagecheckerboard="0"
     inkscape:deskcolor="#d1d1d1"
     inkscape:document-units="pt"
     showgrid="false"
     inkscape:zoom="0.37078912"
     inkscape:cx="594.67764"
     inkscape:cy="852.23644"
     inkscape:window-width="2560"
     inkscape:window-height="1011"
     inkscape:window-x="0"
     inkscape:window-y="32"
     inkscape:window-maximized="1"
     inkscape:current-layer="svg4676" />
  <g
     id="g5589"
     transform="translate(-0.0059841,64.332173)">
    <path
       d="M 504.80454,570.95709 C 514.9919,513.07658 486.3944,455.50055 438.61274,437.62791 319.36821,392.18902 119.08285,293.49914 4.2731682,112.36558 v 31.22768 C 8.7721147,207.63472 50.60743,419.81511 274.31366,516.62093 185.57472,507.16726 101.90608,463.74075 36.023169,392.99053 c 0,0 17.737197,230.78559 282.506611,265.4353 -66.86365,16.28524 -136.50956,2.37864 -195.11137,-39.0346 l 1.34458,2.80555 c 12.30726,24.64124 103.01099,188.95349 276.81411,171.75224 -55.59118,20.79764 -115.89081,15.18706 -168.00582,-15.61384 42.09357,68.37171 112.94528,111.00401 202.4035,123.50809 47.26536,6.58708 76.37872,48.73209 121.41782,57.33142 v -0.061 c 7.08462,1.09785 14.01391,-2.80554 17.7372,-10.06363 3.67155,-7.19695 3.41307,-16.28524 -0.67226,-23.17615 -37.59474,-63.858 -98.35661,-196.09683 -69.65695,-354.90261 z"
       id="path4672"
       style="stroke-width:1.1981" />
    <path
       d="m 761.6508,437.61489 c -47.78166,17.87004 -76.37872,75.44608 -66.1918,133.32919 28.44151,158.81879 -32.32036,291.05501 -69.9151,354.90261 -4.13698,7.01399 -4.34383,16.28523 -0.46541,23.48191 3.8784,7.25796 11.06616,11.0395 18.20274,9.63661 44.98947,-8.59985 74.15578,-50.74498 121.41783,-57.33143 89.51449,-12.5033 160.30551,-55.13638 202.4035,-123.50808 -52.12604,30.86206 -112.42678,36.47262 -168.00583,15.61384 173.80864,17.62672 264.76717,-146.62698 276.81417,-171.75226 l 1.3445,-2.80554 c -58.8489,41.83989 -128.91954,55.92878 -196.19247,39.33907 264.76717,-34.94768 282.35217,-265.4353 282.50657,-265.4353 -65.8818,70.81137 -149.5493,114.23737 -238.29045,123.69026 C 1149.4045,419.79949 1191.2377,207.6087 1195.7388,143.26666 V 112.03898 C 1080.9401,293.48482 880.65474,392.1643 761.66395,437.61359 Z"
       id="path4674"
       style="stroke-width:1.1981" />
  </g>
</svg>
