<?xml version="1.0" encoding="UTF-8" standalone="no"?>
<svg
   width="739.03955pt"
   height="756.00677pt"
   version="1.1"
   viewBox="0 0 739.03955 756.00677"
   id="svg114"
   sodipodi:docname="charisma.svg"
   inkscape:version="1.2.2 (b0a8486541, 2022-12-01)"
   xmlns:inkscape="http://www.inkscape.org/namespaces/inkscape"
   xmlns:sodipodi="http://sodipodi.sourceforge.net/DTD/sodipodi-0.dtd"
   xmlns="http://www.w3.org/2000/svg"
   xmlns:svg="http://www.w3.org/2000/svg">
  <defs
     id="defs118" />
  <sodipodi:namedview
     id="namedview116"
     pagecolor="#ffffff"
     bordercolor="#000000"
     borderopacity="0.25"
     inkscape:showpageshadow="2"
     inkscape:pageopacity="0.0"
     inkscape:pagecheckerboard="0"
     inkscape:deskcolor="#d1d1d1"
     inkscape:document-units="pt"
     showgrid="false"
     inkscape:zoom="0.524375"
     inkscape:cx="494.87485"
     inkscape:cy="505.36353"
     inkscape:window-width="2560"
     inkscape:window-height="1011"
     inkscape:window-x="0"
     inkscape:window-y="32"
     inkscape:window-maximized="1"
     inkscape:current-layer="svg114" />
  <path
     d="m 713.99785,290.22179 c -19.453,22.453 -43.875,40.031 -71.297,51.422 63.094,-73.969 97.031,-139.69 96.328,-195.66 -0.1875,-5.7188 -4.2188,-10.547 -9.7969,-11.719 -5.5781,-1.172 -11.25,1.5938 -13.734,6.7031 -21.656,44.953 -50.016,86.344 -84.188,122.76 44.391,-78.516 72.469,-156.79 65.016,-217.360001 h 0.0469 c -0.84375,-5.8125 -5.5781,-10.219 -11.391,-10.641 -5.8594,-0.375 -11.156,3.3281 -12.75,8.9531 -15.609,50.953 -41.859,97.969001 -77.016,138.000001 21.609,-66.141 29.344,-125.390001 15.047,-173.7200006 -1.5938,-5.4844 -6.7031,-9.14060003 -12.422,-8.95310003 -5.6719,0.23438 -10.5,4.31250003 -11.672,9.89060003 -15.938,78.5619996 -47.109,132.2800006 -91.078,165.0500006 -117.75,84.281 -152.39,156.89 -121.97,270.37 2.5312,8.8594 3.8906,18.047 4.0312,27.234 -0.28125,49.266 -35.25,78.562 -71.625,87.938 -42,10.875 -78.234,-31.781 -62.297,-72.094 38.25,-96.656 40.828,-163.55 -6.7031,-214.4 -59.578,-61.125 -182.289995,-51.047 -184.219995,34.078 -12.656,16.359 -38.766,18.562 -49.0310003,26.625 v 0.0469 c -2.48439996,2.0156 -3.70309996,5.2031 -3.14059996,8.3438 0.51562,3.1875 2.71879996,5.8125 5.76559996,6.8906 16.5000003,6 55.1250003,-8.90621 87.1880003,-17.625 23.999995,6.2344 49.733995,-1.40621 76.874995,-20.625 68.297,45.047 10.219,119.15999 -25.359,198.51999 v -0.0469 c -5.7188,12.422 -9.75,25.547 -12.047,39 -11.578,73.594 33.141,131.81 122.06,177.94 121.6,51.703 228.37,32.625 322.6,-46.641 h -0.0469 c 3,-2.5781 3.9844,-6.7969 2.4375,-10.406 -1.5469,-3.6562 -5.2969,-5.8125 -9.2344,-5.3438 -30.234,4.0312 -57,0.0469 -79.922,-12.938 -62.953,14.812 -109.03,5.7656 -148.4,-31.172 -2.25,-2.1562 -3.2812,-5.25 -2.7656,-8.2969 0.5156,-3.0469 2.4844,-5.6719 5.2969,-6.9844 3.3281,-1.5469 7.2656,-0.98438 10.078,1.4062 77.812,64.734 202.6,18.047 283.55,-66.281 3.75,-3.8906 4.5469,-9.7031 2.0156,-14.438 -2.5781,-4.7812 -7.875,-7.3125 -13.172,-6.375 -6.5625,1.4062 -13.266,1.9219 -19.969,1.5469 30.75,-15.75 57.281,-43.359 80.812,-79.125 v 0.0469 c 3.1875,-4.7812 2.7188,-11.062 -1.125,-15.281 -3.8438,-4.219 -10.078,-5.25 -15.094,-2.5312 -5.2969,2.7656 -10.875,4.9688 -16.594,6.6094 35.625,-36.562 62.953,-80.391 79.969,-128.53 1.875,-5.5781 -0.42188,-11.766 -5.5312,-14.719 -5.1094,-3 -11.625,-1.9219 -15.516,2.5312 z"
     id="path112" />
</svg>
