<?xml version="1.0" encoding="UTF-8" standalone="no"?>
<svg
   width="1200pt"
   height="1200pt"
   version="1.1"
   viewBox="0 0 1200 1200"
   id="svg5551"
   sodipodi:docname="intelligence.svg"
   inkscape:version="1.2.2 (b0a8486541, 2022-12-01)"
   xmlns:inkscape="http://www.inkscape.org/namespaces/inkscape"
   xmlns:sodipodi="http://sodipodi.sourceforge.net/DTD/sodipodi-0.dtd"
   xmlns="http://www.w3.org/2000/svg"
   xmlns:svg="http://www.w3.org/2000/svg">
  <defs
     id="defs5555" />
  <sodipodi:namedview
     id="namedview5553"
     pagecolor="#ffffff"
     bordercolor="#000000"
     borderopacity="0.25"
     inkscape:showpageshadow="2"
     inkscape:pageopacity="0.0"
     inkscape:pagecheckerboard="0"
     inkscape:deskcolor="#d1d1d1"
     inkscape:document-units="pt"
     showgrid="false"
     inkscape:zoom="0.2621875"
     inkscape:cx="272.7056"
     inkscape:cy="1029.7974"
     inkscape:window-width="2560"
     inkscape:window-height="1011"
     inkscape:window-x="0"
     inkscape:window-y="32"
     inkscape:window-maximized="1"
     inkscape:current-layer="svg5551" />
  <path
     d="M 995.21825,1078.0569 H 204.79266 c -1.71714,0 -3.21965,0.054 -4.45382,0.161 -1.39524,0.1073 -2.84405,0.2683 -4.34655,0.4829 l -0.53661,0.1073 v -0.054 l -0.42929,0.054 c -14.38053,2.3074 -27.09886,9.7663 -36.22149,20.3379 -8.85407,10.2492 -14.16647,23.6108 -14.16647,38.1527 v 38.9575 c 0,5.5271 2.25382,10.5712 5.95633,14.2203 3.7562,3.7026 9.01502,6.01 14.75716,6.01 h 869.29988 c 5.7954,0 11.0005,-2.3074 14.7571,-6.01 3.7027,-3.6489 5.9564,-8.6394 5.9564,-14.2203 v -38.9575 c 0,-16.259 -6.7077,-31.0162 -17.547,-41.7484 -10.9468,-10.7858 -26.0251,-17.4931 -42.66078,-17.4931 z m -14.32788,-37.4556 v -21.4105 c 0,-14.5957 -5.52703,-27.79602 -14.43433,-37.29413 -8.63943,-9.17598 -20.44435,-14.91743 -33.37676,-14.91743 H 266.94079 c -1.28786,0 -2.52203,0.0537 -3.7562,0.16098 -1.34155,0.10732 -2.57572,0.26831 -3.70263,0.48295 -11.05408,1.93179 -20.71337,8.10276 -27.74222,16.95625 -7.51252,9.44431 -12.18144,21.73218 -12.61073,35.20148 l -0.75125,20.821 z M 287.00279,929.52369 h 635.50459 c -27.20647,-104.74596 1.28786,-235.72992 21.73221,-329.69219 3.16596,-14.48814 6.1174,-28.22532 7.40526,-34.39674 1.34155,-6.4393 2.68309,-13.52196 3.97095,-21.24912 21.19647,-123.7376 3.16597,-243.61735 -51.83608,-338.81597 C 849.2065,110.81899 757.93672,40.30607 632.25302,14.285572 627.31622,13.266022 621.6818,12.192828 615.29676,11.119611 580.79241,5.2169759 545.75232,2.2655439 511.30177,3.9291157 480.60834,5.3779298 450.28926,10.422106 421.09776,20.242011 c 5.68811,13.629566 13.30789,34.021258 17.49315,45.128908 l 0.0537,0.107322 c 6.60025,17.600755 2.30738,31.767216 -12.8786,42.445579 -9.98098,7.02954 -29.94247,21.14266 -41.53321,38.79722 -11.0005,16.74218 -17.97624,33.96745 -25.43552,52.26537 -10.62479,26.13268 -22.05503,54.358 -46.68464,88.37926 -3.48799,4.82953 -9.44431,12.55692 -16.47431,21.73221 -33.48436,43.46556 -94.38927,122.67297 -84.56948,146.97632 0.64393,1.60976 1.44881,3.11238 2.25381,4.50751 7.88811,12.71719 25.06004,24.89863 44.53821,32.57198 18.94242,7.45883 39.1727,10.24919 53.60703,4.40025 1.66346,-0.6976 3.21965,-1.44881 4.61478,-2.30739 9.17597,-5.6881 18.83481,-15.40052 27.74222,-24.36173 7.29788,-7.35157 14.16646,-14.22027 21.24912,-19.53198 15.82981,-11.85861 27.15267,-12.8786 45.98748,-14.48814 4.40025,-0.37562 9.22967,-0.8049 11.91242,-1.07321 28.27912,-3.11239 52.31918,-7.94181 74.69589,-16.47431 22.00123,-8.42478 42.60699,-20.55196 64.39301,-38.42059 29.35291,-23.98625 42.98247,-20.06886 40.83604,11.85862 -0.37562,5.74168 -1.18048,17.22527 -9.81991,40.67463 -4.56119,12.3417 -11.42978,28.33292 -21.08885,46.68464 -7.45883,14.16646 -16.74218,29.88866 -28.1177,46.63084 -28.38673,41.85488 -62.67586,76.73471 -97.23402,111.88242 -72.76352,73.94492 -146.91908,149.44901 -159.69465,290.83888 z"
     fill-rule="evenodd"
     id="path5549"
     style="stroke-width:1.14476" />
</svg>
