<?xml version="1.0" encoding="UTF-8"?>
<svg width="1200pt" height="1200pt" version="1.1" viewBox="0 0 1200 1200" xmlns="http://www.w3.org/2000/svg">
 <path d="m342.94 413.06c-6.8906-3.2344-14.109-6.4219-21.516-9.6562-7.6875-3.375-15.469-6.8438-23.25-10.5l0.046875-0.046875c-5.8125 14.297 0.1875 30.656 13.828 37.828 13.688 7.1719 30.562 2.7656 39-10.172-1.875-3.2812-4.6875-5.8594-8.1094-7.4531z"/>
 <path d="m466.5 403.4c-7.3594 3.2344-14.578 6.4219-21.516 9.6562-3.4219 1.5938-6.2344 4.1719-8.1094 7.4531 8.4375 12.938 25.312 17.344 39 10.172 13.641-7.1719 19.641-23.531 13.828-37.828-7.7812 3.7031-15.516 7.1719-23.203 10.547z"/>
 <path d="m967.92 870.56c-96.844 9.0469-195.71-77.203-240.47-188.02-41.109-91.688-111.52-146.76-206.95-170.48l-0.046875 0.046875c30.844-48.141 31.547-109.59 1.7812-158.39 27.094-17.016 46.406-37.594 43.406-65.672-63.938 74.766-104.91 23.062-171.61 23.062-66.75 0-107.72 51.703-171.66-23.062h-0.09375c-2.9062 28.031 16.312 48.656 43.312 65.625v-0.046875c-25.312 41.766-28.734 93.188-9.0938 137.9-40.125 96.609-12.656 187.13 66.938 245.34-13.594-61.594-0.79688-112.31 42.281-155.34-57.609 104.3-7.2188 231.24 109.88 250.13l0.046874 0.046875c-17.016-20.344-24.656-46.969-20.953-73.266 15.703 58.641 62.156 100.69 136.03 113.81-40.125-32.016-56.906-69-47.719-101.39 15.703 74.953 83.344 121.5 180.19 122.53-55.734-30.234-86.344-72.656-96.469-122.53 53.906 92.906 143.06 135.71 233.81 141.1-72.891-38.438-126.37-77.297-163.87-140.39 94.641 91.453 192.98 164.86 276.71 116.39 3.75-2.2031 5.4844-6.7031 4.1719-10.875-1.2656-4.125-5.2969-6.8438-9.6094-6.5156zm-509.72-408.37c-8.2969 0-16.5-1.7812-24.094-5.2031-0.98438 15.188-5.1562 30-12.234 43.5-5.5781 10.172-16.266 16.5-27.844 16.5-11.625 0-22.312-6.3281-27.891-16.5-7.0781-13.5-11.297-28.359-12.328-43.547-7.5469 3.4688-15.75 5.25-24.094 5.25-23.016 0-43.922-13.453-53.391-34.406-9.5156-20.953-5.8125-45.562 9.375-62.859 21.281 11.062 44.812 20.719 65.438 30.281v0.046875c14.203 6.6094 22.922 21.234 21.984 36.891-1.3125 24.656 2.2969 44.438 10.219 58.875v-0.046875c2.1094 3.9375 6.1875 6.4219 10.688 6.4219 4.4531 0 8.5312-2.4844 10.641-6.4219 8.0156-14.438 11.531-34.219 10.219-58.875v0.046875c-0.89062-15.656 7.7812-30.281 21.984-36.891 20.719-9.5625 44.203-19.219 65.438-30.281v-0.046875c15.188 17.344 18.797 41.906 9.2812 62.859-9.4688 20.953-30.375 34.406-53.391 34.406z"/>
</svg>
