<?xml version="1.0" encoding="UTF-8"?>
<svg width="1200pt" height="1200pt" version="1.1" viewBox="0 0 1200 1200" xmlns="http://www.w3.org/2000/svg">
 <path d="m802.8 589.2c67.199 67.199 63.602 178.8-8.3984 250.8l-243.6 243.6c-37.199 37.199-85.199 56.398-133.2 56.398-43.199 0-85.199-15.602-117.6-48l-139.2-138c-32.398-32.398-50.398-78-48-126 2.3984-46.801 21.602-91.199 56.398-124.8l117.6-117.6c12 31.199 30 58.801 54 81.602l8.3984 8.3984-103.2 103.2c-14.398 14.398-24 33.602-24 54-1.1992 18 4.8008 33.602 15.602 44.398l138 138c24 24 69.602 20.398 98.398-8.3984l243.6-243.6c28.801-28.801 32.398-74.398 8.3984-98.398l-138-138c-21.602-21.602-21.602-55.199 0-75.602 10.801-10.801 24-15.602 38.398-15.602 13.199 0 27.602 4.8008 38.398 15.602zm236.4-343.2-139.2-138c-67.199-67.199-178.8-63.602-250.8 8.3984l-243.6 243.6c-72 70.801-75.602 183.6-8.3984 250.8l138 138c10.801 10.801 24 15.602 38.398 15.602 13.199 0 27.602-4.8008 38.398-15.602 21.602-21.602 21.602-55.199 0-75.602l-138-139.2c-10.801-10.801-16.801-27.602-15.602-44.398 1.1992-19.199 9.6016-38.398 24-54l243.6-243.6c28.801-28.801 74.398-32.398 98.398-8.3984l138 138c24 24 20.398 69.602-8.3984 98.398l-102 104.4 8.3984 8.3984c24 24 42 51.602 54 81.602l117.6-117.6c69.602-70.797 73.199-183.6 7.1992-250.8z"/>
</svg>
