<?xml version="1.0" encoding="UTF-8" standalone="no"?>
<svg
   width="1236.7897"
   height="1279.6981"
   viewBox="0 0 927.59225 959.77359"
   version="1.1"
   id="svg266"
   sodipodi:docname="will.svg"
   inkscape:version="1.2.2 (b0a8486541, 2022-12-01)"
   xmlns:inkscape="http://www.inkscape.org/namespaces/inkscape"
   xmlns:sodipodi="http://sodipodi.sourceforge.net/DTD/sodipodi-0.dtd"
   xmlns="http://www.w3.org/2000/svg"
   xmlns:svg="http://www.w3.org/2000/svg">
  <defs
     id="defs270" />
  <sodipodi:namedview
     id="namedview268"
     pagecolor="#ffffff"
     bordercolor="#000000"
     borderopacity="0.25"
     inkscape:showpageshadow="2"
     inkscape:pageopacity="0.0"
     inkscape:pagecheckerboard="0"
     inkscape:deskcolor="#d1d1d1"
     showgrid="false"
     inkscape:zoom="0.524375"
     inkscape:cx="620.73897"
     inkscape:cy="638.85578"
     inkscape:window-width="2560"
     inkscape:window-height="1011"
     inkscape:window-x="0"
     inkscape:window-y="32"
     inkscape:window-maximized="1"
     inkscape:current-layer="svg266" />
  <path
     d="m 279.22677,303.39918 -1.113,10.012 a 140.9,140.9 0 0 0 12.96,74.805 43.02,43.02 0 0 0 21.673,20.188 43,43 0 0 0 29.59,1.39 432.3,432.3 0 0 1 121.43,-16.096 432.3,432.3 0 0 1 121.43,16.098 43.02,43.02 0 0 0 51.262,-21.579 140.9,140.9 0 0 0 12.96,-74.805 l -1.113,-10.012 a 123.6,123.6 0 0 1 14.258,-71.488 c 28.516,-52.68 68.051,-163.400001 -55.109,-230.3400013 a 13.203,13.203 0 0 0 -16.683,19.7190003 c 26.898,34.785 53.793,80.890001 23.863,97.777001 -30.344,17.094 -43.082,-0.313 -48.438,-17.102 a 5.68,5.68 0 0 0 -5.672,-4.016001 5.666,5.666 0 0 0 -5.297,4.492001 80.44,80.44 0 0 0 22.805,67.488 c 4.594,4.528 7.43,10.54 8.004,16.965 0.574,6.425 -1.152,12.848 -4.871,18.121 a 2.7,2.7 0 0 0 -0.504,0.606 37.17,37.17 0 0 1 -21.578,13.39 37.14,37.14 0 0 1 -25.137,-3.581 0.53,0.53 0 0 0 -0.406,-0.203 150.58,150.58 0 0 0 -139.54,0 0.53,0.53 0 0 0 -0.403,0.203 37.17,37.17 0 0 1 -25.14,3.582 37.15,37.15 0 0 1 -21.575,-13.391 2.7,2.7 0 0 0 -0.507,-0.606 27.224,27.224 0 0 1 3.136,-35.086 80.47,80.47 0 0 0 22.805,-67.488 5.674,5.674 0 0 0 -5.3,-4.492001 5.68,5.68 0 0 0 -5.672,4.016001 c -5.356,16.789 -18.098,34.19 -48.438,17.102 -29.93,-16.887 -3.032,-62.996001 23.863,-97.777001 a 13.203,13.203 0 0 0 -16.684,-19.7190003 c -123.16,66.9380003 -83.62,177.6600013 -55.109,230.3400013 a 123.63,123.63 0 0 1 14.258,71.488 z"
     id="path262" />
  <path
     d="m 915.36677,679.03918 -59.152,-25.379 a 34.57,34.57 0 0 1 -16.379,-14.461 l -35.492,-59.961 a 75.36,75.36 0 0 0 -65.016,-37.109 h -95.352 v -41.258 a 6.2,6.2 0 0 0 -0.102,-1.313 l 19.211,-6.57 v -0.004 a 147.69,147.69 0 0 0 93.531,-99.496 205.9,205.9 0 0 1 71.793,-114.97 20.58,20.58 0 0 0 8.594,-11.418 20.62,20.62 0 0 0 -0.91,-14.266 20.354,20.354 0 0 0 -29.828,-8.188 244.14,244.14 0 0 0 -88.477,137.72 107.41,107.41 0 0 1 -67.848,72.399 l -19.516,6.675 -0.305,0.102 -0.504,0.203 v -0.004 a 8.2,8.2 0 0 0 -1.312,-1.316 l -0.102,-0.102 a 320.85,320.85 0 0 0 -164.41,-36.297 320.8,320.8 0 0 0 -164.41,36.301 l -0.101,0.102 v -0.004 a 8.2,8.2 0 0 0 -1.313,1.316 l -0.507,-0.203 -0.305,-0.101 -19.516,-6.676 0.004,0.004 a 107.43,107.43 0 0 1 -67.848,-72.398 244.16,244.16 0 0 0 -88.477,-137.72 20.35,20.35 0 0 0 -16.801,-2.77 20.35,20.35 0 0 0 -13.027002,10.961 20.58,20.58 0 0 0 -0.906,14.262 20.57,20.57 0 0 0 8.59,11.418 205.86,205.86 0 0 1 71.792002,114.97 147.69,147.69 0 0 0 93.531,99.5 l 19.211,6.57 a 6.2,6.2 0 0 0 -0.101,1.317 v 41.258 h -95.352 v -0.004 a 75.37,75.37 0 0 0 -65.016,37.11 l -35.492002,59.96 a 34.57,34.57 0 0 1 -16.38,14.461 l -59.151,25.38 a 20.2,20.2 0 0 0 -12.07800014,16.194 20.21,20.21 0 0 0 7.98800004,18.555 20.22,20.22 0 0 0 20.0660001,2.36 l 59.051,-25.278 v -0.003 a 75.53,75.53 0 0 0 35.387002,-31.04 l 35.391,-60.065 a 35.15,35.15 0 0 1 30.234,-17.188 h 95.352 v 42.266 h -18 0.004 a 87.12,87.12 0 0 0 -86.757,79.578 l -7.078,81.297 a 153.25,153.25 0 0 1 -37.312,87.566 l -34.074,38.93 a 20.18,20.18 0 0 0 -4.945002,14.652 20.2,20.2 0 0 0 6.863002,13.859 20.216,20.216 0 0 0 28.515,-1.918 l 34.074,-38.93 h 0.004 a 193.86,193.86 0 0 0 47.219,-110.72 l 6.976,-81.195 a 46.74,46.74 0 0 1 46.512,-42.672 h 18 v 108.6 a 177.22,177.22 0 0 0 36.805,108.39 334.4,334.4 0 0 0 75.301,71.707 33.96,33.96 0 0 0 44.464,-5.755 33.96,33.96 0 0 0 8.45,-22.418 v -295.57 a 15.5,15.5 0 0 1 11.28,-15.23 15.19,15.19 0 0 1 19.055,14.687 v 296.12 a 33.97,33.97 0 0 0 8.45,22.418 33.97,33.97 0 0 0 21.148,11.258 34,34 0 0 0 23.316,-5.508 334.4,334.4 0 0 0 75.297,-71.703 177.24,177.24 0 0 0 36.81,-108.4 v -108.6 h 18 a 46.73,46.73 0 0 1 31.546,12.297 46.74,46.74 0 0 1 14.965,30.375 l 6.977,81.195 a 193.84,193.84 0 0 0 47.219,110.72 l 34.074,38.93 h 0.004 a 20.205,20.205 0 0 0 34.34,-6.765 20.19,20.19 0 0 0 -3.907,-19.824 l -34.074,-38.93 a 153.24,153.24 0 0 1 -37.312,-87.566 l -7.078,-81.297 a 87.14,87.14 0 0 0 -27.902,-56.66 87.14,87.14 0 0 0 -58.852,-22.918 h -18 v -42.266 h 95.352 a 35.14,35.14 0 0 1 30.234,17.19 l 35.391,60.063 a 75.5,75.5 0 0 0 35.391,31.039 l 59.051,25.277 v 0.004 a 20.21,20.21 0 0 0 20.062,-2.36 c 5.785,-4.316 8.832,-11.387 7.989,-18.555 -0.843,-7.168 -5.446,-13.344 -12.074,-16.195 z"
     id="path264" />
</svg>
