<?xml version="1.0" encoding="UTF-8"?>
<svg width="1200pt" height="1200pt" version="1.1" viewBox="0 0 1200 1200" xmlns="http://www.w3.org/2000/svg">
 <path d="m904.45 854.77c-48.023-34.344-94.031-79.645-129.56-129.04-37.523-52.129-50.746-96.625-93.203-142.41-24.348-26.281-49.656-37.523-73.969-37.523-69.445 0-129.49 86.762-153.27 197.43-20.605 58.199-65.605 79.754-94.512 145.15-28.922 65.438-9.7422 131.3 38.891 163.73 14.258 7.6094 28.176 10.715 41.797 10.715 48.266 0 92.93-38.879 137.45-53.641 34.246-11.363 62.977-15.91 91.535-15.91 34.883 0 69.48 6.793 113.58 16.246 22.332 4.8008 49.367 9.5391 74.676 9.5391 27.625 0 53.184-5.6523 68.281-23.148 43.609-50.5 21.84-109.96-21.695-141.13z"/>
 <path d="m358.25 732.65c24.863-2.6055 46.98-19.043 55.895-46.586 1.0938-3.3125 1.957-6.8164 2.6289-10.488 9.8984-53.531-82.031-145.99-120.42-170.84-3.6016-2.0273-12.277-15.227-12.277-15.227-4.668-9.0352-9.9609-22.309-10.715-36.48-0.58984-7.1523-0.011719-14.41 1.5703-21.254 0 0 5.9531-22.586 18.07-35.605-21.359 8.0508-34.945 26.988-34.945 26.988-5.5078 6.7422-10.477 15.023-14.051 23.953-3.8164 8.9414-6.2031 18.445-7.6797 27.516-1.4141 9.1211-1.8242 17.762-1.7266 25.223 0.14453 7.4531 0.73047 13.715 1.4297 18.301l0.27734 1.4414c-2.4258 7.332-3.6602 15.324-4.0195 22.812-2.9648 61.043 20.773 122.9 63.887 166.32 18.578 18.672 41.297 26.125 62.078 23.93z"/>
 <path d="m453.16 249.16c-4.1875-13.656-8.9648-34.309-6.4805-51.961 0 0 2.2188-31.176 39.18-60-37.332 6.4922-57.254 35.305-57.254 35.305-3.6836 4.1055-6.3594 8.7969-9.6602 13.414-5.6289 9.4922-10.668 19.633-14.113 29.398-3.7695 9.8281-6.0859 19.273-8.0039 27.516-1.1523 4.7266-2.207 12.852-2.9414 19.297-35.305 84.805-26.641 187.88 32.461 258.2 8.2422 9.793 17.688 19.211 29.746 23.438 4.3789 1.5352 8.8438 2.2305 13.262 2.2305 25.547 0 49.754-23.867 55.453-50.242 6.6836-30.875-4.3555-62.578-15.254-92.23z"/>
 <path d="m810.06 627.6c11.039 24.828 33.254 37.992 56.746 37.992 19.598 0 40.043-9.2031 55.535-28.43 35.965-44.723 52.031-104.75 43.273-161.41-1.0664-6.9375-3.0117-14.281-5.9766-20.879l0.12109-1.3906c0.20313-4.3438 0.14453-10.234-0.45703-17.219-0.63672-6.9727-1.8594-14.977-4.1055-23.34-2.2695-8.3398-5.4258-16.969-9.8516-24.926-9.9375-22.98-32.531-34.297-32.531-34.297l-18.191-8.4258s16.98 15.359 20.328 31.43c2.1719 6.2383 3.4336 12.973 3.5898 19.668 0.68359 13.297-2.9414 26.207-6.4219 35.125 0 0-6.8164 13.129-9.9492 15.383-33.383 26.977-110.09 122.26-95.605 171.21 0.98828 3.3359 2.1523 6.5156 3.4961 9.5039z"/>
 <path d="m668.3 404.57c-10.609 28.895-21.371 59.773-14.867 89.855 5.543 25.668 29.16 48.949 54.035 48.949 4.2969 0 8.6406-0.69531 12.926-2.1953 11.746-4.1055 20.953-13.297 28.969-22.824 57.383-68.258 65.965-168.23 31.957-250.68-0.50391-4.9922-1.5859-11.699-3.1914-19.668-1.8828-8.0039-4.1406-17.207-7.7891-26.762-3.3711-9.5625-8.2578-19.414-13.754-28.645-3.2148-4.5-5.832-9.0977-9.4062-13.117 0 0-19.391-28.055-55.777-34.355 36 28.094 38.16 58.441 38.16 58.441 2.4375 17.305-2.3047 37.598-6.4062 50.891z"/>
</svg>
