<svg xmlns="http://www.w3.org/2000/svg" width="33mm" height="33mm" viewBox="0 0 33 33"><path d="m117.349 119.842-16.328 11.89 6.262 19.202 20.198-.02 6.22-19.217zm-2.372 6.473c.108.007.377.083.7.2 1.363.495 3.195.668 4.922.467l.992-.116-1.232.626c-1.516.77-3.13 1.846-3.648 2.433-.258.292-.433.685-.519 1.164-.13.728.061 1.602.577 2.638.04-.09.079-.178.125-.27.245-.511.527-1.115.957-1.548.298-.353.613-.752 1.073-1.028 1.39-.773 2.684-1.16 4.406-.804.332.068.623.086.646.04.023-.047-.044-.234-.15-.417-.183-.313-.385-1.591-.285-1.792q.01-.018.046.024c.07.08.207.326.352.636.615 1.314 1.787 2.732 3.15 3.81l.784.62-1.314-.429c-1.616-.527-3.518-.907-4.3-.858-.387.024-.79.178-1.189.456-.607.422-1.09 1.176-1.458 2.273.092-.035.182-.07.28-.103.534-.188 1.161-.415 1.77-.418.462-.038.967-.098 1.487.032 1.53.436 2.718 1.078 3.684 2.548.186.283.38.5.428.484.05-.016.134-.196.189-.4.092-.35.852-1.398 1.065-1.469q.02-.006.016.05c-.008.106-.084.376-.2.698-.495 1.363-.669 3.195-.467 4.922l.116.993-.626-1.233c-.77-1.516-1.847-3.13-2.433-3.648-.292-.257-.685-.432-1.164-.518-.728-.13-1.602.06-2.638.576q.133.06.27.125c.511.245 1.115.528 1.548.957.353.299.752.614 1.028 1.074.773 1.39 1.16 2.684.804 4.406-.068.332-.087.622-.04.646.046.023.234-.045.416-.15.314-.183 1.592-.385 1.792-.285q.019.01-.023.045c-.081.07-.326.208-.636.353-1.314.614-2.732 1.787-3.81 3.15l-.62.784.429-1.314c.527-1.617.907-3.519.858-4.3-.024-.388-.178-.79-.456-1.19-.423-.606-1.176-1.09-2.273-1.457.035.092.07.182.102.28.188.534.415 1.161.418 1.77.039.461.099.966-.031 1.487-.436 1.529-1.079 2.717-2.548 3.684-.283.186-.5.379-.484.428.016.05.196.134.4.188.35.093 1.398.853 1.469 1.066.018.054-.319-.029-.748-.185-1.364-.494-3.195-.668-4.922-.466l-.993.115 1.233-.625c1.516-.77 3.13-1.847 3.647-2.434.258-.291.433-.684.519-1.164.13-.728-.061-1.602-.577-2.638-.04.09-.079.179-.125.27-.245.512-.527 1.116-.957 1.548-.298.354-.613.753-1.073 1.029-1.39.773-2.684 1.159-4.406.803-.332-.068-.623-.086-.646-.04-.023.047.045.234.15.417.183.313.385 1.592.285 1.792-.026.051-.205-.246-.398-.66-.615-1.313-1.787-2.731-3.15-3.81l-.784-.62 1.314.43c1.616.527 3.518.906 4.3.858.387-.024.79-.178 1.189-.456.607-.423 1.09-1.176 1.458-2.273-.092.034-.182.07-.28.102-.534.188-1.161.415-1.77.418-.462.038-.967.098-1.487-.032-1.53-.436-2.718-1.078-3.684-2.547-.186-.283-.379-.501-.428-.485-.05.017-.134.197-.188.4-.093.351-.853 1.399-1.066 1.47-.054.017.029-.32.184-.748.495-1.364.669-3.196.467-4.923l-.116-.992.626 1.232c.77 1.516 1.847 3.13 2.434 3.648.291.257.684.432 1.163.518.728.131 1.603-.06 2.638-.576q-.133-.058-.27-.125c-.51-.245-1.115-.528-1.548-.957-.353-.299-.752-.613-1.028-1.073-.773-1.39-1.16-2.684-.804-4.407.068-.331.087-.622.04-.646-.046-.023-.234.045-.416.151-.314.182-1.592.385-1.792.284-.051-.025.245-.204.659-.397 1.314-.615 2.732-1.787 3.81-3.151l.62-.784-.429 1.315c-.527 1.616-.907 3.518-.858 4.3.024.387.178.789.456 1.189.423.607 1.176 1.09 2.273 1.457-.035-.092-.07-.182-.102-.28-.188-.534-.415-1.16-.418-1.77-.039-.46-.098-.966.032-1.486.436-1.53 1.078-2.718 2.547-3.684.283-.186.5-.38.484-.429-.016-.05-.196-.134-.4-.188-.35-.093-1.398-.853-1.469-1.065q-.005-.02.05-.016" style="stroke-width:2.76575" transform="translate(-100.83 -119.483)"/></svg>