<?xml version="1.0" encoding="UTF-8"?>
<svg width="1200pt" height="1200pt" version="1.1" viewBox="0 0 1200 1200" xmlns="http://www.w3.org/2000/svg">
 <path d="m769.33 942.67c-46.668-10.668-253.33-52-409.33-1.332-6.668 2.668-13.332-2.668-13.332-8-4-46.668-25.332-208-105.33-229.33 0 0-73.332-30.668-98.668 22.668-6.668 13.332-8 28-5.332 41.332 2.668 14.668 8 32 22.668 37.332l-50.672 34.664s-1.332-1.332-5.332-4c-114.67-85.332-97.332-256 34.668-317.33 66.668-30.668 161.33-36 285.33 50.668 0 0-12-341.33 221.33-374.67 24-4 48-2.668 72 2.668 50.668 10.668 140 42.668 150.67 124h-52s-9.332-28-49.332-33.332c-41.332-5.332-80 17.332-96 53.332-14.668 32-22.668 81.332-1.332 154.67 1.332 4 1.332 6.668 2.668 10.668 2.668 12 12 46.668 38.668 98.668 0 0 225.33-170.67 370.67-14.668 1.332 1.332 2.668 2.668 4 4 14.668 13.332 130.67 133.33-1.332 248l-38.668-34.668s41.332-62.668-20-80c-2.668 0-4-1.332-6.668-2.668-16-6.668-98.668-30.668-157.33 70.668l-73.332 137.33c-6.6758 7.9961-12.008 10.664-18.676 9.332"/>
 <path d="m96 870.67c0-41.332 36-73.332 78.668-73.332s78.668 33.332 78.668 73.332c0 41.332-36 73.332-78.668 73.332s-78.668-32-78.668-73.332"/>
 <path d="m946.67 880c0-41.332 36-73.332 78.668-73.332 44 0 78.668 33.332 78.668 73.332s-36 73.332-78.668 73.332c-42.668 0-78.668-32-78.668-73.332"/>
 <path d="m760 386.67c0-41.332 36-73.332 78.668-73.332 44 0 78.668 33.332 78.668 73.332 0 41.332-36 73.332-78.668 73.332-42.668 1.332-78.668-32-78.668-73.332"/>
</svg>
