<?xml version="1.0" encoding="UTF-8"?>
<svg width="1200pt" height="1200pt" version="1.1" viewBox="0 0 1200 1200" xmlns="http://www.w3.org/2000/svg">
 <path d="m1030.8 469.08c-32.867-77.758-86.16-145.18-154.23-195.12-68.066-49.941-148.38-80.543-232.41-88.559l-44.16-136.56-44.16 136.56c-84.039 8.0156-164.35 38.617-232.41 88.559-68.066 49.938-121.36 117.36-154.23 195.12h-148.92l121.8 87.84v0.003906c-16.508 80.512-11.488 163.96 14.555 241.91 26.039 77.953 72.18 147.66 133.77 202.09l-48.598 147.72 126.6-92.641c70.496 40.422 150.34 61.688 231.6 61.688s161.11-21.266 231.6-61.688l126.6 92.16-48-148.2h-0.003906c61.586-54.426 107.73-124.13 133.77-202.09 26.039-77.953 31.059-161.4 14.551-241.91l121.8-87.84zm-79.559 0h-215.16l-22.922-70.441-44.516-137.28c59.914 10.621 116.58 34.906 165.59 70.973 49.008 36.066 89.051 82.941 117.01 136.99zm-121.8 163.68-31.922 23.039-37.32-114.48h196.56zm-50.398 200.64 41.16 125.76-158.76-115.68 97.68-70.801 19.441 60zm-371.88 42.598 1.3203-3.8398 32.398-99 97.801 70.801-159 115.2zm328.32-175.2-135.48 98.16-135.48-98.16 51.48-158.88h168l51.719 158.52zm-91.082-280.8 15.602 49.32h-120l60-186.36zm-204 121.44-37.32 114.48-159.36-114.6zm91.078-280.32-49.555 153-18 55.199h-215.16c27.957-54.047 68-100.92 117.01-136.99 49.012-36.066 105.68-60.352 165.59-70.973zm-326.88 389.52c-0.015624-15.645 0.94922-31.277 2.8789-46.801l142.2 102.6 29.879 21.719-40.797 125.04-24 72c-70.953-73.762-110.45-172.21-110.16-274.56zm396 396c-57.836-0.039063-114.95-12.824-167.28-37.441l114-83.039 52.68-38.16 33.602 24 133.08 97.199c-52.184 24.379-109.08 36.996-166.68 36.961zm396-396c0.035157 102.25-39.633 200.51-110.64 274.08l-37.32-113.64-27-82.922 50.039-36 122.16-88.199v0.003907c1.625 15.504 2.3477 31.09 2.1602 46.68z"/>
</svg>
