<?xml version="1.0" encoding="UTF-8" standalone="no"?>
<svg
   width="33mm"
   height="33mm"
   viewBox="0 0 33 33"
   version="1.1"
   id="svg640"
   sodipodi:docname="successes.svg"
   inkscape:version="1.2.2 (b0a8486541, 2022-12-01)"
   xmlns:inkscape="http://www.inkscape.org/namespaces/inkscape"
   xmlns:sodipodi="http://sodipodi.sourceforge.net/DTD/sodipodi-0.dtd"
   xmlns="http://www.w3.org/2000/svg"
   xmlns:svg="http://www.w3.org/2000/svg">
  <defs
     id="defs644" />
  <sodipodi:namedview
     id="namedview642"
     pagecolor="#ffffff"
     bordercolor="#000000"
     borderopacity="0.25"
     inkscape:showpageshadow="2"
     inkscape:pageopacity="0.0"
     inkscape:pagecheckerboard="0"
     inkscape:deskcolor="#d1d1d1"
     inkscape:document-units="mm"
     showgrid="false"
     inkscape:zoom="1.6817077"
     inkscape:cx="41.32704"
     inkscape:cy="120.116"
     inkscape:window-width="2560"
     inkscape:window-height="1011"
     inkscape:window-x="0"
     inkscape:window-y="32"
     inkscape:window-maximized="1"
     inkscape:current-layer="svg640" />
  <path
     id="path638"
     style="stroke-width:2.76575"
     d="M 117.34889 119.84215 L 101.0212 131.73186 L 107.28284 150.93431 L 127.48057 150.91312 L 133.7019 131.69724 L 117.34889 119.84215 z M 117.32977 123.90805 C 121.37877 123.90805 124.67247 127.20217 124.67247 131.25076 C 124.67247 135.07421 121.73463 138.22489 117.99794 138.56349 L 117.99794 140.91322 L 113.47471 140.91322 L 113.47471 134.07022 L 117.32977 134.07022 C 118.88423 134.07022 120.14923 132.80576 120.14923 131.25127 C 120.14923 129.69656 118.88423 128.43181 117.32977 128.43181 C 115.7753 128.43181 114.5103 129.69653 114.5103 131.25127 L 109.98758 131.25127 C 109.98758 127.20248 113.28077 123.90805 117.32977 123.90805 z M 115.81255 142.27024 C 117.72103 142.27018 119.26763 143.81705 119.26763 145.72533 C 119.26763 147.63364 117.72095 149.18041 115.81255 149.18041 C 113.90447 149.18041 112.35746 147.63351 112.35746 145.72533 C 112.35746 143.81701 113.90453 142.27024 115.81255 142.27024 z "
     transform="translate(-100.83,-119.483)" />
</svg>
