<?xml version="1.0" encoding="UTF-8" standalone="no"?>
<svg
   width="1600"
   height="1600"
   viewBox="0 0 1200 1200"
   version="1.1"
   id="svg1208"
   sodipodi:docname="success-0.svg"
   inkscape:version="1.2.2 (b0a8486541, 2022-12-01)"
   xmlns:inkscape="http://www.inkscape.org/namespaces/inkscape"
   xmlns:sodipodi="http://sodipodi.sourceforge.net/DTD/sodipodi-0.dtd"
   xmlns="http://www.w3.org/2000/svg"
   xmlns:svg="http://www.w3.org/2000/svg">
  <defs
     id="defs1212" />
  <sodipodi:namedview
     id="namedview1210"
     pagecolor="#ffffff"
     bordercolor="#000000"
     borderopacity="0.25"
     inkscape:showpageshadow="2"
     inkscape:pageopacity="0.0"
     inkscape:pagecheckerboard="0"
     inkscape:deskcolor="#d1d1d1"
     showgrid="false"
     inkscape:zoom="0.2621875"
     inkscape:cx="13.349225"
     inkscape:cy="1090.8224"
     inkscape:window-width="2560"
     inkscape:window-height="1011"
     inkscape:window-x="0"
     inkscape:window-y="32"
     inkscape:window-maximized="1"
     inkscape:current-layer="svg1208" />
  <path
     id="path710"
     inkscape:transform-center-x="-1.0442243"
     inkscape:transform-center-y="-19.679662"
     d="M -40.571037 -7.4612821 L -49.251747 1.2376877 L -43.661018 12.181679 L -31.525031 10.246436 L -29.615329 -1.8935635 L -40.571037 -7.4612821 z M -35.575046 -1.8538209 L -34.52903 -1.0938669 L -35.658228 0.46034103 A 4.5227565 4.5227565 0 0 1 -35.159822 6.3539219 A 4.5231603 4.5231603 0 0 1 -37.788677 8.0994261 A 4.5227565 4.5227565 0 0 1 -40.918887 7.701163 L -42.048109 9.2553747 L -43.094129 8.4953968 L -41.964935 6.9411649 A 4.5227565 4.5227565 0 0 1 -42.463337 1.047608 A 4.5231603 4.5231603 0 0 1 -39.834506 -0.69789234 A 4.5227565 4.5227565 0 0 1 -36.704244 -0.29961291 L -35.575046 -1.8538209 z M -39.288615 0.51108218 A 3.230002 3.230002 0 0 0 -39.740409 0.61221225 A 3.2302711 3.2302711 0 0 0 -41.544824 1.985274 A 3.2302711 3.2302711 0 0 0 -42.002376 4.2061252 L -42.002492 4.2061682 A 3.2096765 3.2096765 0 0 0 -41.193248 5.8769567 L -37.477995 0.76335025 A 3.230002 3.230002 0 0 0 -39.288615 0.51108218 z M -36.430055 1.524596 L -40.145308 6.6382024 A 3.2096765 3.2096765 0 0 0 -38.306247 6.8915416 L -38.306242 6.891418 A 3.2305404 3.2305404 0 0 0 -36.335478 5.7699796 A 3.2298673 3.2298673 0 0 0 -35.58719 3.6295756 A 3.2305404 3.2305404 0 0 0 -36.430055 1.524596 z "
     transform="matrix(59.638127,9.4457511,-9.4457511,59.638127,2949.6086,838.89856)" />
</svg>
