<?xml version="1.0" encoding="UTF-8" standalone="no"?>
<svg
   width="33mm"
   height="33mm"
   viewBox="0 0 33 33"
   version="1.1"
   id="svg813"
   sodipodi:docname="success-3.svg"
   inkscape:version="1.2.2 (b0a8486541, 2022-12-01)"
   xmlns:inkscape="http://www.inkscape.org/namespaces/inkscape"
   xmlns:sodipodi="http://sodipodi.sourceforge.net/DTD/sodipodi-0.dtd"
   xmlns="http://www.w3.org/2000/svg"
   xmlns:svg="http://www.w3.org/2000/svg">
  <defs
     id="defs817" />
  <sodipodi:namedview
     id="namedview815"
     pagecolor="#ffffff"
     bordercolor="#000000"
     borderopacity="0.25"
     inkscape:showpageshadow="2"
     inkscape:pageopacity="0.0"
     inkscape:pagecheckerboard="0"
     inkscape:deskcolor="#d1d1d1"
     inkscape:document-units="mm"
     showgrid="false"
     inkscape:zoom="4.7565877"
     inkscape:cx="9.3554462"
     inkscape:cy="75.684508"
     inkscape:window-width="2560"
     inkscape:window-height="1011"
     inkscape:window-x="0"
     inkscape:window-y="32"
     inkscape:window-maximized="1"
     inkscape:current-layer="svg813" />
  <path
     id="path710"
     inkscape:transform-center-x="-0.080571235"
     inkscape:transform-center-y="-1.5184248"
     d="M -40.571133 -7.4612685 L -49.251645 1.2376478 L -43.660946 12.181699 L -31.525113 10.24652 L -29.615393 -1.8934394 L -40.571133 -7.4612685 z M -40.017157 -2.476255 C -39.927304 -2.4909612 -39.837016 -2.4998031 -39.747215 -2.5024558 C -39.147118 -2.5201827 -38.742956 -2.3941863 -38.246284 -2.0344192 C -37.962075 -1.8285528 -37.861273 -1.731391 -37.711606 -1.5187139 C -37.476917 -1.1852262 -37.356351 -0.88913028 -37.291905 -0.48882349 C -37.123787 0.55551633 -37.691853 1.5999051 -38.668416 2.0416195 C -38.934248 2.1618591 -39.471041 2.2657197 -39.72878 2.2468104 C -40.258074 2.2079738 -40.622757 2.0745799 -41.043831 1.7665237 C -41.30331 1.5766905 -41.396603 1.4829929 -41.561512 1.2455795 C -42.141103 0.41116126 -42.15823 -0.60733302 -41.607 -1.4515179 C -41.258564 -1.9851307 -40.646121 -2.3733106 -40.017157 -2.476255 z M -41.922218 4.0191086 C -41.832365 4.0044022 -41.742077 3.9955604 -41.652276 3.9929078 C -41.05218 3.9751807 -40.648016 4.1011776 -40.151345 4.4609443 C -39.867136 4.6668106 -39.766333 4.7639727 -39.616667 4.9766497 C -39.381978 5.3101371 -39.261411 5.6062337 -39.196966 6.0065401 C -39.028848 7.0508787 -39.596915 8.0952693 -40.573477 8.536983 C -40.839309 8.6572226 -41.376102 8.7610832 -41.633841 8.742174 C -42.163135 8.7033373 -42.527769 8.5702537 -42.948843 8.2621978 C -43.208322 8.0723648 -43.301664 7.9783563 -43.466573 7.740943 C -44.046163 6.9065258 -44.063289 5.8880297 -43.512061 5.0438456 C -43.163625 4.5102332 -42.551181 4.1220528 -41.922218 4.0191086 z M -35.880155 3.0621399 C -35.790303 3.0474335 -35.700015 3.0385918 -35.610214 3.0359391 C -35.010115 3.0182121 -34.605956 3.1442081 -34.109282 3.5039756 C -33.825074 3.7098423 -33.724273 3.8070036 -33.574604 4.019681 C -33.339915 4.353169 -33.21935 4.6492642 -33.154903 5.0495714 C -32.986785 6.0939122 -33.55485 7.1382996 -34.531415 7.5800144 C -34.797247 7.7002541 -35.33404 7.8041146 -35.591778 7.7852053 C -36.121072 7.7463686 -36.485706 7.6132856 -36.90678 7.3052291 C -37.166259 7.1153957 -37.259602 7.0213881 -37.42451 6.7839743 C -38.004103 5.9495553 -38.021229 4.9310627 -37.469998 4.0868769 C -37.121563 3.5532635 -36.509121 3.1650844 -35.880155 3.0621399 z "
     transform="matrix(1.6233072,0.2571066,-0.2571066,1.6233072,80.428437,23.496984)" />
</svg>
