<?xml version="1.0" encoding="UTF-8" standalone="no"?>
<svg
   width="33mm"
   height="33mm"
   viewBox="0 0 33 33"
   version="1.1"
   id="svg813"
   sodipodi:docname="success-4.svg"
   inkscape:version="1.2.2 (b0a8486541, 2022-12-01)"
   xmlns:inkscape="http://www.inkscape.org/namespaces/inkscape"
   xmlns:sodipodi="http://sodipodi.sourceforge.net/DTD/sodipodi-0.dtd"
   xmlns="http://www.w3.org/2000/svg"
   xmlns:svg="http://www.w3.org/2000/svg">
  <defs
     id="defs817" />
  <sodipodi:namedview
     id="namedview815"
     pagecolor="#ffffff"
     bordercolor="#000000"
     borderopacity="0.25"
     inkscape:showpageshadow="2"
     inkscape:pageopacity="0.0"
     inkscape:pagecheckerboard="0"
     inkscape:deskcolor="#d1d1d1"
     inkscape:document-units="mm"
     showgrid="false"
     inkscape:zoom="4.7565877"
     inkscape:cx="9.3554462"
     inkscape:cy="75.684508"
     inkscape:window-width="2560"
     inkscape:window-height="1011"
     inkscape:window-x="0"
     inkscape:window-y="32"
     inkscape:window-maximized="1"
     inkscape:current-layer="svg813" />
  <path
     id="path710"
     inkscape:transform-center-x="-0.080571235"
     inkscape:transform-center-y="-1.5184248"
     d="M -40.571133 -7.4612685 L -49.251645 1.2376478 L -43.660946 12.181699 L -31.525113 10.24652 L -29.615393 -1.8934394 L -40.571133 -7.4612685 z M -42.828819 -1.7049507 C -42.738968 -1.7196571 -42.648679 -1.7284988 -42.558878 -1.7311515 C -41.958781 -1.7488785 -41.554619 -1.6228821 -41.057947 -1.263115 C -40.773738 -1.0572485 -40.672937 -0.96008678 -40.523268 -0.7474096 C -40.288581 -0.41392196 -40.168015 -0.11782602 -40.103567 0.28248076 C -39.935451 1.3268206 -40.503516 2.3712094 -41.480079 2.8129238 C -41.745911 2.9331633 -42.282704 3.037024 -42.540443 3.0181147 C -43.069736 2.979278 -43.43442 2.8458842 -43.855494 2.5378279 C -44.114973 2.3479947 -44.208266 2.2542973 -44.373175 2.0168837 C -44.952766 1.1824656 -44.969892 0.16397118 -44.418663 -0.68021368 C -44.070227 -1.2138266 -43.457785 -1.6020064 -42.828819 -1.7049507 z M -36.786757 -2.6619194 C -36.696905 -2.6766257 -36.606615 -2.6854675 -36.516816 -2.6881202 C -35.916717 -2.7058472 -35.512556 -2.5798504 -35.015884 -2.2200837 C -34.731676 -2.0142174 -34.630875 -1.9170553 -34.481206 -1.7043783 C -34.246517 -1.3708909 -34.125952 -1.0747943 -34.061505 -0.67448793 C -33.893387 0.36985084 -34.461454 1.4142411 -35.438017 1.8559551 C -35.703847 1.9761944 -36.240644 2.0800553 -36.49838 2.061146 C -37.027674 2.0223093 -37.392359 1.8889152 -37.813431 1.5808592 C -38.07291 1.3910263 -38.166203 1.2973284 -38.331112 1.059915 C -38.910705 0.22549776 -38.927831 -0.79299821 -38.3766 -1.6371824 C -38.028167 -2.1707946 -37.415721 -2.5589752 -36.786757 -2.6619194 z M -41.922218 4.0191086 C -41.832365 4.0044022 -41.742077 3.9955604 -41.652276 3.9929078 C -41.052178 3.9751807 -40.648018 4.1011768 -40.151345 4.4609443 C -39.867136 4.666811 -39.766335 4.7639723 -39.616667 4.9766497 C -39.381978 5.3101377 -39.261413 5.6062329 -39.196966 6.0065401 C -39.028848 7.0508809 -39.596913 8.0952683 -40.573477 8.536983 C -40.839309 8.6572228 -41.376102 8.7610832 -41.633841 8.742174 C -42.163135 8.7033373 -42.527769 8.5702543 -42.948843 8.2621978 C -43.208322 8.0723644 -43.301664 7.9783567 -43.466573 7.740943 C -44.046165 6.906524 -44.063291 5.8880313 -43.512061 5.0438456 C -43.163625 4.5102322 -42.551183 4.122053 -41.922218 4.0191086 z M -35.880155 3.0621399 C -35.790303 3.0474335 -35.700015 3.0385918 -35.610214 3.0359391 C -35.010115 3.0182121 -34.605956 3.1442093 -34.109282 3.5039756 C -33.825074 3.7098417 -33.724273 3.8070042 -33.574604 4.019681 C -33.339915 4.3531681 -33.21935 4.6492654 -33.154903 5.0495714 C -32.986785 6.0939089 -33.554853 7.1383008 -34.531415 7.5800144 C -34.797247 7.7002535 -35.334043 7.8041146 -35.591778 7.7852053 C -36.121072 7.7463686 -36.485709 7.6132847 -36.90678 7.3052291 C -37.166259 7.1153963 -37.259602 7.0213875 -37.42451 6.7839743 C -38.004103 5.949558 -38.021229 4.9310603 -37.469998 4.0868769 C -37.121566 3.5532653 -36.509118 3.1650841 -35.880155 3.0621399 z "
     transform="matrix(1.6233072,0.2571066,-0.2571066,1.6233072,80.428437,23.496984)" />
</svg>
