<svg xmlns="http://www.w3.org/2000/svg" width="33mm" height="33mm" viewBox="0 0 33 33"><path d="M105.183 106.628a6.455 6.455 0 0 0-6.469 6.47v20.062a6.455 6.455 0 0 0 6.469 6.469h20.062a6.455 6.455 0 0 0 6.47-6.47v-20.062a6.455 6.455 0 0 0-6.47-6.469zm3.442 4.912a5 5 0 0 1 5 5 5 5 0 0 1-5 5 5 5 0 0 1-5-5 5 5 0 0 1 5-5m13.178 0a5 5 0 0 1 5 5 5 5 0 0 1-5 5 5 5 0 0 1-5-5 5 5 0 0 1 5-5m-13.178 13.177a5 5 0 0 1 5 5 5 5 0 0 1-5 5 5 5 0 0 1-5-5 5 5 0 0 1 5-5m13.178 0a5 5 0 0 1 5 5 5 5 0 0 1-5 5 5 5 0 0 1-5-5 5 5 0 0 1 5-5" style="stroke-width:2.76575" transform="translate(-98.714 -106.628)"/></svg>