<?xml version="1.0" encoding="UTF-8" standalone="no"?>
<svg
   width="33mm"
   height="33mm"
   viewBox="0 0 33 33"
   version="1.1"
   id="svg813"
   sodipodi:docname="success-2.svg"
   inkscape:version="1.2.2 (b0a8486541, 2022-12-01)"
   xmlns:inkscape="http://www.inkscape.org/namespaces/inkscape"
   xmlns:sodipodi="http://sodipodi.sourceforge.net/DTD/sodipodi-0.dtd"
   xmlns="http://www.w3.org/2000/svg"
   xmlns:svg="http://www.w3.org/2000/svg">
  <defs
     id="defs817" />
  <sodipodi:namedview
     id="namedview815"
     pagecolor="#ffffff"
     bordercolor="#000000"
     borderopacity="0.25"
     inkscape:showpageshadow="2"
     inkscape:pageopacity="0.0"
     inkscape:pagecheckerboard="0"
     inkscape:deskcolor="#d1d1d1"
     inkscape:document-units="mm"
     showgrid="false"
     inkscape:zoom="4.7565877"
     inkscape:cx="9.3554462"
     inkscape:cy="75.684508"
     inkscape:window-width="2560"
     inkscape:window-height="1011"
     inkscape:window-x="0"
     inkscape:window-y="32"
     inkscape:window-maximized="1"
     inkscape:current-layer="svg813" />
  <path
     id="path710"
     inkscape:transform-center-x="-0.080571235"
     inkscape:transform-center-y="-1.5184248"
     d="M -40.571133 -7.4612685 L -49.251645 1.2376478 L -43.660946 12.181699 L -31.525113 10.24652 L -29.615393 -1.8934394 L -40.571133 -7.4612685 z M -36.91581 -2.3572014 C -36.656512 -2.3982702 -36.390004 -2.3948651 -36.120818 -2.3465477 C -35.75319 -2.28056 -35.495007 -2.1659226 -35.148713 -1.915086 C -34.308531 -1.3065033 -33.973027 -0.26688863 -34.291176 0.74157583 C -34.355011 0.9439209 -34.440228 1.1010141 -34.629518 1.3649933 C -34.847807 1.6694145 -34.92284 1.7458892 -35.175943 1.9207724 C -35.648659 2.2473987 -36.130284 2.3907689 -36.664997 2.363855 C -37.044242 2.3447659 -37.510088 2.1871313 -37.840578 1.9662123 C -38.399424 1.5926463 -38.727313 1.1099968 -38.859322 0.46646511 C -38.952207 0.013650756 -38.93492 -0.30312728 -38.793636 -0.74885708 C -38.61562 -1.310473 -38.190003 -1.8219939 -37.668289 -2.1014523 C -37.427209 -2.2305878 -37.175108 -2.3161326 -36.91581 -2.3572014 z M -41.604214 3.9687418 C -41.514362 3.9540355 -41.424074 3.9451937 -41.334273 3.942541 C -40.734175 3.924814 -40.330015 4.0508103 -39.833341 4.4105776 C -39.549134 4.616444 -39.448332 4.7136057 -39.298663 4.9262829 C -39.063975 5.2597706 -38.943409 5.5558665 -38.878962 5.9561733 C -38.710844 7.000513 -39.27891 8.0449019 -40.255474 8.4866163 C -40.521306 8.6068559 -41.058099 8.7107165 -41.315838 8.6918072 C -41.84513 8.6529705 -42.209766 8.5198873 -42.630839 8.211831 C -42.890318 8.0219978 -42.983661 7.9279898 -43.14857 7.6905762 C -43.728161 6.8561581 -43.745287 5.8376637 -43.194058 4.9934788 C -42.845622 4.459866 -42.23318 4.0716862 -41.604214 3.9687418 z "
     transform="matrix(1.6233072,0.2571066,-0.2571066,1.6233072,80.428437,23.496984)" />
</svg>
