<svg xmlns="http://www.w3.org/2000/svg" width="1600" height="1600" viewBox="0 0 1200 1200"><path d="M902.04 230.04 801.12 330.96h.004a336 336 0 0 0-225.06-65.605 336.03 336.03 0 0 0-213.18 97.527 336 336 0 0 0-31.922 438.24l-100.92 100.92 67.922 67.922 100.92-100.92-.004-.004a336 336 0 0 0 225.06 65.605 336.03 336.03 0 0 0 213.18-97.527 336 336 0 0 0 31.922-438.24l100.92-100.92zM360 600a239.98 239.98 0 0 1 59.383-157.64 239.98 239.98 0 0 1 148.36-79.781 239.96 239.96 0 0 1 164.25 37.383l-332.04 332.04a238.45 238.45 0 0 1-39.961-132zm240 240a238.45 238.45 0 0 1-132-39.961l332.04-332.04a240 240 0 0 1 37.383 164.25 239.95 239.95 0 0 1-79.781 148.36 240 240 0 0 1-157.64 59.383z"/></svg>