<svg xmlns="http://www.w3.org/2000/svg" width="1087.162" height="1279.188" viewBox="0 0 815.371 959.391"><path d="M712.013 103.501s26.062-78.28 19.594-85.594c-4.781-5.437-72.375 61.5-73.828 59.438 0 0-6.234-70.078-18.141-76.969s-107.2 81.891-140.16 186.42c-14.391 45.656-3.328 99.656-40.688 151.4-58.266 80.766-125.16 28.875-212.72 132-65.156 76.734-99 186.94-101.53 286.31-1.734 68.11 5.625 92.953-5.297 96.422-48.516 15.516-99.328-19.312-66.422-130.97 18.89-64.125 45.234-146.11 34.36-211.4-15.19-91.219-88.923-152.29-103.27-128.34-19.782 32.953 41.25 50.156 54.468 128.44 12.61 74.72-23.203 133.26-37.03 202.5-17.44 87.234-6 151.36 32.108 191.06 41.53 43.312 126.1 28.97 134.48 32.297 8.39 3.328 16.22 14.438 44.39 15.047 33.47.75 279.56 2.813 289.69 2.484 29.11-.937 35.345-41.625-8.155-59.109-22.078-8.859-75.047 1.125-118.27 4.36 0 0 96.328-59.672 91.969-150.79-3.844-79.922-59.062-121.22-147.05-119.48 44.906-15.094 156.05-7.594 165.79 118.27 5.25 67.406-66.328 127.64-66.328 127.64 43.5-15.422 79.312-71.578 95.109-122.02l53.812 177.05s11.25 25.03 37.547 27.516 66 6.656 65.109-18.328c-.797-22.78-17.484-35.39-45.422-36.516-15.094-59.672-37.97-160.55 10.03-260.76-31.171 86.25-22.968 193.08 6.845 255.28 26.953 6.047 41.297 18.703 39.797 46.875 0 0 34.875 5.672 32.297-26.53-2.625-32.626-41.766-29.767-44.672-35.392-8.625-16.547-19.688-97.266-16.828-165.47 4.172-99.28 35.484-108.98 61.03-177.1 20.017-53.297 9.423-130.45-10.64-169.55-13.875-27.047-19.172-44.578-18.984-58.828 0 0 10.406-6.422 26.109-6.656 15.703-.235 33.234 6.984 54.516-16.172s30.28-41.86 29.719-49.734c-.797-11.344-16.266-20.016-24.422-28.78-8.156-8.766-14.86-16.595-14.72-27.235.235-15.047-9.14-53.953-64.358-79.266z"/></svg>