<svg xmlns="http://www.w3.org/2000/svg" viewBox="0 0 1200 1200"><path d="M957.79 188.76c-10.078.469-56.016 31.078-69.703 48.094-14.578 18.141-21.469 31.266-27 36.703-8.344 8.156-21.609 15.141-40.688 46.453-23.531 38.578-26.906 105.89-70.359 137.63-54.188 39.562-131.29 2.11-276.05 52.219-83.719 28.969-126.94 111.42-161.95 206.16-31.031 83.953-85.641 126.14-118.12 126.56-35.812.422-57.047-29.625-72.094-.469-15.047 29.203 27.375 57.234 72.984 57.047 84.281-.281 160.13-93.047 199.08-221.63 3.89 24.375 11.484 68.578-6 112.59-21.516 54.141-47.156 58.312-51.938 66.562-6.656 11.484-13.219 103.5-3.14 129.61 6.562 17.016 12.421 21.703 20.39 22.125s48.328 1.313 53.625-.468c20.062-6.704 11.812-36.094-5.39-40.688-11.812-3.141-19.125.89-19.97-6.61-1.077-9.844-.093-55.688 13.267-63.75 13.922-8.344 72.469-32.672 115.92-62.812 41.438-28.78 70.594-66.188 108.84-73.453 41.953-7.922 123.89-2.672 123.89-2.672 0 65.016 18.562 191.06 26.53 215.44 5.438 16.688 9.704 35.672 30.095 37.172 17.25 1.266 46.78.422 53.53-.89 26.813-5.25 10.829-38.016-3.984-42.47-9.187-2.765-23.016-.562-24.75-10.171-2.765-15.141-6.609-112.22 13.312-160.6 20.25-49.22 51.516-61.406 75.188-91.125 33.281-41.86 57.094-97.312 49.547-154.36-4.687-35.766-13.734-80.953 6.188-93.797s45.89 4.171 59.25-.47c22.172-7.593 32.39-35.155 40.266-41.108 10.969-8.344 17.719-18.61 7.969-29.625-9.75-11.062-27.984-25.172-28.312-37.172-1.078-37.875-26.86-60.422-56.203-69.891 0 0 28.312-43.36 23.906-49.547s-63.703 33.188-63.703 33.188 12.375-69.47 7.078-73.453c-.328-.235-.844-.328-1.5-.281zm-27.703 522.37c-22.266 30.656-48.094 41.672-67.688 75.609 30.984 35.812 106.36 69.422 117.23 101.77 5.11 15.141-5.344 39.656 2.625 58.828 11.906 28.5 48.234 30.562 51.75 2.672 2.484-19.5-6.187-81.422-18.562-104.44-6.516-12.094-23.016-37.594-40.688-60.141-17.719-22.547-44.672-74.344-44.672-74.344zm-277.64 59.484s-45.141 1.875-65.391 19.078c-18.75 15.938-66.984 52.547-69.141 57.562-4.078 9.703-9.703 29.719-9.375 42.844s7.828 20.953 14.391 27.844c6.563 6.89 66.141 81.328 89.156 87.562 17.203 4.688 69.422 9.094 71.344-14.672 1.594-20.062-20.016-29.719-27.516-29.438-7.5.328-21.609-1.219-31.312-10.312s-39.422-42.844-35.625-59.109c3.75-16.266 57.844-56.297 63.516-121.36z"/></svg>