<?xml version="1.0" encoding="UTF-8"?>
<svg width="1200pt" height="1200pt" version="1.1" viewBox="0 0 1200 1200" xmlns="http://www.w3.org/2000/svg">
 <path d="m726.71 497.76c-26.766-17.297-59.156-23.625-90.469-17.766-23.906 2.8594-48.094 2.8594-72 0-31.266-6-63.609 0.1875-90.469 17.297-24-5.5312-121.92-20.859-121.92-48 0-36.469 159.84-170.16 155.53-209.29-128.9 36.469-267.37 131.06-267.37 230.63 0 42.703 27.844 99.609 145.45 142.31-96 10.312-109.22 65.062-109.92 67.453-1.125 5.5312 2.0625 11.016 7.4062 12.75 8.1562 2.1562 18.938 6.4688 31.922 11.531 41.766 15.609 96 39.141 140.86 29.062l0.046875-0.046875c16.969 53.719 37.922 106.08 62.625 156.71 1.9219 3.8438 4.5469 7.9219 6.9375 11.766l-9.375-6.9375h0.046875c-5.9531 13.922-4.7812 29.906 3.1875 42.797 8.0156 12.891 21.75 21.094 36.891 21.984h88.312c15.094-0.98438 28.781-9.1875 36.703-22.078s9.0938-28.828 3.1406-42.703l-9.375 6.7031c2.5312-3.7031 4.7812-7.5469 6.75-11.531 24.656-50.625 45.516-102.98 62.391-156.71 44.625 10.312 99.375-13.688 140.86-29.062 12.938-5.0625 24-9.375 31.922-11.531v0.046875c5.3906-1.7344 8.5781-7.2188 7.4531-12.75 0-2.3906-13.453-57.141-109.92-67.453 117.84-42.703 144-99.609 145.45-142.31 0-99.141-138.94-194.86-266.86-230.63-1.6875 40.078 155.53 174.24 155.53 209.29 0.1875 30.703-91.969 42-121.74 48.469z"/>
</svg>
