<svg xmlns="http://www.w3.org/2000/svg" width="1600" height="1600" viewBox="0 0 1200 1200"><path d="M904.82 708c38.766-1.828 74.25-20.906 97.312-52.359 16.453-22.359 25.125-48.891 25.125-76.688 0-29.203-9.984-57.797-28.078-80.438-3.234-4.078-4.172-9.562-2.39-14.438 4.734-13.125 7.124-26.859 7.124-40.875 0-61.078-45.703-111.89-106.31-118.27a126 126 0 0 0-12.609-.656c-65.578 0-118.92 53.344-118.92 118.92 0 8.297-6.703 15-15 15s-15-6.703-15-15c0-82.125 66.797-148.92 148.92-148.92 1.36 0 2.72.094 4.079.094a82.3 82.3 0 0 0 4.03-25.406c0-35.016-21.655-65.016-52.265-77.438a14.7 14.7 0 0 1-3-1.172 83.4 83.4 0 0 0-28.312-4.922c-30.562 0-58.688 16.688-73.36 43.594-3.984 7.265-13.077 9.937-20.343 5.953s-9.938-13.078-5.953-20.344a113.67 113.67 0 0 1 80.344-57.562c-61.406-36.094-122.11-44.953-153.14-30.328-14.86 6.984-22.125 18.89-22.125 36.375v141.71c1.453-.985 2.953-1.969 4.5-2.86 16.969-9.843 36.703-12.469 55.547-7.406 8.015 2.156 12.75 10.36 10.64 18.375-2.156 8.016-10.358 12.75-18.374 10.641-11.11-2.953-22.734-1.406-32.766 4.406-9.516 5.532-16.36 14.25-19.547 24.656v505.18a159.74 159.74 0 0 1 67.594-53.766c7.64-3.234 16.406.329 19.64 7.97 3.235 7.64-.328 16.405-7.968 19.64-48.141 20.344-79.266 67.125-79.266 119.16 0 71.297 57.984 129.28 129.28 129.28 44.062 0 84.656-22.03 108.61-58.922a14.93 14.93 0 0 1 8.953-6.375c57.703-14.297 98.016-65.906 98.016-125.48 0-7.828-.656-15.562-1.922-22.922-1.031-5.86 1.547-11.812 6.562-15.094 36.516-23.953 58.312-64.312 58.312-107.91 0-18.188-3.843-36.047-11.25-52.5-27.797 28.36-65.109 45.281-105.28 47.203h-.75a14.96 14.96 0 0 1-14.953-14.297c-.375-8.297 6-15.28 14.25-15.703zm-8.719 137.68c8.297 0 15 6.703 15 15s-6.703 15-15 15c-71.297 0-129.28 57.891-129.28 129.05 0 8.297-6.703 15-15 15s-15-6.703-15-15c0-66.844 41.578-124.18 100.22-147.66-5.203-66.516-60.89-119.06-128.63-119.06-8.297 0-15-6.703-15-15s6.703-15 15-15c81.328 0 148.6 61.5 157.87 140.53a160 160 0 0 1 29.766-2.812zM876.695 663.9c-67.266 0-129.24-42.938-151.31-108.7-16.547-3.281-32.812-9.281-48.188-18.188-7.172-4.125-9.656-13.312-5.484-20.484 4.125-7.172 13.312-9.656 20.484-5.484 61.688 35.578 140.9 14.344 176.63-47.344 4.172-7.172 13.312-9.61 20.484-5.485 7.172 4.172 9.61 13.312 5.484 20.484-29.109 50.25-81.703 78.703-135.94 79.5 25.781 56.344 89.344 87.75 151.18 71.297 8.016-2.156 16.22 2.625 18.328 10.641 2.11 8.016-2.625 16.22-10.64 18.328a158.5 158.5 0 0 1-40.97 5.39zm-313.82-537.19c-31.03-14.625-91.734-5.766-153.14 30.328 34.031 5.813 63.797 26.812 80.391 57.656 3.938 7.313 1.219 16.406-6.094 20.297-7.312 3.938-16.406 1.219-20.297-6.094-14.438-26.812-42.562-43.5-73.312-43.5a83.3 83.3 0 0 0-28.266 4.922q-1.405.704-2.953 1.125c-30.656 12.375-52.359 42.422-52.359 77.484 0 8.625 1.36 17.156 4.032 25.406 1.359-.047 2.718-.094 4.078-.094 82.125 0 148.92 66.797 148.92 148.92 0 8.297-6.703 15-15 15s-15-6.703-15-15c0-65.578-53.344-118.92-118.92-118.92-4.172 0-8.438.235-12.61.657-60.608 6.375-106.27 57.234-106.27 118.27 0 14.016 2.391 27.75 7.126 40.875 1.78 4.921.843 10.359-2.391 14.438-18.094 22.688-28.078 51.28-28.078 80.438 0 27.797 8.672 54.328 25.125 76.688 23.344 31.453 58.781 50.53 97.312 52.359 8.297.375 14.672 7.406 14.25 15.703-.375 8.015-7.031 14.297-14.953 14.297h-.75c-39.984-1.922-77.297-18.844-105.23-47.203-7.266 16.359-11.062 34.172-11.062 52.5 0 43.688 21.703 84.047 58.078 107.91a15.1 15.1 0 0 1 6.563 15.094c-1.266 7.359-1.922 15.094-1.922 22.922 0 59.578 40.312 111.14 98.016 125.48 3.703.89 6.89 3.187 8.953 6.375 23.953 36.89 64.547 58.922 108.61 58.922 71.297 0 129.28-57.984 129.28-129.28v-524.63c-3.188-10.453-10.078-19.172-19.547-24.656-9.938-5.72-21.562-7.22-32.72-4.172-7.968 2.156-16.218-2.531-18.421-10.547-2.203-7.97 2.53-16.22 10.547-18.422 18.938-5.156 38.672-2.625 55.594 7.125a74 74 0 0 1 4.547 2.86v-215.16c0-17.485-7.22-29.392-22.125-36.376zM491.813 738c-67.828 0-123.61 52.547-128.86 119.06 58.688 23.484 100.22 80.812 100.22 147.66 0 8.297-6.703 15-15 15s-15-6.703-15-15c0-71.156-57.984-129.05-129.28-129.05-8.297 0-15-6.703-15-15s6.703-15 15-15c10.172 0 20.11.984 29.766 2.812 9.328-79.03 76.688-140.53 158.16-140.53 8.297 0 15 6.704 15 15s-6.703 15-15 15zm36.516-221.53c4.172 7.172 1.688 16.359-5.484 20.484-15.234 8.813-31.453 14.906-48.234 18.281-12.281 36.891-37.266 67.641-71.297 87.281-24.562 14.156-51.797 21.375-79.406 21.375-13.781 0-27.703-1.828-41.391-5.437-8.016-2.157-12.75-10.36-10.641-18.375 2.156-8.016 10.359-12.75 18.375-10.641 33.328 8.906 68.156 4.312 98.062-12.938 23.625-13.641 41.859-33.891 52.922-58.22-13.078-.187-26.25-2.015-39.234-5.484-41.11-11.062-75.47-37.359-96.75-74.156-4.172-7.172-1.688-16.359 5.484-20.484 7.172-4.172 16.36-1.687 20.484 5.485 17.297 29.859 45.188 51.234 78.562 60.188 33.422 8.953 68.203 4.406 98.016-12.844 7.172-4.172 16.36-1.688 20.484 5.484z"/></svg>