<svg xmlns="http://www.w3.org/2000/svg" width="1199.806" height="930.996" viewBox="0 0 899.855 698.247"><path fill-rule="evenodd" d="M28.061 95.624h364.13l12.375-5.25c3.234-3.234 5.25-7.687 5.25-12.609l-.047-59.906C409.77 8.015 401.8 0 391.91 0H28.251c-9.844 0-17.859 7.969-17.859 17.859v59.906c.047 9.703 7.922 17.812 17.672 17.859zm102.89 495.05c-41.062-3.75-80.906-9.14-119.53-16.078-16.219 37.125-15.28 69.141 3.562 106.36 32.062 5.344 67.875 9.844 106.69 12.234 40.078 2.484 83.531 2.672 129.56-.75 30.047-24 62.156-35.766 96.375-35.25 33.984.516 69.562 13.172 106.59 38.016 83.812 4.781 158.34 3.938 223.64-2.625 65.391-6.562 121.5-18.844 168.19-36.797 20.297-11.156 34.922-22.875 43.828-35.062 14.812-20.25 10.688-40.875 3.47-63.234-25.829 35.484-69.376 58.641-130.6 69.375-43.079 6.61-110.39 9.14-154.97 8.156-44.063-.984-113.48-6.562-157.6-15.094q-56.394-12.304-102.23-18l-80.72-4.687c-28.172-.188-55.922-1.125-83.156-2.672zm37.97-20.953L14.66 550.877c-7.689-44.859 3.655-88.688 26.061-130.13 73.125 19.406 111.09 76.219 128.21 148.97zm216.71-450.1c9.937 78.562 17.811 132.32 28.311 171.56l-54.422 26.344c-14.203 6.844-3.75 28.406 10.406 21.562l51.094-24.75 20.344 41.297-45.094 33.469c-12.609 9.375 1.64 28.594 14.25 19.219l46.125-34.266c13.266 13.312 29.531 24.094 50.203 35.25l-34.922 32.25c-11.625 10.688 4.64 28.312 16.22 17.625l41.483-38.344c20.203 9.281 40.312 16.172 60.141 21.328l-30.703 38.578c-9.75 12.234 8.86 27.141 18.656 14.906l37.97-47.531c33.374 6.516 65.811 9.14 96.374 11.578 73.547 5.86 135.74 10.875 169.6 71.531-20.344 37.172-61.359 61.172-123.05 72.047-49.688 6.375-99.797 8.953-150.37 7.828-50.438-1.125-101.48-6-153-14.625-38.344-8.39-73.125-14.484-104.34-18.328q-46.968-5.765-83.812-4.781a1701 1701 0 0 1-73.219-2.156c-18.234-84.61-62.578-151.45-147.42-173.76l-7.5-277.82z"/></svg>