<svg xmlns="http://www.w3.org/2000/svg" width="1020.669" height="1154.525" viewBox="0 0 765.502 865.894"><path d="m760.918 602.73-.023-.024c-12.95-27.133-43.621-40.906-72.504-32.543l-148.29 43.262 215.58-369.13c9.757-16.535 6.707-37.633-7.38-50.676l-5.35-4.98c-16.177-15.013-41.399-14.427-56.88 1.296l-195.78 205.75 150.48-322.46c8.809-18.719 1.57-41.016-16.547-51l-13.094-7.21c-21.254-11.689-47.94-4.599-60.613 16.093L363.028 345.78l87.984-287.41c3.504-11.914 1.98-24.758-4.234-35.496a45.3 45.3 0 0 0-28.61-21.434c-22.714-5.543-46.272 5.293-56.854 26.172l-135.1 271 26.207-184.92c3.695-26.074-13.32-50.605-39.047-56.28l-1.477-.337c-25.199-5.543-50.508 8.82-58.668 33.301L7.139 528.965s-58.094 202.88 157.16 299.21c191.4 85.68 343.36 4.645 409.7-39.227 45.648-30.203 141.45-100.45 177.48-125.18 15.36-10.57 17.461-44.16 9.418-61.02z"/></svg>