<svg xmlns="http://www.w3.org/2000/svg" width="1183.884" height="1519.913" viewBox="0 0 887.913 1139.934"><path d="m105.474 1052.738 365.06 85.922c25.078 5.953 50.297-9.516 56.391-34.547 4.453-18.47 9.703-36.703 13.547-55.22 3.375-19.687 8.297-39.093 14.766-57.983 3.516-10.406 9.844-19.641 18.234-26.72 8.156-5.53 17.766-8.437 27.609-8.296 18.797 1.078 37.547 3.469 56.062 7.078a208.5 208.5 0 0 0 58.172 0 73.85 73.85 0 0 0 55.688-37.312c10.078-21.375 5.297-45.703 5.86-68.53a72.1 72.1 0 0 1 7.078-33.235c4.921-9.14 14.625-14.39 19.312-24s5.296-19.78-5.86-41.53c18.375-8.391 24-17.298 24.844-24 .094-6.798-1.172-13.548-3.844-19.782a170.2 170.2 0 0 1-5.765-40.078c-.516-4.687.703-9.422 3.375-13.312 4.5-3.703 10.172-5.531 15.938-5.156 18.609-1.453 45.375-8.86 53.39-27.938 9.141-21.703-8.155-48-18.14-65.86-13.078-24-29.391-46.311-44.625-69.14l.047-.047c-9.75-13.266-18.094-27.516-24.984-42.47-7.688-19.921-1.547-42.937 1.546-63.233 17.156-109.78-36-218.16-117-290.06-126.71-112.31-296.39-97.78-320.26-95.39-32.859 3.234-188.76 18.937-286.55 148.08-93.938 123.71-96 306-28.688 442.08 24 48 56.156 91.92 69.47 144 19.452 75.374-3.704 155.16-20.626 228.84-4.453 19.546-8.625 37.077-12 52.077-3.656 15.89 6.141 31.78 21.938 35.766z"/></svg>