<?xml version="1.0" encoding="UTF-8" standalone="no"?>
<svg
   width="937.5pt"
   height="937.505pt"
   version="1.1"
   viewBox="0 0 937.5 937.505"
   id="svg210"
   sodipodi:docname="gold.svg"
   inkscape:version="1.2.2 (b0a8486541, 2022-12-01)"
   xmlns:inkscape="http://www.inkscape.org/namespaces/inkscape"
   xmlns:sodipodi="http://sodipodi.sourceforge.net/DTD/sodipodi-0.dtd"
   xmlns="http://www.w3.org/2000/svg"
   xmlns:svg="http://www.w3.org/2000/svg">
  <defs
     id="defs214" />
  <sodipodi:namedview
     id="namedview212"
     pagecolor="#ffffff"
     bordercolor="#000000"
     borderopacity="0.25"
     inkscape:showpageshadow="2"
     inkscape:pageopacity="0.0"
     inkscape:pagecheckerboard="0"
     inkscape:deskcolor="#d1d1d1"
     inkscape:document-units="pt"
     showgrid="false"
     inkscape:zoom="0.524375"
     inkscape:cx="626.46007"
     inkscape:cy="625.50656"
     inkscape:window-width="2560"
     inkscape:window-height="1011"
     inkscape:window-x="0"
     inkscape:window-y="32"
     inkscape:window-maximized="1"
     inkscape:current-layer="svg210" />
  <path
     id="path208"
     d="M 450 0 C 400.07503 1.6368126 351.93991 11.495929 306.83643 28.161621 L 335.06689 96.312012 C 366.26673 86.034651 398.75277 79.353969 431.78027 76.516113 C 432.29316 76.462292 432.80644 76.411288 433.31982 76.359375 C 433.40871 76.352066 433.49754 76.344655 433.58643 76.337402 C 439.03213 75.790317 444.50041 75.329975 450 75 L 450 0 z M 487.5 0 L 487.5 75 C 518.13847 76.225539 547.95072 81.317096 576.52881 89.563477 C 585.21355 91.934497 593.87345 94.511795 602.47266 97.483887 L 630.81885 29.052246 C 585.78214 12.460263 537.5373 2.4631459 487.5 0 z M 272.56641 42.467285 C 253.57546 51.247181 235.2233 61.240779 217.61865 72.367676 C 193.88867 87.666547 171.52375 105.11851 150.73828 124.48828 L 202.5 176.25 C 221.96445 159.48895 243.0318 144.509 265.34473 131.44775 C 276.63792 124.48459 288.19809 118.03088 300.04834 112.25977 L 300.0498 112.25537 L 272.56641 42.467285 z M 665.43896 43.461914 L 637.11914 111.83496 C 672.99527 128.40492 705.17161 150.35306 733.32861 176.04199 L 785.62061 123.75 C 750.33446 90.984296 709.74718 63.921338 665.43896 43.461914 z M 468.76025 112.5 C 407.31169 112.5 349.51855 128.03029 299.08301 155.37598 C 298.76138 155.55047 298.44757 155.73955 298.12646 155.91504 C 293.43863 158.47554 288.80827 161.1261 284.25146 163.88818 C 283.807 164.15761 283.37352 164.44589 282.93018 164.71729 C 278.48836 167.43638 274.09944 170.23314 269.78906 173.13867 C 269.35819 173.42909 268.93846 173.73695 268.50879 174.0293 C 264.21591 176.95043 259.9788 179.94726 255.82324 183.04834 C 255.3794 183.3796 254.94874 183.73007 254.50635 184.06348 C 250.40566 187.15344 246.36085 190.31426 242.40088 193.57471 C 241.86751 194.01416 241.3513 194.47672 240.82031 194.91943 C 237.01301 198.09144 233.25672 201.32344 229.58643 204.64893 C 228.76011 205.39875 227.96284 206.18474 227.14307 206.94287 C 223.86306 209.97115 220.61567 213.03331 217.45166 216.18164 C 215.903 217.72653 214.408 219.33417 212.88574 220.91016 C 210.56278 223.30806 208.22995 225.69733 205.97461 228.15967 C 202.99143 231.42866 200.08299 234.78083 197.21338 238.17334 C 196.52819 238.97964 195.81433 239.76028 195.13623 240.57275 C 172.80615 267.45847 154.07518 298.11003 139.99219 332.10938 C 64.65345 513.99317 150.90819 722.23353 332.79199 797.57227 C 450.83109 846.46566 579.93245 827.23861 676.64209 758.04346 C 677.99882 757.06718 679.38668 756.13201 680.729 755.13721 C 682.78062 753.62512 684.77112 752.0234 686.79199 750.46582 C 689.58677 748.30031 692.40227 746.15957 695.12988 743.91357 C 695.63757 743.49754 696.1258 743.05522 696.63135 742.63623 C 775.0829 677.30793 825.01025 578.91122 825.01025 468.75 C 825.01025 271.8802 665.63006 112.5 468.76025 112.5 z M 813.27832 150.47168 L 761.25 202.5 C 772.1801 215.19302 782.37776 228.55039 791.77441 242.49463 C 804.51979 260.655 815.72518 279.71916 825.2959 299.37158 L 893.72607 271.02686 C 884.88158 251.84447 874.83189 233.3076 863.59863 215.55176 C 860.72285 211.05357 857.78493 206.59116 854.74951 202.18945 C 854.45274 201.75345 854.17027 201.30756 853.87207 200.87256 C 841.60502 183.21409 828.00999 166.39788 813.27832 150.47168 z M 124.51904 150.80127 C 95.591653 182.28292 70.612644 218.01785 50.405273 257.3584 C 48.012024 262.14344 45.662209 266.95078 43.426758 271.82227 L 112.51025 300.43652 C 118.52996 288.05793 125.1844 276.14309 132.29736 264.61084 C 145.16082 243.10632 159.84996 222.90002 176.25 204.38525 L 176.25 204.37939 L 124.51904 150.80127 z M 29.077148 306.46143 C 13.172231 349.76546 3.4165979 395.89527 0.44824219 443.69971 C 0.34084828 445.80123 0.15646549 447.90351 0.077636719 450.00439 L 75 450.00439 C 76.579765 423.67497 80.758337 397.97018 87.117188 373.11475 C 90.184885 360.3603 93.811135 347.66167 98.160645 335.07715 L 29.077148 306.46143 z M 908.45801 306.54639 L 841.23779 334.38867 C 852.25985 367.84925 859.10648 402.79462 861.54639 438.2959 C 861.89241 442.19044 862.2647 446.07838 862.5 450 L 937.44434 450 C 937.43033 449.61075 937.43146 449.22021 937.4165 448.83105 C 934.85834 399.21965 924.91422 351.37902 908.45801 306.54639 z M 862.51465 485.62061 L 862.51025 487.5 C 861.92504 497.25356 860.91262 506.90259 859.64795 516.479 C 859.55679 517.24043 859.45923 518.00136 859.36377 518.7627 C 859.08299 520.80002 858.80023 522.83541 858.48926 524.86377 C 854.85634 550.70808 848.82128 576.4681 840.06738 601.7959 L 907.61133 629.77295 C 924.19094 584.67517 934.00749 536.21743 935.63965 485.62061 L 862.51465 485.62061 z M 0.22998047 487.5 C 2.3098718 536.58403 11.952532 584.99602 28.395996 630.89795 L 96.990234 602.48438 C 89.879984 580.8992 84.500711 558.69565 80.90625 536.12695 C 78.01254 520.18427 75.987983 503.96639 75 487.5 L 0.22998047 487.5 z M 826.44873 634.71094 L 825.72656 636.44531 C 808.20337 672.47906 785.80507 704.9926 759.66943 733.40039 L 811.88965 785.62061 C 839.13261 756.28203 862.71867 723.29065 881.80225 687.44092 C 881.98809 687.08773 882.18411 686.74301 882.36914 686.38916 C 884.3621 682.62187 886.22485 678.7737 888.11719 674.94434 C 889.847 671.40134 891.60036 667.87747 893.24854 664.27148 C 893.49297 663.74319 893.72086 663.20566 893.96338 662.67627 L 826.44873 634.71094 z M 112.58496 636.21387 L 42.603516 665.2002 C 44.732917 669.84669 47.012615 674.42935 49.296387 679.00928 C 50.313992 681.03252 51.290213 683.07802 52.335938 685.08545 C 53.663989 687.65449 55.079879 690.18153 56.456543 692.72754 C 58.582459 696.63389 60.699724 700.54676 62.931152 704.38916 C 63.525639 705.41731 64.155271 706.42671 64.757813 707.45068 C 67.730179 712.48288 70.757827 717.47994 73.907227 722.39648 C 74.168825 722.80513 74.444114 723.20587 74.707031 723.61377 C 78.05655 728.80836 81.498545 733.93979 85.040039 738.99902 C 85.822269 740.11274 86.638257 741.20507 87.430664 742.3125 C 90.28121 746.31313 93.180235 750.27689 96.147949 754.18799 C 99.443384 758.49817 102.79455 762.77195 106.24805 766.97461 C 106.56472 767.36447 106.8721 767.76201 107.18994 768.15088 C 112.58344 774.67102 118.23077 781.00701 124.00049 787.24951 L 176.25 735 C 150.73414 705.36868 129.20002 672.11997 112.58496 636.21387 z M 204.37939 759.37939 L 150.23584 813.52295 C 185.49416 845.98896 226.40962 873.51876 272.41113 894.33545 L 301.11182 825.04541 C 276.24869 812.95448 253.09637 798.50421 231.76611 782.15625 C 230.94893 781.53587 230.11879 780.93283 229.30664 780.30615 C 227.37883 778.80513 225.49753 777.25848 223.60107 775.72559 C 220.60886 773.32608 217.63003 770.91341 214.71094 768.42773 C 214.58333 768.3184 214.459 768.20616 214.33154 768.09668 C 210.97913 765.23454 207.63789 762.35907 204.38525 759.38525 L 204.37939 759.37939 z M 735.01025 761.25 C 705.52996 786.6358 672.47097 808.08425 636.7749 824.66455 L 664.87207 892.50146 C 708.72104 872.4063 749.66733 845.34819 785.86377 812.10352 L 735.01025 761.25 z M 335.76416 839.39355 L 307.06348 908.68506 C 353.99702 925.47544 402.14274 934.67793 450.00439 936.70752 L 450.00439 862.50439 C 422.84265 860.87469 396.34113 856.49109 370.75781 849.73828 C 369.48686 849.42231 368.21879 849.08543 366.94922 848.75684 C 365.73802 848.42446 364.52468 848.09971 363.31787 847.75635 C 354.09195 845.2779 344.89458 842.54925 335.76416 839.39355 z M 603.17139 840.56543 C 579.50256 848.36204 555.08039 854.02349 530.25732 857.58105 C 516.20489 859.92137 501.96024 861.633 487.51025 862.5 L 487.51025 936.77197 C 505.79344 936.11581 523.96426 934.38029 541.96289 931.65527 C 572.72794 926.65951 602.61753 918.87852 631.24951 908.34814 L 603.17139 840.56543 z " />
</svg>
