<svg viewBox="0 0 141.22188 141.22188" version="1.1" id="svg5" inkscape:version="1.2.2 (b0a8486541, 2022-12-01)" sodipodi:docname="plus.svg" xmlns:inkscape="http://www.inkscape.org/namespaces/inkscape" xmlns:sodipodi="http://sodipodi.sourceforge.net/DTD/sodipodi-0.dtd" xmlns="http://www.w3.org/2000/svg" xmlns:svg="http://www.w3.org/2000/svg"><sodipodi:namedview id="namedview7" pagecolor="#ffffff" bordercolor="#000000" borderopacity="0.25" inkscape:showpageshadow="2" inkscape:pageopacity="0.0" inkscape:pagecheckerboard="0" inkscape:deskcolor="#d1d1d1" inkscape:document-units="mm" showgrid="false" inkscape:zoom="0.52850974" inkscape:cx="-3.7842254" inkscape:cy="346.25663" inkscape:window-width="2560" inkscape:window-height="1011" inkscape:window-x="0" inkscape:window-y="32" inkscape:window-maximized="1" inkscape:current-layer="layer1"/><defs id="defs2"/><g inkscape:label="Capa 1" inkscape:groupmode="layer" id="layer1" transform="translate(-42.013456,-56.356767)"><path id="rect61" d="m 101.33697,56.356767 c -7.508564,0 -13.553181,6.044618 -13.553181,13.553178 V 102.1271 H 55.567151 c -7.50856,0 -13.553695,6.04462 -13.553695,13.55318 v 22.57485 c 0,7.50855 6.045135,13.55317 13.553695,13.55317 h 32.216638 v 32.21664 c 0,7.50857 6.044617,13.5537 13.553181,13.5537 h 22.57485 c 7.50856,0 13.55317,-6.04513 13.55317,-13.5537 V 151.8083 h 32.21664 c 7.50856,0 13.5537,-6.04462 13.5537,-13.55317 v -22.57485 c 0,-7.50856 -6.04514,-13.55318 -13.5537,-13.55318 H 137.46499 V 69.909945 c 0,-7.50856 -6.04461,-13.553178 -13.55317,-13.553178 z"/></g></svg>