<svg xmlns="http://www.w3.org/2000/svg" width="1600" height="1600" viewBox="0 0 1200 1200"><path fill-rule="evenodd" d="M548.48 345.56c-2.484 6.516-8.86 10.781-15.844 10.594h-107.62c-11.156 0-20.203 9.047-20.203 20.203v628.64c-.703 67.359-55.5 121.6-122.86 121.6-67.359 0-122.16-54.234-122.86-121.6v-628.64c0-11.156-9.047-20.203-20.203-20.203H31.27c-6.984 0-13.266-4.172-15.938-10.594-2.625-6.469-1.125-13.875 3.797-18.75l250.69-249.79c6.703-6.61 17.484-6.61 24.188 0l250.69 249.79a16.44 16.44 0 0 1 3.703 18.656zm632.39 527.53-250.69 249.79c-6.703 6.656-17.484 6.656-24.188 0l-250.69-249.79c-4.922-4.875-6.422-12.281-3.797-18.703a17.19 17.19 0 0 1 15.891-10.641h107.67c5.344 0 10.5-2.11 14.297-5.906s5.906-8.906 5.906-14.297v-628.6c.703-67.312 55.5-121.55 122.86-121.55s122.16 54.234 122.86 121.55v628.64c0 11.156 9.047 20.203 20.203 20.203h107.62c6.985 0 13.266 4.219 15.891 10.64a17.035 17.035 0 0 1-3.797 18.704z"/></svg>