<svg xmlns="http://www.w3.org/2000/svg" width="1007.507" height="1007.554" viewBox="0 0 755.63 755.665"><defs><clipPath id="a"><path d="M222.14 222.14h755.71v755.71H222.14Z"/></clipPath></defs><g clip-path="url(#a)" transform="translate(-222.21 -222.14)"><path d="M558.59 224.39c-96.445 11.219-186 59.051-247.61 132.66-95.855 114.36-115.73 272.02-51.57 406.06 37.988 78.93 98.613 139.55 177.34 177.34 134.24 64.363 291.9 44.484 406.26-51.371 84.832-70.859 134.83-178.33 134.83-288.95s-49.996-218.09-134.83-288.95c-78.73-66.137-184.43-98.219-284.42-86.801Zm125.18 246.04c75.781 69.68 137.98 127.55 137.98 128.73 0 .984-63.184 60.23-140.73 131.48L540.29 860.16l-7.086-6.691c-3.937-3.543-23.62-21.848-43.895-40.547-20.469-18.7-37.004-34.84-37.004-35.824 0-.79 43.105-41.336 95.66-89.56l95.461-87.983-8.465-8.266c-4.722-4.527-47.238-43.895-94.477-87.195-47.238-43.5-86.41-79.715-87-80.699s16.73-17.91 38.578-37.988c21.652-19.879 41.727-38.383 44.484-41.137 3.938-3.543 5.906-4.332 7.281-2.754 1.18 1.379 63.97 59.246 139.95 128.92z"/></g></svg>