<?xml version="1.0" encoding="UTF-8"?>
<svg width="1200pt" height="1200pt" version="1.1" viewBox="0 0 1200 1200" xmlns="http://www.w3.org/2000/svg">
 <path d="m759.09 900.95c92.398-112.95 249.62-146.07 388.41-124.29l29.004 4.5469-17.711 23.41c-88.402 116.79-251.45 153.02-389.65 124.66l-28.465-5.832z"/>
 <path d="m795.09 69.82c97.309 78.238 155.45 207.97 131.3 332.73l-5.293 27.359-22.379-16.559c-99.781-73.812-167.18-210.83-131.53-334.7l7.3203-25.379z"/>
 <path d="m1196.1 471.4c-19.105 135.74-116.61 273.49-255.65 304.16l-25.766 5.6992 4.7148-25.992c24.742-136.18 119.68-260.63 254.03-303.06l26.555-8.3984z"/>
 <path d="m1051.2 173.16c51.504 118.87 35.855 262.67-43.586 365.58l-18.672 24.156-11.531-28.262c-48.551-119.29-36.445-262.48 43.801-365.28l18.215-23.328z"/>
 <path d="m178.77 169.36c80.27 102.8 92.352 245.99 43.801 365.28l-11.52 28.273-18.66-24.156c-79.453-102.93-95.09-246.72-43.586-365.6l11.773-27.133z"/>
 <path d="m430.87 929.27c-138.2 28.367-301.25-7.8594-389.64-124.66l-17.723-23.41 29.004-4.5469c138.8-21.781 296 11.34 388.43 124.29l18.395 22.488z"/>
 <path d="m432.82 78.664c35.664 123.86-31.715 260.88-131.5 334.69l-22.414 16.559-5.2812-27.359c-24.121-124.77 33.996-254.5 131.3-332.73l20.594-16.535z"/>
 <path d="m26.578 452.21c134.33 42.434 229.29 166.88 254.03 303.06l4.7148 25.992-25.777-5.6992c-139.05-30.672-236.55-168.42-255.66-304.16l-3.8867-27.602z"/>
 <path d="m697.52 1027c22.621 24.047 46.117 47.195 73.246 65.496l18.684 12.551-16.754 15.07c-6.9258 6.2148-13.754 12.48-20.555 18.805l-8.3984 7.8125-10.535-4.5586c-64.656-27.91-83.004-97.344-133.21-130.09-50.195 32.746-68.531 102.18-133.19 130.11l-10.559 4.5586-8.3984-7.8242c-6.793-6.3359-13.633-12.59-20.531-18.793l-16.727-15.07 18.672-12.551c27.121-18.301 50.629-41.449 73.246-65.496-30.984 15.336-61.738 33.012-97.02 39.625-63 10.586-130.43 14.363-190.32-11.773l-28.957-12.613 26.004-17.941c59.219-40.848 122.79-78.926 196.45-84.781 57.973-3.1797 116.75-1.7539 173.57 11.34l0.73047 0.16797 0.73047 0.25391c10.727 3.4688 21.91 3.4688 32.652 0l0.71875-0.25391 0.75781-0.16797c56.785-13.094 115.57-14.52 173.76-11.34 73.488 5.8555 137.04 43.945 196.23 84.781l25.992 17.941-28.945 12.613c-59.891 26.148-127.32 22.355-190.48 11.746-35.195-6.6133-65.926-24.277-96.875-39.613z"/>
</svg>
