<svg xmlns="http://www.w3.org/2000/svg" width="959.686" height="960.011" viewBox="0 0 719.765 720.009"><path d="M486.698 257.759c-26.766-17.297-59.156-23.625-90.469-17.766a303.2 303.2 0 0 1-72 0 124.62 124.62 0 0 0-90.469 17.297c-24-5.531-121.92-20.859-121.92-48 0-36.469 159.84-170.16 155.53-209.29C138.47 36.469 0 131.06 0 230.63c0 42.703 27.844 99.609 145.45 142.31-96 10.312-109.22 65.062-109.92 67.453-1.125 5.531 2.062 11.016 7.406 12.75 8.156 2.156 18.938 6.469 31.922 11.531 41.766 15.609 96 39.141 140.86 29.062l.047-.047c16.97 53.72 37.922 106.08 62.625 156.71 1.922 3.844 4.547 7.922 6.938 11.766l-9.375-6.937h.046c-5.953 13.922-4.78 29.906 3.188 42.797 8.016 12.89 21.75 21.094 36.891 21.984h88.312c15.094-.985 28.781-9.188 36.703-22.078s9.094-28.828 3.14-42.703l-9.374 6.703a95 95 0 0 0 6.75-11.531 1133.6 1133.6 0 0 0 62.39-156.71c44.626 10.312 99.376-13.688 140.86-29.062 12.939-5.063 24-9.375 31.923-11.531v.047a11.055 11.055 0 0 0 7.453-12.75c0-2.391-13.453-57.141-109.92-67.453 117.84-42.703 144-99.61 145.45-142.31 0-99.141-138.94-194.86-266.86-230.63-1.688 40.078 155.53 174.24 155.53 209.29.187 30.703-91.97 42-121.74 48.469z"/></svg>