<svg xmlns="http://www.w3.org/2000/svg" width="1600" height="1600" viewBox="0 0 1200 1200"><path d="m415.46 423.54-1.113 10.012a140.9 140.9 0 0 0 12.96 74.805 43.02 43.02 0 0 0 21.673 20.188 43 43 0 0 0 29.59 1.39A432.3 432.3 0 0 1 600 513.839a432.3 432.3 0 0 1 121.43 16.098 43.02 43.02 0 0 0 51.262-21.579 140.9 140.9 0 0 0 12.96-74.805l-1.113-10.012a123.6 123.6 0 0 1 14.258-71.488c28.516-52.68 68.051-163.4-55.109-230.34a13.203 13.203 0 0 0-16.683 19.719c26.898 34.785 53.793 80.89 23.863 97.777-30.344 17.094-43.082-.313-48.438-17.102a5.68 5.68 0 0 0-5.672-4.016 5.666 5.666 0 0 0-5.297 4.492 80.44 80.44 0 0 0 22.805 67.488c4.594 4.528 7.43 10.54 8.004 16.965s-1.152 12.848-4.871 18.121a2.7 2.7 0 0 0-.504.606 37.17 37.17 0 0 1-21.578 13.39 37.14 37.14 0 0 1-25.137-3.581.53.53 0 0 0-.406-.203 150.58 150.58 0 0 0-139.54 0 .53.53 0 0 0-.403.203 37.17 37.17 0 0 1-25.14 3.582 37.15 37.15 0 0 1-21.575-13.391 2.7 2.7 0 0 0-.507-.606 27.224 27.224 0 0 1 3.136-35.086 80.47 80.47 0 0 0 22.805-67.488 5.674 5.674 0 0 0-5.3-4.492 5.68 5.68 0 0 0-5.672 4.016c-5.356 16.789-18.098 34.19-48.438 17.102-29.93-16.887-3.032-62.996 23.863-97.777a13.203 13.203 0 0 0-16.684-19.719c-123.16 66.938-83.62 177.66-55.109 230.34a123.63 123.63 0 0 1 14.258 71.488z"/><path d="m1051.6 799.18-59.152-25.379a34.57 34.57 0 0 1-16.379-14.461l-35.492-59.961a75.36 75.36 0 0 0-65.016-37.109h-95.352v-41.258a6.2 6.2 0 0 0-.102-1.313l19.211-6.57v-.004a147.69 147.69 0 0 0 93.531-99.496 205.9 205.9 0 0 1 71.793-114.97 20.58 20.58 0 0 0 8.594-11.418 20.62 20.62 0 0 0-.91-14.266 20.354 20.354 0 0 0-29.828-8.188 244.14 244.14 0 0 0-88.477 137.72 107.41 107.41 0 0 1-67.848 72.399l-19.516 6.675-.305.102-.504.203v-.004a8.2 8.2 0 0 0-1.312-1.316l-.102-.102a320.85 320.85 0 0 0-164.41-36.297 320.8 320.8 0 0 0-164.41 36.301l-.101.102v-.004a8.2 8.2 0 0 0-1.313 1.316l-.507-.203-.305-.101-19.516-6.676.004.004a107.43 107.43 0 0 1-67.848-72.398 244.16 244.16 0 0 0-88.477-137.72 20.35 20.35 0 0 0-16.801-2.77 20.35 20.35 0 0 0-13.027 10.961 20.58 20.58 0 0 0-.906 14.262 20.57 20.57 0 0 0 8.59 11.418 205.86 205.86 0 0 1 71.792 114.97 147.69 147.69 0 0 0 93.531 99.5l19.211 6.57a6.2 6.2 0 0 0-.101 1.317v41.258h-95.352v-.004a75.37 75.37 0 0 0-65.016 37.11l-35.492 59.96a34.57 34.57 0 0 1-16.38 14.461l-59.151 25.38a20.2 20.2 0 0 0-12.078 16.194 20.21 20.21 0 0 0 7.988 18.555 20.22 20.22 0 0 0 20.066 2.36l59.051-25.278v-.003a75.53 75.53 0 0 0 35.387-31.04l35.391-60.065a35.15 35.15 0 0 1 30.234-17.188h95.352v42.266h-18 .004a87.12 87.12 0 0 0-86.757 79.578l-7.078 81.297a153.25 153.25 0 0 1-37.312 87.566l-34.074 38.93a20.18 20.18 0 0 0-4.945 14.652 20.2 20.2 0 0 0 6.863 13.859 20.216 20.216 0 0 0 28.515-1.918l34.074-38.93h.004a193.86 193.86 0 0 0 47.219-110.72l6.976-81.195a46.74 46.74 0 0 1 46.512-42.672h18v108.6a177.22 177.22 0 0 0 36.805 108.39 334.4 334.4 0 0 0 75.301 71.707 33.96 33.96 0 0 0 44.464-5.755 33.96 33.96 0 0 0 8.45-22.418v-295.57a15.5 15.5 0 0 1 11.28-15.23 15.19 15.19 0 0 1 19.055 14.687v296.12a33.97 33.97 0 0 0 8.45 22.418 33.97 33.97 0 0 0 21.148 11.258 34 34 0 0 0 23.316-5.508 334.4 334.4 0 0 0 75.297-71.703 177.24 177.24 0 0 0 36.81-108.4v-108.6h18a46.73 46.73 0 0 1 31.546 12.297 46.74 46.74 0 0 1 14.965 30.375l6.977 81.195a193.84 193.84 0 0 0 47.219 110.72l34.074 38.93.004-.004a20.205 20.205 0 0 0 34.34-6.765 20.19 20.19 0 0 0-3.907-19.824l-34.074-38.93a153.24 153.24 0 0 1-37.312-87.566l-7.078-81.297a87.14 87.14 0 0 0-27.902-56.66 87.14 87.14 0 0 0-58.852-22.918h-18v-42.266h95.352a35.14 35.14 0 0 1 30.234 17.19l35.391 60.063a75.5 75.5 0 0 0 35.391 31.039l59.051 25.277v.004a20.21 20.21 0 0 0 20.062-2.36c5.785-4.316 8.832-11.387 7.989-18.555s-5.446-13.344-12.074-16.195z"/></svg>