<svg xmlns="http://www.w3.org/2000/svg" width="531.836" height="544.12" viewBox="0 0 531.836 544.12"><path d="m205.46 0-7.085 63.527a218.9 218.9 0 0 0-79.352 45.816L60.457 83.601 0 188.461l51.719 37.785c-3.144 14.785-4.957 30.09-4.957 45.812 0 15.727 1.813 31.027 4.96 45.816L.005 355.659l60.457 104.86 58.566-25.742a218.9 218.9 0 0 0 79.352 45.816l7.086 63.527h120.91l7.086-63.527a218.9 218.9 0 0 0 79.352-45.816l58.566 25.742 60.457-104.86-51.72-37.785c3.15-14.789 4.962-30.09 4.962-45.816s-1.813-31.027-4.961-45.816l51.719-37.785-60.457-104.86-58.566 25.742a218.9 218.9 0 0 0-79.352-45.816L326.37 0Zm60.458 143.59c70.953 0 128.47 57.52 128.47 128.47s-57.52 128.47-128.47 128.47-128.47-57.52-128.47-128.47 57.52-128.47 128.47-128.47"/></svg>