<?xml version="1.0" encoding="UTF-8"?>
<svg width="1200pt" height="1200pt" version="1.1" viewBox="0 0 1200 1200" xmlns="http://www.w3.org/2000/svg">
 <path d="m963.37 555.98c0-9.2344-4.6875-17.812-12.422-22.828l-39.047-25.312c-10.078-6.5156-10.078-21.234 0-27.75l39.047-25.312c7.7344-5.0156 12.422-13.594 12.422-22.828v-143.34c-9.4688-3.375-17.297-9.9844-22.219-18.609h-682.31c-4.9219 8.5781-12.75 15.234-22.172 18.609v376.4c0 9.2344 4.6875 17.812 12.422 22.828l34.453 22.312c10.078 6.5156 10.078 21.234 0 27.75l-34.453 22.312c-7.7344 5.0156-12.422 13.641-12.422 22.828v128.34c9.4688 3.375 17.25 9.9844 22.172 18.609h682.31c4.9219-8.625 12.75-15.234 22.219-18.609zm-154.87 286.82h-417c-7.7812 0-14.062-6.2812-14.062-14.062s6.2812-14.062 14.062-14.062h417c7.7812 0 14.062 6.2812 14.062 14.062s-6.2812 14.062-14.062 14.062zm-431.06-128.58c0-7.7812 6.2812-14.062 14.062-14.062h310.03c7.7812 0 14.062 6.2812 14.062 14.062s-6.2812 14.062-14.062 14.062h-310.03c-7.7812 0-14.062-6.2812-14.062-14.062zm431.06-100.5h-417c-7.7812 0-14.062-6.2812-14.062-14.062s6.2812-14.062 14.062-14.062h417c7.7812 0 14.062 6.2812 14.062 14.062s-6.2812 14.062-14.062 14.062zm-431.06-128.63c0-7.7812 6.2812-14.062 14.062-14.062h310.03c7.7812 0 14.062 6.2812 14.062 14.062s-6.2812 14.062-14.062 14.062h-310.03c-7.7812 0-14.062-6.2812-14.062-14.062zm431.06-100.45h-417c-7.7812 0-14.062-6.2812-14.062-14.062s6.2812-14.062 14.062-14.062h417c7.7812 0 14.062 6.2812 14.062 14.062s-6.2812 14.062-14.062 14.062zm279.84-243.05v25.5c0 12.891-10.453 23.297-23.297 23.297h-24.422v59.062c0 7.5-6.0938 13.594-13.594 13.594h-49.781c-7.5 0-13.594-6.0938-13.594-13.594l-0.046875-190.22c0-7.5 6.0938-13.594 13.594-13.594h49.781c7.5 0 13.594 6.0938 13.594 13.594v59.062h24.422c12.891 0 23.297 10.453 23.297 23.297zm-852-82.359v190.18c0 7.5-6.0938 13.594-13.594 13.594h-49.781c-7.5 0-13.594-6.0938-13.594-13.594v-59.062h-24.375c-12.891 0-23.297-10.453-23.297-23.297v-25.5c0-12.891 10.453-23.297 23.297-23.297h24.375v-59.062c0-7.5 6.0938-13.594 13.594-13.594h49.781c7.5 0 13.594 6.0938 13.594 13.594zm852 973.64v25.5c0 12.891-10.453 23.297-23.297 23.297h-24.422v59.062c0 7.5-6.0938 13.594-13.594 13.594h-49.781c-7.5 0-13.594-6.0938-13.594-13.594v-190.18c0-7.5 6.0938-13.594 13.594-13.594h49.781c7.5 0 13.594 6.0938 13.594 13.594v59.062h24.422c12.891 0 23.297 10.453 23.297 23.297zm-852-82.312v190.18c0 7.5-6.0938 13.594-13.594 13.594h-49.781c-7.5 0-13.594-6.0938-13.594-13.594v-59.062h-24.375c-12.891 0-23.297-10.453-23.297-23.297v-25.5c0-12.891 10.453-23.297 23.297-23.297h24.375v-59.062c0-7.5 6.0938-13.594 13.594-13.594h49.781c7.5 0 13.594 6.0938 13.594 13.594zm699.14-708.71h-671.02v-175.08h671.02zm0 891.32h-671.02v-175.08h671.02z"/>
</svg>
