<?xml version="1.0" encoding="UTF-8" standalone="no"?>
<!-- Created with Inkscape (http://www.inkscape.org/) -->

<svg
   width="149.8327mm"
   height="190.01787mm"
   viewBox="0 0 149.8327 190.01787"
   version="1.1"
   id="svg5"
   inkscape:version="1.2.2 (b0a8486541, 2022-12-01)"
   sodipodi:docname="discard.svg"
   xmlns:inkscape="http://www.inkscape.org/namespaces/inkscape"
   xmlns:sodipodi="http://sodipodi.sourceforge.net/DTD/sodipodi-0.dtd"
   xmlns="http://www.w3.org/2000/svg"
   xmlns:svg="http://www.w3.org/2000/svg">
  <sodipodi:namedview
     id="namedview7"
     pagecolor="#ffffff"
     bordercolor="#000000"
     borderopacity="0.25"
     inkscape:showpageshadow="2"
     inkscape:pageopacity="0.0"
     inkscape:pagecheckerboard="0"
     inkscape:deskcolor="#d1d1d1"
     inkscape:document-units="mm"
     showgrid="false"
     inkscape:zoom="0.52850974"
     inkscape:cx="-416.2648"
     inkscape:cy="440.86226"
     inkscape:window-width="2560"
     inkscape:window-height="1011"
     inkscape:window-x="0"
     inkscape:window-y="32"
     inkscape:window-maximized="1"
     inkscape:current-layer="layer1" />
  <defs
     id="defs2" />
  <g
     inkscape:label="Capa 1"
     inkscape:groupmode="layer"
     id="layer1"
     transform="translate(-90.98325,-31.958689)">
    <path
       id="rect1496"
       d="m 117.12119,31.958689 c -14.48041,0 -26.13794,11.658046 -26.13794,26.138456 V 195.83861 c 0,14.48041 11.65753,26.13794 26.13794,26.13794 h 97.55632 c 14.48041,0 26.13845,-11.65753 26.13845,-26.13794 V 58.097145 c 0,-14.48041 -11.65804,-26.138456 -26.13845,-26.138456 z m 86.48258,41.407808 c 1.86513,-6.9e-5 3.73021,0.714892 5.15937,2.144055 l 8.59379,8.593791 c 2.85833,2.858323 2.85832,7.460423 0,10.31875 l -32.5453,32.544787 c 10.84825,10.84824 21.69706,21.69653 32.5453,32.54478 2.85832,2.85832 2.85834,7.46042 0,10.31875 l -8.59379,8.59379 c -2.85833,2.85833 -7.46042,2.8578 -10.31875,-5.2e-4 -10.84823,-10.84823 -21.69655,-21.69604 -32.54478,-32.54426 l -32.54479,32.54426 c -2.85833,2.85832 -7.46094,2.85885 -10.31926,5.2e-4 l -8.59328,-8.59379 c -2.85832,-2.85833 -2.85832,-7.46043 0,-10.31875 l 32.54479,-32.5453 c -10.84823,-10.84822 -21.69657,-21.69605 -32.54479,-32.544267 -2.85832,-2.858327 -2.85832,-7.460427 0,-10.31875 l 8.59328,-8.593791 c 1.42916,-1.429163 3.29474,-2.143587 5.15989,-2.143538 1.86516,4.9e-5 3.73021,0.714375 5.15937,2.143538 l 32.54479,32.544788 c 10.84823,-10.848222 21.69655,-21.696565 32.54478,-32.544788 1.42916,-1.429163 3.29424,-2.143985 5.15938,-2.144055 z" />
  </g>
</svg>
