<?xml version="1.0" encoding="UTF-8" standalone="no"?>
<svg
   width="1200pt"
   height="1200pt"
   version="1.1"
   viewBox="0 0 1200 1200"
   id="svg5142"
   sodipodi:docname="obligation.svg"
   inkscape:version="1.2.2 (b0a8486541, 2022-12-01)"
   xmlns:inkscape="http://www.inkscape.org/namespaces/inkscape"
   xmlns:sodipodi="http://sodipodi.sourceforge.net/DTD/sodipodi-0.dtd"
   xmlns="http://www.w3.org/2000/svg"
   xmlns:svg="http://www.w3.org/2000/svg">
  <defs
     id="defs5146" />
  <sodipodi:namedview
     id="namedview5144"
     pagecolor="#ffffff"
     bordercolor="#000000"
     borderopacity="0.25"
     inkscape:showpageshadow="2"
     inkscape:pageopacity="0.0"
     inkscape:pagecheckerboard="0"
     inkscape:deskcolor="#d1d1d1"
     inkscape:document-units="pt"
     showgrid="false"
     inkscape:zoom="0.2621875"
     inkscape:cx="-1409.2968"
     inkscape:cy="728.48629"
     inkscape:window-width="2560"
     inkscape:window-height="1011"
     inkscape:window-x="0"
     inkscape:window-y="32"
     inkscape:window-maximized="1"
     inkscape:current-layer="svg5142" />
  <path
     id="path5047"
     d="M 600 5.2749023 A 594.72467 594.72467 0 0 0 5.2749023 600 A 594.72467 594.72467 0 0 0 600 1194.7251 A 594.72467 594.72467 0 0 0 1194.7251 600 A 594.72467 594.72467 0 0 0 600 5.2749023 z M 600.04102 185.45654 C 670.91497 185.45654 732.04048 246.58059 722.25879 322.33447 L 722.25439 322.33447 C 722.25439 329.66384 680.69768 669.44384 678.24316 684.10547 C 673.36826 723.20749 639.14134 754.979 600.00439 754.979 C 560.90237 754.979 526.67465 725.662 521.76563 684.10547 C 463.13004 185.46488 482.69711 359.01763 477.78809 322.33447 C 468.00422 249.00456 526.674 185.45654 600.04102 185.45654 z M 604.90283 818.77295 C 658.90211 818.80705 702.77783 862.68139 702.77783 916.64795 C 702.77783 970.64724 658.90357 1014.5229 604.90283 1014.5229 C 550.90065 1014.5229 507.02783 970.64869 507.02783 916.64795 C 507.02783 862.64576 550.90211 818.77295 604.90283 818.77295 z " />
</svg>
