<?xml version="1.0" encoding="UTF-8" standalone="no"?>
<svg
   width="1226.9974pt"
   height="1197.3516pt"
   version="1.1"
   viewBox="0 0 1226.9974 1197.3516"
   id="svg4"
   sodipodi:docname="opportunity.svg"
   inkscape:version="1.2.2 (b0a8486541, 2022-12-01)"
   xmlns:inkscape="http://www.inkscape.org/namespaces/inkscape"
   xmlns:sodipodi="http://sodipodi.sourceforge.net/DTD/sodipodi-0.dtd"
   xmlns="http://www.w3.org/2000/svg"
   xmlns:svg="http://www.w3.org/2000/svg">
  <defs
     id="defs8" />
  <sodipodi:namedview
     id="namedview6"
     pagecolor="#ffffff"
     bordercolor="#000000"
     borderopacity="0.25"
     inkscape:showpageshadow="2"
     inkscape:pageopacity="0.0"
     inkscape:pagecheckerboard="0"
     inkscape:deskcolor="#d1d1d1"
     inkscape:document-units="pt"
     showgrid="false"
     inkscape:zoom="0.1767767"
     inkscape:cx="772.16058"
     inkscape:cy="1318.047"
     inkscape:window-width="2560"
     inkscape:window-height="1011"
     inkscape:window-x="0"
     inkscape:window-y="32"
     inkscape:window-maximized="1"
     inkscape:current-layer="svg4" />
  <path
     id="path5047"
     d="M 613.49854 3.9506836 A 594.72467 594.72467 0 0 0 18.773438 598.67578 A 594.72467 594.72467 0 0 0 613.49854 1193.4009 A 594.72467 594.72467 0 0 0 1208.2236 598.67578 A 594.72467 594.72467 0 0 0 613.49854 3.9506836 z M 613.49854 199.29492 C 741.47342 199.29492 845.57227 303.40709 845.57227 431.36865 C 845.57227 552.2146 752.71631 651.79549 634.61279 662.49756 L 634.61279 736.76221 L 491.64111 736.75488 L 491.64111 520.48389 L 613.49268 520.48389 C 662.62383 520.48389 702.60059 480.50632 702.60059 431.37451 C 702.60059 382.23538 662.62383 342.2666 613.49268 342.2666 C 564.36152 342.2666 524.3833 382.23471 524.3833 431.37451 L 381.4248 431.37451 C 381.4248 303.40629 485.52365 199.29492 613.49854 199.29492 z M 565.53223 779.64844 C 625.85268 779.64644 674.74365 828.53873 674.74365 888.85254 C 674.74365 949.16768 625.85003 998.05664 565.53223 998.05664 C 505.22441 998.05664 456.34131 949.16368 456.34131 888.85254 C 456.34131 828.53741 505.22641 779.64844 565.53223 779.64844 z " />
</svg>
