<?xml version="1.0" encoding="UTF-8" standalone="no"?>
<svg
   width="1200pt"
   height="1200pt"
   version="1.1"
   viewBox="0 0 1200 1200"
   id="svg4"
   sodipodi:docname="opportunity.svg"
   inkscape:version="1.2.2 (b0a8486541, 2022-12-01)"
   xmlns:inkscape="http://www.inkscape.org/namespaces/inkscape"
   xmlns:sodipodi="http://sodipodi.sourceforge.net/DTD/sodipodi-0.dtd"
   xmlns="http://www.w3.org/2000/svg"
   xmlns:svg="http://www.w3.org/2000/svg">
  <defs
     id="defs8" />
  <sodipodi:namedview
     id="namedview6"
     pagecolor="#ffffff"
     bordercolor="#000000"
     borderopacity="0.25"
     inkscape:showpageshadow="2"
     inkscape:pageopacity="0.0"
     inkscape:pagecheckerboard="0"
     inkscape:deskcolor="#d1d1d1"
     inkscape:document-units="pt"
     showgrid="false"
     inkscape:zoom="0.2621875"
     inkscape:cx="24.791418"
     inkscape:cy="858.16448"
     inkscape:window-width="2560"
     inkscape:window-height="1011"
     inkscape:window-x="0"
     inkscape:window-y="32"
     inkscape:window-maximized="1"
     inkscape:current-layer="g2643" />
  <path
     d="m 659.84291,702.5653 c 0,60.3152 -48.89289,109.20411 -109.21075,109.20411 -60.30788,0 -109.1908,-48.89291 -109.1908,-109.20411 0,-60.31519 48.88492,-109.2041 109.1908,-109.2041 60.32051,-0.002 109.21075,48.89023 109.21075,109.2041 z M 619.71244,550.47433 v -74.26491 c 118.10364,-10.70208 210.95975,-110.28243 210.95975,-231.1285 0,-127.96169 -104.09869,-232.073684 -232.0737,-232.073684 -127.97501,0 -232.0737,104.111994 -232.0737,232.080344 h 142.95846 c 0,-49.13985 39.97738,-89.10857 89.10858,-89.10857 49.1312,0 89.10857,39.96939 89.10857,89.10857 0,49.13186 -39.97737,89.10858 -89.10857,89.10858 H 476.74066 v 216.27151 z"
     id="path2"
     style="stroke-width:0.665636" />
  <g
     id="g2643"
     transform="matrix(1.4082585,0,0,1.4082585,-247.70522,-454.05344)">
    <g
       id="g5026"
       transform="translate(0,18.379926)">
      <path
         id="path220"
         d="m 219.32864,937.26968 c 68.6474,129.94922 205.1734,218.88862 361.8984,218.88862 156.725,0 293.2486,-88.9394 361.8955,-218.88862 h -117.9932 c -56.4502,72.42782 -144.5005,118.88962 -243.9023,118.88962 -99.4016,0 -187.453,-46.462 -243.9038,-118.88962 z" />
      <path
         d="M 994.14395,793.90999 971.96605,949.06786 949.78825,1104.2257 857.02039,968.57509 703.22408,910.65673 848.68287,852.2825 Z"
         id="path1880" />
    </g>
  </g>
</svg>
