<svg xmlns="http://www.w3.org/2000/svg" width="1600" height="1600" viewBox="0 0 1200 1200"><path fill-rule="evenodd" d="M417.05 12.188h520.5c15.234 0 27.562 12.328 27.562 27.562 0 5.25-1.453 10.172-4.078 14.391l-181.03 368.58h201.47c15.234 0 27.562 12.328 27.562 27.562 0 8.156-3.516 15.469-9.14 20.531l-682.18 708.61c-10.548 10.922-27.939 11.25-38.86.75-7.687-7.36-10.125-18.094-7.312-27.656l132.52-444.84-178.55 47.859c-14.672 3.938-29.766-4.781-33.703-19.453a27.37 27.37 0 0 1 .844-16.828l197.95-687c3.468-12.047 14.438-19.922 26.39-20.016z"/></svg>