<svg xmlns="http://www.w3.org/2000/svg" width="1600" height="1600" viewBox="0 0 1200 1200"><path fill-rule="evenodd" d="M800.39 746.81c-17.344 4.406-45.141 11.531-45.141 11.531-4.219 6.61-11.062 17.859-16.875 29.719-4.828 9.938-9.656 20.156-9.187 27.562.89 15.469 2.953 35.156 1.828 52.781-.938 14.719-4.22 28.172-10.5 38.391-4.875 7.969-12.984 12.562-24.281 12.703-3.797.094-8.204-.469-12.797-1.078-1.782-.281-4.36-.516-6.563-.656 0 .375 0 .797.047 1.125a19.42 19.42 0 0 1-4.594 13.5l-34.594 41.156 175.55 31.922zm158.72 230.9-12.844-25.969c-.656-1.219-1.078-2.531-1.406-3.844 0 0-14.953-58.594-17.953-91.594-1.406-15.656-.656-33.094-2.953-49.266-1.64-11.53-4.781-22.5-14.344-30.094-15.47-12.234-24.656-26.297-33.234-38.297-4.64-6.562-8.25-12.844-15.797-14.672-5.86-1.36-12.047.797-17.438 3.094-1.594.656-3.094 1.406-4.594 2.156l13.78 275.16 106.78-26.719zM385.4 272.05c-15.984 2.578-34.5 6.89-41.766 8.672-4.64 3.14-15.891 10.875-24.656 18.609-3.703 3.281-7.313 6.703-10.078 10.125-1.312 1.594-2.672 2.906-3.047 4.312-4.687 18.797-4.687 24.656-10.594 45.797-7.031 25.453-31.78 47.344-45.938 57.234-5.531 3.844-13.078 6.657-21.14 8.063-7.876 1.406-16.22 1.594-22.032 1.547-7.031 5.437-18.375 14.672-21.797 19.406-3.281 4.594-10.312 9.656-21.28 11.156-8.532 1.125-21.423.375-32.345-.656l-54.797 547.97 309.47-68.766v-356.21c-7.36-2.72-12.656-9.844-12.703-18.141a19.53 19.53 0 0 1 12.703-18.422zm686.76 136.4c-6.89 2.672-14.438 5.906-20.766 9.469-3.469 1.969-4.828 6.75-6.938 11.156-4.593 9.61-8.812 19.594-13.78 26.109-9.376 12.234-20.907 17.062-35.954 11.766-8.765-3.094-12.89-3.094-18-3.14-5.343-.095-11.344-.235-20.719-1.829-12.656-2.25-22.969-11.859-31.5-24.094-2.296-3.281-4.453-6.703-6.75-9.844-.89-1.219-2.484-2.906-3.421-3.89-4.36 1.406-10.406 5.203-17.484 9.562-16.22 9.89-35.531 23.578-50.438 33.281-8.25 5.344-15.375 9.563-20.391 11.86l6.234 125.06a19.66 19.66 0 0 1 10.5-10.22 164 164 0 0 0 20.578-10.078c3.937-2.297 7.781-4.547 11.484-6.656 9.281-5.438 21.281-2.344 26.672 6.984 5.437 9.282 2.344 21.281-6.984 26.72-3.704 2.156-7.547 4.406-11.484 6.656-8.157 4.78-16.688 8.906-25.594 12.562-9.188 3.703-19.547-.047-24.281-8.438l3.328 66.656c10.64-3.281 22.172-4.547 33-1.969 14.438 3.375 24.516 11.672 33.469 23.062 8.437 10.734 15.656 25.266 30.75 37.22 17.953 14.155 25.78 33.655 28.828 55.218 2.39 16.828 1.734 34.97 3.187 51.281 2.485 27.328 13.875 73.5 16.406 83.531l15.703 31.734 127.13-31.78-52.78-527.81zM544.3 218.74l-10.781 47.016a19.37 19.37 0 0 1-9.75 12.844s-22.266 12.047-41.156 19.219c-10.359 3.984-20.062 6.328-26.156 6.328-9.516 0-21.141-5.953-32.062-15.562v257.58c3.516.89 7.219 1.922 11.156 2.953 10.406 2.86 16.5 13.594 13.641 23.953-2.86 10.406-13.594 16.5-23.953 13.641l-.844-.234v348.28l169.13 30.75c12.328-14.72 44.484-52.922 44.484-52.875.703-9.516 3.563-16.125 6.938-20.766 5.765-7.969 13.875-12.094 23.484-13.22 4.875-.562 10.219-.28 15.562.423l6.094.75c1.828-6.282 2.156-13.781 2.25-21.422.093-13.97-1.407-28.594-2.11-40.5-.61-9.75 2.531-22.688 8.016-35.86 10.453-25.077 28.734-51.843 28.734-51.843 2.719-3.89 6.656-6.703 11.297-7.875l60.094-15.328-11.531-229.78c-16.406-4.64-35.531-12.703-47.484-23.766-19.406-18-43.734-63.47-31.266-117.42 7.125-30.844 21.797-60.75 31.5-78.375l-195.28-39.047zm-356.11 459.1c-3.89-2.156-6.328 2.953-6.328 8.625 0 10.781 8.719 19.5 19.5 19.5 0 0 8.015 1.219 15.234-7.266 1.687-2.015 10.922-12.844 25.078-27.188 7.594-7.64 7.5-20.016-.14-27.562-7.688-7.593-20.017-7.5-27.61.141-15.375 15.562-25.312 27.281-27.14 29.484-.235.281-.376.422-.376.422zm546.79-28.406c13.875.188 27.516-.234 40.875-1.312 10.734-.891 18.703-10.36 17.812-21.094s-10.312-18.704-21.047-17.813c-12.094 1.032-24.516 1.407-37.078 1.22-10.781-.141-19.641 8.484-19.781 19.218-.14 10.781 8.484 19.594 19.219 19.781m-119.53-13.5c13.031 2.531 26.156 4.781 39.328 6.656 10.641 1.594 20.531-5.812 22.125-16.453 1.547-10.64-5.86-20.578-16.5-22.125-12.609-1.828-25.172-4.031-37.594-6.375-10.594-2.062-20.812 4.875-22.828 15.47s4.875 20.811 15.469 22.827m-317.48-14.062c9.797-7.312 20.016-14.25 30.516-20.344 9.328-5.39 12.516-17.344 7.172-26.672-5.39-9.281-17.344-12.469-26.672-7.125-11.86 6.844-23.391 14.672-34.406 22.875-8.625 6.469-10.406 18.656-3.938 27.281s18.656 10.406 27.281 3.937zm202.22-13.781a2118 2118 0 0 0 38.016 10.266c10.406 2.672 21.094-3.61 23.766-14.016 2.719-10.406-3.563-21.094-13.969-23.766-12.891-3.281-25.406-6.703-37.312-10.031-10.406-2.906-21.141 3.188-24.047 13.594-2.906 10.359 3.187 21.094 13.547 24zM961.87 571.2c15.469-9 26.156-15.281 33.656-19.641 9.281-5.437 12.469-17.391 7.031-26.719-5.437-9.281-17.39-12.422-26.672-7.031-7.5 4.406-18.28 10.688-33.703 19.688-9.281 5.437-12.422 17.39-6.984 26.719 5.39 9.281 17.344 12.422 26.672 6.984M776.61 271.48c-8.11 13.969-23.484 43.172-30.469 73.406-8.438 36.656 6.656 67.828 19.828 80.016 4.922 4.594 11.812 8.344 18.844 11.203l-8.203-164.68zm38.672-8.016 8.578 171.79c15.281-9.75 36.516-25.078 53.906-35.625 13.172-7.968 24.844-13.266 31.97-14.484 15.796-2.625 28.218 5.063 38.437 18.422 3.328 4.407 6.469 9.422 9.797 13.97 1.031 1.453 2.11 2.859 3.187 4.078.61.656 1.782 1.64 2.157 1.968 18.469 3.235 22.594 0 38.109 4.5 1.78-3.328 4.406-8.343 6.093-12.047 6.235-13.547 14.25-26.203 24.797-32.156 11.156-6.28 25.406-11.812 35.906-15.469l-17.25-172.31zm-665.34.61-15.328 153.47c2.719.281 5.625.515 8.484.703 4.547.281 10.734.094 13.734 0 8.203-8.485 23.156-20.72 28.828-25.312l2.25-1.781-1.734 1.406c2.156-1.594 9.469-6.422 15.422-5.39 1.36.234 8.484.562 15.984-.235 3.422-.375 7.078-.516 9.422-2.156 9.094-6.375 26.156-19.36 30.703-35.72 5.719-20.718 5.719-26.437 10.312-44.811 2.062-8.156 8.531-18.094 17.719-27.281 15.938-15.938 39.562-30.938 39.562-30.938 1.781-1.078 3.656-1.922 5.672-2.39 0 0 30.516-7.22 54.469-10.595v-36.28l-235.45 67.265zm356.11-52.97-81.609-16.358v43.078c4.969 3.094 10.031 7.031 15.047 11.625 5.812 5.344 16.172 13.78 18.422 15.562 2.86-.422 6.656-1.969 10.781-3.61 10.219-3.89 21.516-9.422 28.875-13.125l8.484-37.219z"/></svg>