<svg xmlns="http://www.w3.org/2000/svg" width="1600" height="1600" viewBox="0 0 1200 1200"><path d="m621.32 394.69 75.984 75.984-549.37 549.14c-21 20.953-54.984 20.953-75.984 0-20.953-21-20.953-54.984 0-75.984zm155.53 85.031-6.562 59.672-.047.047a487.4 487.4 0 0 0 259.03-155.21L820.4 175.31c-6.938-6.938-16.36-10.828-26.156-10.828s-19.22 3.89-26.11 10.828l-120.42 120.42v.047c-6.984 6.937-10.874 16.406-10.827 26.297.047 9.844 4.03 19.312 11.062 26.203l126.19 123.84h-.047a9.17 9.17 0 0 1 2.719 7.64zm366.89 18.984-75.234-75.234v-.047a542.36 542.36 0 0 1-304.74 174.56l-11.953 108.28h.047c25.922-3.281 51.703-7.828 77.203-13.734v72.75c0 7.36 2.906 14.438 8.11 19.641s12.28 8.156 19.64 8.156 14.438-2.953 19.594-8.156c5.203-5.203 8.156-12.28 8.11-19.64v-85.407c0-.89-.188-1.734-.282-2.625l.047.047a586 586 0 0 0 73.172-29.25v112.22c0 15.328 12.422 27.75 27.703 27.75 15.328 0 27.75-12.422 27.75-27.75v-139.74c-.047-1.078-.14-2.203-.328-3.281a523.4 523.4 0 0 0 69.562-53.062v311.21c.047 15.28 12.422 27.656 27.75 27.656 15.281 0 27.656-12.375 27.703-27.656v-369.37c2.016-2.485 4.125-4.828 6.14-7.313z"/></svg>