<?xml version="1.0" encoding="UTF-8" standalone="no"?>
<svg
   width="1094.3561pt"
   height="1046.1661pt"
   version="1.1"
   viewBox="0 0 1094.3561 1046.1661"
   id="svg39"
   sodipodi:docname="proficiency.svg"
   inkscape:version="1.2.2 (b0a8486541, 2022-12-01)"
   xmlns:inkscape="http://www.inkscape.org/namespaces/inkscape"
   xmlns:sodipodi="http://sodipodi.sourceforge.net/DTD/sodipodi-0.dtd"
   xmlns="http://www.w3.org/2000/svg"
   xmlns:svg="http://www.w3.org/2000/svg">
  <defs
     id="defs43" />
  <sodipodi:namedview
     id="namedview41"
     pagecolor="#ffffff"
     bordercolor="#000000"
     borderopacity="0.25"
     inkscape:showpageshadow="2"
     inkscape:pageopacity="0.0"
     inkscape:pagecheckerboard="0"
     inkscape:deskcolor="#d1d1d1"
     inkscape:document-units="pt"
     showgrid="false"
     inkscape:zoom="0.3375"
     inkscape:cx="730.37037"
     inkscape:cy="696.2963"
     inkscape:window-width="2560"
     inkscape:window-height="1011"
     inkscape:window-x="0"
     inkscape:window-y="32"
     inkscape:window-maximized="1"
     inkscape:current-layer="svg39" />
  <path
     d="m 317.0151,325.19875 c 29.297,-3.7031 53.484,-21.141 66.094,-47.906 l 115.73,-246.32 c 19.406,-41.297 77.25,-41.297 96.703,0 l 115.73,246.32 c 23.391,49.828 67.781,48.281 114,54.094 v -0.14062 l 179.68,22.594 v 0.14062 l 42.422,5.3438 c 45.984,5.7656 62.531,61.406 30.047,91.922 l -198.52,186.1 c -21.656,20.297 -30.891,48.656 -25.312,77.812 l 51.141,267.32 c 8.5781,44.81195 -38.672,78.65595 -78.234,56.90595 l -238.4,-131.25995 c -25.969,-14.297 -55.875,-14.297 -81.844,0 l -238.4,131.25995 c -39.562,21.797 -86.812,-12.094 -78.234,-56.90595 l 51.141,-267.32 c 5.5781,-29.156 -3.6094,-57.516 -25.266,-77.812 l -198.52,-186.19 C 1.5510996,436.71855 -3.7929004,415.76555 2.7230996,395.70355 15.5671,356.14155 52.1291,358.62555 89.3951,353.93755 v -0.14062 z"
     fill-rule="evenodd"
     id="path37" />
</svg>
