<svg version="1.1" viewBox="0 0 1200 1200" xmlns="http://www.w3.org/2000/svg"><path d="m539.54 327.95-7.0859 63.527c-29.727 9.6211-56.699 25.352-79.352 45.816l-58.566-25.742-60.457 104.86 51.719 37.785c-3.1445 14.785-4.957 30.09-4.957 45.812 0 15.727 1.8125 31.027 4.9609 45.816l-51.719 37.785 60.457 104.86 58.566-25.742c22.652 20.465 49.625 36.195 79.352 45.816l7.0859 63.527h120.91l7.0859-63.527c29.727-9.6211 56.699-25.352 79.352-45.816l58.566 25.742 60.457-104.86-51.719-37.785c3.1484-14.789 4.9609-30.09 4.9609-45.816s-1.8125-31.027-4.9609-45.816l51.719-37.785-60.457-104.86-58.566 25.742c-22.652-20.465-49.625-36.195-79.352-45.816l-7.0898-63.523zm60.457 143.59c70.953 0 128.47 57.52 128.47 128.47s-57.52 128.47-128.47 128.47-128.47-57.52-128.47-128.47 57.52-128.47 128.47-128.47z"/></svg>