<svg xmlns="http://www.w3.org/2000/svg" xmlns:xlink="http://www.w3.org/1999/xlink" xml:space="preserve" width="712.668" height="664.37" viewBox="0 0 188.56 175.781"><defs><linearGradient id="d"><stop offset="0" style="stop-color:#c3b488;stop-opacity:1"/><stop offset="1" style="stop-color:#2c2617;stop-opacity:.21650223"/></linearGradient><linearGradient id="c"><stop offset="0" style="stop-color:#ac9d93;stop-opacity:1"/><stop offset="1" style="stop-color:#7c2c0b;stop-opacity:1"/></linearGradient><linearGradient id="b"><stop offset="0" style="stop-color:#5a2840;stop-opacity:1"/><stop offset="1" style="stop-color:#340015;stop-opacity:1"/></linearGradient><linearGradient id="a"><stop offset="0" style="stop-color:#aca793;stop-opacity:1"/><stop offset="1" style="stop-color:#000;stop-opacity:0"/></linearGradient><linearGradient xlink:href="#a" id="f" x1="72.488" x2="69.273" y1="20.438" y2="116.899" gradientTransform="translate(15.54 -20.386)" gradientUnits="userSpaceOnUse"/><linearGradient xlink:href="#b" id="h" x1="65.695" x2="86.222" y1="99.859" y2="195.546" gradientTransform="translate(15.54 -20.386)" gradientUnits="userSpaceOnUse"/><linearGradient xlink:href="#c" id="e" x1="93.546" x2="93.546" y1="53.716" y2="33.639" gradientUnits="userSpaceOnUse"/><linearGradient xlink:href="#d" id="g" x1="92.348" x2="92.348" y1="30.068" y2="85.683" gradientUnits="userSpaceOnUse"/></defs><path d="M173.457 34.012c-.05 0 .103.285.337.632 1.003 1.49 2.165 4.345 2.518 6.191.28 1.464.275 4.614-.01 6.227-.359 2.043-1.454 4.68-2.793 6.725-.945 1.444-4.124 4.44-6.91 6.515-1.623 1.207-1.944 1.289-1.686.429.427-1.425.242-3.308-.472-4.816-.337-.713-.386-.766-.48-.521-.057.15-.187.94-.288 1.76-.398 3.235-1.45 5.252-3.724 7.147-2.832 2.36-7.432 5.45-7.705 5.176-.03-.03-.003-.518.06-1.082.12-1.057-.006-3.15-.224-3.725-.13-.341-.468-.658-.582-.544-.042.042-.12.66-.171 1.374-.118 1.634-.511 2.908-1.304 4.227-.7 1.165-.992 1.532-3.027 3.809a80 80 0 0 0-2.274 2.648c-1.068 1.343-3.726 5.363-3.726 5.633 0 .262 1.061-.648 3.356-2.88 3.105-3.02 4.422-4.184 5.65-4.997 1.233-.817 4.067-2.218 5.224-2.584 2.056-.65 4.517-.246 7.752 1.273.678.318 1.233.52 1.233.447 0-.3-.642-1.192-1.233-1.713-.688-.607-2.048-1.32-2.771-1.452-.59-.107-.968-.41-.862-.688.086-.224.318-.302 3.783-1.275 3.301-.927 4.072-1.037 7.217-1.03 2.54.005 2.78.025 3.909.325 2.53.674 4.748 2.122 5.418 3.538.782 1.653.422 3.305-1.206 5.535-.63.863-.798 1.239-.553 1.239.06 0 .51-.268.997-.594 1.269-.848 2.054-1.73 2.656-2.982.501-1.044.507-1.07.507-2.385 0-1.292-.013-1.355-.448-2.236-.55-1.113-1.421-2.024-2.419-2.532-.408-.207-1.419-.606-2.246-.885-.827-.28-1.483-.555-1.46-.612s.376-.212.782-.344c1.092-.356 1.84-.838 2.794-1.801 1.101-1.112 1.734-2.312 1.734-3.29v-.67l-1.354 1.328c-1.942 1.905-3.447 2.85-5.248 3.296-.524.13-2.249.335-4.03.479-3.039.246-5.345.635-7.419 1.25-.739.22-.954.236-.954.071s1.15-.728 2.968-1.453c4.179-1.665 6.108-2.616 8.399-4.137 2.307-1.532 2.632-1.907 4.183-4.833 1.35-2.548 1.619-3.3 2.088-5.843.254-1.377.285-4.24.058-5.507-.526-2.945-2.156-6.253-4.115-8.355-.68-.729-1.677-1.508-1.93-1.508m-163.815.244c-.2.035-.732.527-1.385 1.291-2.282 2.67-3.462 4.966-4.161 8.102-.402 1.801-.401 4.775 0 6.654.98 4.578 2.934 7.7 6.155 9.837 1.515 1.005 3.902 2.195 5.713 2.85 2.184.789 3.718 1.451 3.91 1.688.098.123.518.392.931.598 1.41.702.654.855-1.027.208-1.42-.546-1.853-.635-4.78-.977-6.185-.724-8.517-1.566-11.16-4.035-.513-.479-.967-.837-1.009-.796-.157.158.402 1.607.934 2.418.73 1.113 2.167 2.465 3.072 2.889.921.432 1.072.55.866.681-.086.055-.32.101-.518.104-.553.006-1.944.54-2.676 1.026-1.384.918-2.493 2.361-2.936 3.82-.692 2.28.406 4.727 2.605 5.803q1.533.752.457-.426c-1.013-1.11-1.178-1.534-1.178-3.007 0-1.173.027-1.322.386-2.08 1.318-2.783 4.843-4.196 10.018-4.016 2.234.077 3.704.364 7.818 1.526 2.54.717 3.155.939 3.096 1.118-.024.07-.544.25-1.156.4-1.867.458-3.645 1.575-4.066 2.553-.095.223-.157.42-.136.439s.748-.286 1.616-.676c2.02-.908 3.108-1.189 4.612-1.189 1.855 0 3.583.523 6.018 1.824 2.44 1.303 4.195 2.753 8.117 6.704 1.87 1.883 2.338 2.245 2.16 1.667-.454-1.465-3.392-5.503-6.468-8.888-2.284-2.515-2.596-3.15-2.915-5.935-.283-2.47-.349-2.678-.657-2.1-.362.675-.504 1.473-.565 3.16-.068 1.897-.1 1.984-.673 1.84-.153-.038-1.005-.536-1.893-1.107-4.334-2.786-7.113-5.387-8.172-7.65-.43-.921-.722-2.321-.722-3.47 0-.993-.165-1.533-.407-1.332-.09.074-.319.473-.51.885-.312.677-.345.869-.335 1.953.01.972.071 1.37.324 2.075.172.48.278.872.236.872-.493 0-4.215-2.876-5.889-4.55-2.337-2.34-4.326-5.342-5.251-7.931-1.273-3.56-1.058-8.292.545-11.997.84-1.942 1.168-2.762 1.12-2.809q-.021-.02-.064-.014" style="fill:url(#e);stroke-width:.120282;fill-opacity:1"/><path d="M65.094 0c-.2 0-1.15.815-3.538 3.019-1.125 1.038-2 1.82-2.777 2.464.655.464 1.25.964 1.736 1.502L58.16 5.981a22 22 0 0 1-1.647 1.173c.72.496 1.369 1.034 1.895 1.617l-2.668-1.14c-.452.27-.94.545-1.492.847l-.293.161c.996.61 1.887 1.295 2.573 2.055l-3.543-1.513c-.557.317-1 .578-1.15.68a6 6 0 0 1-.79.41c1.04.626 1.969 1.335 2.679 2.122l-3.85-1.644a26 26 0 0 0-1.732.774 11 11 0 0 1-.383.182c.97.6 1.839 1.273 2.51 2.016l-3.63-1.549c-.206.08-.403.151-.573.207a21 21 0 0 0-1.6.59c-.11.05-.305.134-.528.227 1.479.758 2.812 1.674 3.762 2.726l-5.104-2.18c-.5.211-1.393.634-2.466 1.16 1.744.814 3.343 1.844 4.435 3.053l-5.695-2.431c-.987.492-2.044 1.027-3.053 1.545 1.943.849 2.82 1.122 4.02 2.45l-5.25-1.813a90 90 0 0 0-2.745 1.48c2 .855 2.87 1.259 4.1 2.621l-5.204-1.935a30 30 0 0 0-2.18 1.62c2.056.863 3.075 1.235 4.336 2.63l-5.247-1.864c-1.143.994-2.208 2.046-2.996 2.981.049.01.1.014.149.024 2.567.544 3.747.838 5.455 2.273l-6.281-1.418c-.443.652-.976 1.61-1.48 2.633 2.363.477 3.197 1.126 4.806 2.378l-5.27-1.405c-.38.835-.72 1.663-.952 2.357a11.7 11.7 0 0 0-.57 2.534c.387-.049.774-.09 1.155-.106 2.62-.109 3.88.403 5.89 1.371l-7.112-.349c-.04.979.004 2.126.118 3.63q.032.42.066.795c.409-.136.818-.263 1.227-.36 2.553-.606 3.82-.627 5.978-.06l-7.11 1.32c.144 1.195.346 2.197.706 3.605.136.536.25.97.362 1.353.666-.328 1.333-.669 2.01-.924 2.455-.925 3.67-1.294 5.882-1.005l-7.665 2.654c.31.896.677 1.61 1.465 3.038.538.975.95 1.711 1.335 2.351.495-.4.99-.802 1.508-1.143 2.192-1.442 3.214-2.394 5.436-2.599l-6.52 4.43c.797 1.241 1.614 2.257 3.344 4.34l.074.09c.213-.181.425-.366.645-.529 2.11-1.559 3.066-2.646 5.273-2.97l-5.307 4.237a316 316 0 0 1 3.4 4.195c.339-.3.68-.592 1.035-.854 2.11-1.559 1.543-1.953 3.75-2.278l-4.227 3.834a188 188 0 0 1 4.229 5.522c.03-.028.058-.062.088-.09 1.919-1.79.218-1.859 2.373-2.433l-1.858 3.36c.386.545.708 1.017.95 1.397.346.541.89 1.6 1.213 2.35.32.752.872 1.787 1.224 2.302.352.514.723 1.083.825 1.263s.31.467.463.636.57.839.929 1.49c.58 1.052.7 1.176 1.11 1.133.439-.047.46-.014.46.715 0 .7.048.786.57 1.035.315.149.789.497 1.054.773.59.617.838.625 1.672.059.36-.245.968-.487 1.353-.538.635-.086 2.33-1.087 2.322-1.373 0-.062-.112-.418-.247-.793a5.3 5.3 0 0 1-.253-1.454c-.004-.425-.092-.859-.196-.962-.198-.2-.86-1.948-1.265-3.35a12 12 0 0 0-.584-1.542c-.19-.39-.344-.888-.344-1.106s-.188-.787-.418-1.265c-.651-1.35-1.907-4.387-2.031-4.914-.062-.261-.582-1.486-1.157-2.722-.87-1.872-1.052-2.418-1.083-3.271-.042-1.15-.33-1.965-.96-2.718a7 7 0 0 1-.728-1.106c-.31-.61-3.246-4.183-5.936-7.223-1.574-1.778-3.635-4.42-4.415-5.66-.25-.395-.658-1.314-.91-2.04-.396-1.15-.455-1.587-.453-3.363.004-4.025 1.208-6.84 4.214-9.845 1.253-1.253 3.092-2.714 4.01-3.186a16 16 0 0 0 1.53-.934c.423-.297 1.878-1.134 3.234-1.86a139 139 0 0 0 3.827-2.122c.749-.441 1.935-1.132 2.637-1.535 1.904-1.093 6.576-4.394 7.456-5.269 1.292-1.284 2.68-3.14 3.68-4.922.816-1.453 3.323-6.79 3.323-7.072q0-.047-.042-.048m53.296.34q-.043 0-.042.049c0 .282 2.507 5.618 3.322 7.071 1 1.783 2.388 3.639 3.68 4.923.88.874 5.553 4.176 7.457 5.269a337 337 0 0 1 2.636 1.534c.748.441 2.47 1.396 3.827 2.122s2.812 1.564 3.233 1.86c.42.298 1.11.718 1.53.934.92.472 2.759 1.933 4.012 3.186 3.005 3.006 4.21 5.82 4.214 9.845.002 1.776-.058 2.213-.454 3.363-.251.727-.66 1.645-.91 2.041-.78 1.24-2.84 3.882-4.414 5.66-2.69 3.04-5.627 6.612-5.936 7.223a7 7 0 0 1-.73 1.105c-.63.754-.917 1.568-.96 2.718-.03.854-.211 1.4-1.081 3.272-.575 1.236-1.095 2.46-1.157 2.722-.125.526-1.38 3.564-2.031 4.914-.23.477-.42 1.046-.42 1.264 0 .219-.153.717-.342 1.107s-.452 1.084-.585 1.542c-.405 1.402-1.066 3.15-1.265 3.35-.103.103-.192.536-.196.962a5.3 5.3 0 0 1-.252 1.454c-.135.374-.247.73-.248.792-.007.287 1.688 1.288 2.323 1.373.385.052.994.294 1.353.538.834.567 1.08.558 1.672-.058a4.3 4.3 0 0 1 1.053-.774c.523-.248.57-.335.57-1.035 0-.729.022-.761.46-.715.41.044.53-.08 1.11-1.133.359-.65.776-1.32.93-1.49.152-.169.36-.455.463-.635.102-.18.473-.75.825-1.264.35-.514.902-1.55 1.224-2.3.322-.752.867-1.81 1.212-2.351.242-.38.565-.853.95-1.398l-1.86-3.359c2.157.574.457.643 2.376 2.432.03.029.058.062.088.09a188 188 0 0 1 4.228-5.521l-4.227-3.834c2.207.324 1.64.719 3.75 2.278.355.261.697.553 1.035.853a316 316 0 0 1 3.4-4.194l-5.306-4.238c2.207.325 3.162 1.412 5.273 2.97.22.164.432.348.645.529l.073-.09c1.73-2.083 2.547-3.098 3.343-4.34l-6.518-4.429c2.22.204 3.243 1.156 5.435 2.599.518.34 1.014.742 1.509 1.143.384-.64.797-1.377 1.335-2.352.788-1.428 1.156-2.141 1.465-3.037l-7.666-2.654c2.212-.29 3.428.08 5.883 1.005.677.255 1.343.596 2.01.923.11-.382.225-.816.362-1.352.36-1.408.562-2.41.706-3.605l-7.11-1.32c2.157-.567 3.424-.547 5.977.06.41.097.819.224 1.228.36q.034-.377.066-.795c.114-1.505.158-2.652.118-3.63l-7.114.349c2.01-.968 3.27-1.48 5.892-1.372.38.016.767.058 1.155.107a11.7 11.7 0 0 0-.57-2.534 25 25 0 0 0-.953-2.357l-5.268 1.404c1.608-1.252 2.443-1.901 4.807-2.378-.505-1.023-1.038-1.981-1.481-2.633l-6.282 1.418c1.708-1.436 2.889-1.73 5.456-2.273.048-.01.1-.014.149-.024-.788-.936-1.853-1.988-2.996-2.981l-5.247 1.864c1.26-1.396 2.28-1.768 4.335-2.63a30 30 0 0 0-2.18-1.62l-5.202 1.934c1.23-1.363 2.1-1.766 4.1-2.622a90 90 0 0 0-2.746-1.48l-5.25 1.813c1.2-1.327 2.078-1.6 4.02-2.449a271 271 0 0 0-3.052-1.545l-5.696 2.432c1.092-1.21 2.692-2.239 4.435-3.054a61 61 0 0 0-2.465-1.16l-5.104 2.18c.95-1.051 2.283-1.967 3.76-2.725a21 21 0 0 1-.527-.227c-.281-.128-1-.394-1.6-.59a14 14 0 0 1-.574-.207l-3.63 1.549c.673-.744 1.54-1.416 2.51-2.016-.138-.064-.27-.126-.382-.182a26 26 0 0 0-1.733-.774l-3.848 1.643c.71-.786 1.638-1.495 2.678-2.121-.346-.156-.646-.31-.79-.41a23 23 0 0 0-1.15-.68l-3.542 1.512c.686-.76 1.577-1.445 2.572-2.054l-.293-.162a46 46 0 0 1-1.492-.846l-2.668 1.14c.527-.583 1.175-1.122 1.896-1.618a22 22 0 0 1-1.648-1.173l-2.353 1.005c.486-.539 1.08-1.038 1.735-1.503-.778-.643-1.651-1.426-2.777-2.464-2.39-2.203-3.338-3.019-3.537-3.019" style="fill:url(#f);fill-opacity:1;stroke-width:.17;stroke-dasharray:none"/><path d="m64.972 15.359-.778.695c-.455.407-.852.883-.958 1.149-.457 1.142-.464 1.574-.508 33.83l-.044 31.393 1.094 1.1c1.547 1.559 1.983 1.684 2.29.661.09-.304.162-7.073.233-22.089.059-12.305.15-21.866.213-22.15.075-.336.068-.57-.021-.721s-.132-1.85-.132-5.364v-5.14l.33-.308c.288-.266.332-.396.328-.993-.002-.412-.075-.78-.18-.92-.329-.434-.183-3.251.185-3.595.12-.112.136-.06.078.25-.061.327-.037.39.151.39.124 0 .271.096.328.211.057.116.111 3.594.121 7.729.011 4.593.069 7.908.149 8.522.086.661.132 5.031.134 12.75.005 13.686.192 30.71.343 31.23.103.357.106.354.176-.18.31-2.362.349-5.64.257-21.77-.052-9.23-.088-19.446-.079-22.704.015-5.855.19-14.44.341-16.85.074-1.165.096-1.248.366-1.35.43-.164 3.438-.28 4.644-.179.967.08 1.051.108.984.318-.129.407.283.41 1.07.007.685-.352.873-.388 2.603-.502 3.325-.22 11.46-.322 17.802-.221 7.464.117 14.513.316 14.884.418.15.04.271.153.271.249 0 .147.03.145.19-.014.26-.26 1.525-.26 1.786 0 .104.104.19.247.19.317s.08.19.178.263c.103.077.228.496.298.991.178 1.27.342 7.848.484 19.349.07 5.623.183 10.967.251 11.874.1 1.317.093 1.704-.032 1.924-.127.223-.152 2.697-.132 12.905.014 6.947.068 12.982.12 13.412.084.685.13.786.366.82.261.037.27.005.27-.925 0-.53.052-1.097.114-1.26.086-.227.072-.315-.06-.366-.224-.085-.225-.709-.001-1.14.148-.287.157-2.484.067-15.902-.229-34.195-.25-40.166-.15-40.166.058 0 .372.31.699.689l.595.688v25.804c0 20.784-.03 25.921-.157 26.41-.116.452-.124.75-.032 1.164.069.305.177 1.826.24 3.38.12 2.928.228 3.527.689 3.795.572.332 1.383.014 2.47-.967l.443-.4.105-27.786c.078-20.705.14-27.87.245-28.116.175-.413.543-.433.903-.047.53.566.968.703 5.855 1.822 3.236.74 7.059 1.727 8.293 2.14l.792.265.036.553c.07 1.075-.69 3.989-3.102 11.896a388 388 0 0 0-1.43 4.811c-.333 1.158-.719 2.43-.858 2.827-.319.913-4.123 14.214-4.868 17.021a328 328 0 0 1-1.626 5.773c-.587 2.017-1.209 4.23-1.382 4.917-.308 1.226-.36 2.156-.121 2.211.272.064 1.155-2.28 1.62-4.302.137-.595.407-1.57.601-2.165.478-1.47 1.672-5.648 2.6-9.097.42-1.563 1.008-3.605 1.307-4.537.7-2.182 1.54-5.012 3.133-10.542a773 773 0 0 1 2.061-7.037c.429-1.423.81-2.841.85-3.153.04-.329.163-.653.293-.77.124-.113.224-.308.224-.436 0-.311 1.22-3.948 1.612-4.805.172-.376.313-.812.313-.968 0-.34.207-.573.51-.573s.419.36.171.542c-.122.089-.2.314-.2.577 0 .236-.056.464-.124.506-.067.042-.108.168-.09.278s-.026.19-.099.178c-.084-.016-.163.343-.212.962-.085 1.068-.332 2.146-.9 3.933-.2.629-.643 2.117-.983 3.308s-1.512 5.223-2.603 8.96c-2.987 10.227-4.77 16.554-5.646 20.028-1.158 4.593-1.952 7.479-2.293 8.336-.354.889-.31 1.168.172 1.06 1.043-.236 1.73-.293 2.434-.204.43.054.786.092.79.084.006-.008.124-.447.263-.977 2.452-9.3 4.278-15.932 4.683-17.009.455-1.207 1.666-5.392 3.33-11.498 1.523-5.594 3.15-11.259 4.025-14.012.915-2.88 1.72-6.269 1.894-7.965.074-.724.05-.875-.237-1.46-.39-.798-1.138-1.507-2.102-1.994-1.232-.621-6.602-2.046-13.007-3.45-4.796-1.05-5.408-1.174-5.48-1.102s-.408 2.53-.412 3.016c-.003.428.387.601 1.802.8.562.08 1.24.244 1.504.364.265.12 1.645.498 3.067.838s2.902.7 3.289.798c1.142.29 2.605 1.1 2.605 1.442 0 .095-.105.172-.234.172s-1.468-.35-2.977-.779c-2.49-.707-7.248-1.694-9.367-1.943-.633-.074-.653-.089-.658-.451-.04-2.791-.264-7.161-.402-7.832-.38-1.845-.99-2.939-1.963-3.51l-.577-.339-26.495-.035zm50.919 4.692c.133.055.212.463.139 1.05-.081.648-.291 1.085-.447.93-.127-.128-.106-1.305.03-1.663.098-.257.198-.35.278-.318m.65 1.491q.063-.037.145.014c.17.105.169.421-.001 1.097-.187.741-.347.668-.345-.157.002-.551.073-.88.2-.954m-55.885 1.147a4 4 0 0 0-.555.092c-1.365.286-10.118 2.43-12.263 3.004-2.537.68-5.526 1.653-6.04 1.968-.435.268-.769.85-1.037 1.814-.428 1.534-.388 2.667.112 3.207q.29.312.29.746c.002.643.321 1.874 1.975 7.616 1.881 6.529 5.004 17.845 6.447 23.368 1.08 4.128 1.706 6.376 2.581 9.262.24.794.688 2.472.994 3.73.45 1.848.559 2.499.565 3.407l.007 1.122 2.005-.04c1.103-.022 2.047-.081 2.098-.132.136-.137-.206-1.384-3.141-11.454a472 472 0 0 1-1.877-6.676c-.53-1.952-1.12-4.04-1.31-4.64a30 30 0 0 1-.59-2.226 26 26 0 0 0-.724-2.516c-.264-.76-.964-3.305-1.556-5.653a332 332 0 0 0-2.12-7.939c-1.205-4.242-2.107-7.614-2.107-7.886 0-.14.1-.179.391-.15.537.051.637.292 1.643 3.946a276 276 0 0 0 1.516 5.29c.369 1.222.889 3.09 1.155 4.15.746 2.978 2.47 9.242 4.443 16.142.987 3.452 2.096 7.376 2.464 8.72a126 126 0 0 0 1.443 4.815c.426 1.304.974 3.167 1.217 4.14.277 1.108.528 1.854.67 1.997.322.322.521.206.48-.28-.06-.692-1.789-7.488-2.552-10.032-1.723-5.742-4.396-15.182-6.319-22.312a765 765 0 0 0-2.361-8.54c-1.224-4.294-1.616-5.836-1.787-7.019-.15-1.033.004-1.734.398-1.812 1.448-.288 8.07-2.105 11.498-3.155 1.59-.488 2.661-.938 2.661-1.118 0-.413-3.258.22-7.096 1.38-.96.29-2.665.773-3.79 1.075a156 156 0 0 0-3.035.843c-.545.162-1.262.33-1.592.375-.509.067-.613.047-.682-.134-.052-.134-.009-.267.118-.36.11-.08.2-.207.2-.282 0-.076.128-.137.284-.137.235 0 .274-.05.229-.288-.069-.358-.223-.306 4.136-1.387 3.818-.946 5.185-1.211 6.252-1.212.637 0 .747-.033.801-.24.054-.205.164-.241.736-.241.37 0 .673-.052.673-.116 0-.151.7-.324 1.72-.425.695-.069.834-.121.92-.346.055-.146.188-.338.294-.426.12-.1.192-.346.191-.656-.001-.369-.032-.45-.12-.317-.184.28-.315-.019-.409-.931-.093-.91-.13-1.152-.544-1.131m78.264 8.438c.097 0 .153.067.122.15-.03.082-.126.43-.213.772-.14.55-.134.657.043.927.11.169.2.363.2.432 0 .182-.139.147-.51-.13-.232-.173-.331-.355-.331-.606 0-.492.47-1.545.689-1.545" style="fill:url(#g);fill-opacity:1;stroke-width:.120282"/><path d="M82.997 68.826c.144-1.223-.187-1.396-.677-1.886-.47-.457.431-.967.747-1.315.183-.281-.05-.283-.313-.7a10 10 0 0 1-.476-.876c-.28-.602-1.211-1.803-1.592-2.053-.19-.124-.553-.198-.97-.198-.573 0-.665.031-.665.228 0 .125.2.404.445.62l.446.39-.475-.085c-1.739-.312-3.787-.844-4.277-1.111-.81-.441-1.653-1.545-2.168-2.84-.276-.693-.722-2.734-.63-2.883.031-.05.192-.093.356-.093.804 0 2.265-1.317 2.621-2.362.11-.324.273-1.572.38-2.92.104-1.296.274-2.735.38-3.198.104-.463.215-1.13.245-1.483.052-.617.043-.64-.228-.602-.217.03-.381.243-.704.904-.231.475-.508.962-.614 1.083-.453.511-.603 1.596-.285 2.05.16.228.161.313.015.658l-.169.397-.135-.338c-.074-.187-.135-.419-.135-.516s-.104-.382-.232-.632c-.353-.692-.526-2.246-.532-4.768-.007-3.055.291-4.665 1.484-8.007 1.002-2.812 1.8-4.028 3.815-5.82 5.693-5.06 13.61-6.597 20.138-3.91 1.802.742 4.53 2.594 5.661 3.844 2.141 2.365 4.625 7.04 5.106 9.61.244 1.298.348 5.858.178 7.77-.182 2.058-.244 2.276-.66 2.325-.182.021-.362.12-.4.22-.038.099-.194.228-.346.285-.381.145-.483.933-.292 2.261.082.574.164 1.193.18 1.375.017.182.037.385.045.45.008.067.392.517.852 1.001 1.214 1.279 1.306 1.664.788 3.305-.513 1.624-1.086 2.18-3.013 2.93-1.175.455-2.218.57-2.645.29-.374-.244-.375-.243-2.004 1.04-1.278 1.008-1.943 1.747-2.217 2.463-.186.486.818 1.212-.057 1.61-.52.237-.842.268-.83 1.702-5.676 2.331-11.926.987-16.14-.215m7.48-6.254c.297-.044.598-.125.667-.181.07-.057.36-.02.661.084.343.118 1.035.192 1.92.205l1.383.02.034-1.227c.03-1.095 0-1.307-.279-1.97-.172-.408-.415-1.22-.54-1.805-.124-.584-.31-1.225-.413-1.424s-.267-.706-.365-1.129c-.24-1.038-.472-1.558-.917-2.065l-.374-.427-.438.261c-1.36.81-2.78 2.93-3.746 5.593-.26.717-.564 1.37-.676 1.452-.188.138-.183.213.07 1.083.315 1.081.516 1.446.885 1.601.26.11 1.084.083 2.128-.071m-6.712-6.652a5.3 5.3 0 0 0 1.708-.73c.886-.578 2.358-1.96 2.358-2.217 0-.093.165-.525.368-.958l.37-.789-.256-1.18c-.14-.648-.383-1.477-.539-1.84-.155-.365-.31-.751-.345-.86-.037-.116-.401-.31-.883-.47-.451-.149-.932-.343-1.068-.432-.396-.256-1.543-.618-2.24-.705-.852-.106-2.026.116-2.96.56-.994.472-2.164 1.578-2.683 2.534-.4.736-.41.79-.406 2.139.002 1.156.048 1.496.278 2.073.593 1.483 1.304 2.213 2.725 2.797.904.37 2.23.4 3.573.078m19.461-.2c.364-.197 1.101-.79 1.638-1.32 1.192-1.176 1.432-1.742 1.342-3.155-.05-.77-.139-1.058-.627-2.023-.367-.724-.787-1.342-1.182-1.736-2.4-2.4-7.083-1.961-8.885.833-.19.294-.344.684-.344.866 0 .19-.134.475-.313.668-.41.443-.355.84.328 2.375.494 1.108.576 1.22 1.368 1.83 1.394 1.08 2.055 1.496 2.85 1.799.65.246.93.283 1.96.254 1.07-.03 1.278-.074 1.865-.392m4.044-7.631-.076-.479.38.076.38.076-.083-.624a10 10 0 0 0-.318-1.372c-.129-.411-.235-.892-.235-1.07-.001-.221-.081-.348-.255-.403-.42-.134-.526.099-.369.812.077.35.172 1.204.21 1.898.08 1.425.107 1.564.304 1.564.095 0 .115-.152.062-.478" style="fill:#ac9d93;stroke-width:.120282"/><path d="M65.943 175.153c-5.77-1.356-9.385-3.343-11.64-6.4-1.262-1.71-2.722-4.818-3.183-6.776-.866-3.672-.253-9.438 1.347-12.668.93-1.877 3.102-4.708 3.502-4.563.19.07.278.018.197-.113-.273-.442 2.843-2.913 4.997-3.963q5.62-2.739 12.02-1.369c3.276.701 4.65 1.268 6.795 2.797 5.095 3.636 7.505 8.397 7.523 14.861.023 8.326-4.607 14.81-12.43 17.404-1.86.617-2.797.76-5.424.83-1.746.046-3.413.028-3.704-.04zm5.793-3.857c-.057-.095.252-.297.686-.448 1.354-.472 3.164-1.881 3.9-3.036 2.687-4.216 3.298-11.288 1.48-17.113-1.588-5.084-4.382-7.6-8.753-7.883-3.618-.235-5.943 1.206-7.69 4.765-1.311 2.675-1.895 5.411-1.954 9.153-.145 9.214 4.079 14.99 10.81 14.784.894-.027 1.578-.127 1.52-.222zm33.182 3.583c-5.102-1.182-9.803-4.915-11.76-9.338-.871-1.973-1.664-5.194-1.804-7.334-.215-3.3.955-8.13 2.652-10.948 1.11-1.845 3.644-4.373 4.099-4.092.206.127.265.097.156-.08-.42-.677 3.277-2.658 6.576-3.524 3.039-.798 7.432-.8 10.428-.005 2.725.723 3.836 1.274 6.314 3.137 4.27 3.208 6.73 8.568 6.692 14.574-.02 3.123-.51 5.053-2.13 8.378-.984 2.023-1.65 2.997-2.83 4.136-2.928 2.829-6.474 4.693-10.003 5.256-2.312.37-6.446.29-8.39-.16zm7.49-3.631c2.404-.724 5.292-3.651 6.176-6.262 1.182-3.487 1.353-9.442.382-13.318-1.281-5.12-3.89-8.07-7.896-8.928-1.15-.247-1.672-.222-3.018.145-5.538 1.51-8.213 6.94-7.76 15.751.174 3.37.603 5.099 1.906 7.688 2.008 3.986 6.357 6.083 10.21 4.924zm75.64 1.472c-.054.87-1.922 1.418-2.588 1.402-.235-.005-3.686-.134-7.703-.11-9.26.052-8.883.064-9.536-.286-.806-.431-.31-1.16 1.073-1.574 2.76-.827 3.299-2.042 3.048-6.879-.095-1.831-.234-3.865-.31-4.52s-.376-4.287-.67-8.07c-.292-3.784-.644-7.699-.78-8.7-.137-1.002-.175-1.94-.086-2.085.09-.145.01-.213-.174-.151-.305.101-1.977 3.873-3.557 8.026-.332.873-1.583 3.968-2.78 6.879-1.198 2.91-2.397 5.887-2.665 6.614-.79 2.145-3.62 9-4.09 9.91-.345.668-.575.821-1.13.756-.81-.095-1.198-.815-4.698-8.681a884 884 0 0 0-2.727-6.086c-1.568-3.4-3.894-8.877-4.67-10.995-.948-2.592-1.665-4.307-2.614-6.256l-.606-1.244-.587 5.213a3972 3972 0 0 1-.71 6.277c-.29 2.516-.927 10.301-1.086 13.25-.162 3.022-.137 3.272.456 4.458.513 1.028.904 1.396 2.145 2.023 1.536.775 2.502 1.826 1.678 1.826-.223 0-.435.006-.472.013l-.992.199c-.51.102-3.75.126-7.2.053-5.347-.113-6.34-.197-6.71-.566-.401-.403-.293-.508 1.485-1.442 1.767-.929 1.968-1.123 2.568-2.476.359-.809.809-2.599 1-3.983.194-1.382.656-4.537 1.029-7.011s.68-4.654.68-4.844c.002-.19.1-.287.22-.213s.17-.193.11-.592c-.058-.4.14-2.447.442-4.55 2.29-15.981 2.248-16.38-1.896-17.956-.398-.151-.724-.382-.724-.514 0-.756.925-.882 7.043-.957l6.269-.078.604.652c.333.36.964 1.506 1.404 2.55.439 1.042 1.405 3.324 2.146 5.07a248 248 0 0 1 2.375 5.821 163 163 0 0 0 2.125 5.16c2.243 5.136 3.173 7.546 3.044 7.883-.073.19-.027.28.103.2s.372.242.54.714c.278.789.327.818.59.355.16-.278.8-1.766 1.426-3.307a471 471 0 0 1 1.975-4.787c.858-2.034 1.374-3.365 4.155-10.716.88-2.328 2.122-5.424 2.76-6.879l1.16-2.646h6.739c6.675 0 6.74.005 6.82.564.066.464-.162.65-1.287 1.055-.766.276-1.661.842-2.038 1.289l-.671.797.192 5.159c.105 2.838.23 5.576.28 6.085.048.51.165 1.938.259 3.175s.216 2.785.272 3.44.173 2.262.262 3.572c.333 4.941 1.246 13.266 1.606 14.65.658 2.526 1.16 2.95 4.214 2.96 1.454.312 1.51.5 1.46 1.104zM1.302 173.765c-.716-.104-1.045-.745-.608-1.183.168-.168.977-.547 1.797-.842 1.76-.634 2.462-1.457 2.754-3.232.254-1.544.308-28.903.066-33.112-.215-3.724-.555-4.343-2.852-5.192-1.855-.685-2.39-1.306-1.62-1.878.413-.306 1.724-.383 6.616-.388 3.355-.004 7.896-.077 10.09-.163 4.71-.184 9.378.199 13.439 1.102 3.14.7 5.313 1.837 8.38 4.39 2.637 2.195 5.774 6.896 5.39 8.077-.114.349-.088.391.087.147.174-.242.437.269.885 1.72.573 1.855.636 2.52.616 6.562-.02 4.027-.096 4.772-.737 7.12-2.234 8.178-7.838 13.91-15.555 15.91-3.71.96-4.353 1.001-16.23 1.026-6.548.014-12.181-.015-12.518-.064zm25.328-5.681c1.079-.382 2.064-.63 2.19-.553.124.077.194.028.154-.11-.04-.137.579-.74 1.376-1.342 3.982-3.006 5.832-7.552 5.822-14.306-.013-8.143-2.557-13.608-8.09-17.378-1.734-1.182-5.998-2.217-9.13-2.217-2.336 0-3.263.681-3.501 2.574-.088.694-.181 8.052-.208 16.351-.05 15.737-.05 15.744 1.06 16.805.812.775 2.22 1.026 5.322.947 2.475-.063 3.409-.207 5.005-.771zm55.982-30.056c-1.378-.36-2.932-1.288-3.79-2.264-1.608-1.833-2.022-5.175-.926-7.484.99-2.086 3.505-3.866 5.933-4.199 1.407-.192 3.93.387 5.363 1.232 1.54.909 3.303 3.854 3 5.011-.076.292-.03.465.102.383.32-.198.303.885-.04 2.487-.59 2.746-3.557 4.857-6.996 4.977-1.02.035-2.21-.03-2.646-.143zm4.365-2.392c1.263-.898 1.72-2.068 1.72-4.404 0-1.899-.082-2.26-.745-3.262-.993-1.5-2.13-1.977-3.815-1.6-2.317.52-3.245 1.908-3.245 4.853 0 2.582.596 3.673 2.493 4.56 1.478.693 2.468.652 3.592-.147zm6.693 2.01c-.075-.12.205-.575.62-1.008.73-.762.76-.896.848-3.877.137-4.678-.094-6.234-1.07-7.21-.443-.443-.742-.868-.665-.946.109-.108 9.895-.214 11.178-.12.15.01.3.661.334 1.446.045 1.082-.04 1.463-.35 1.583-.23.088-.473-.007-.552-.215-.275-.716-2.115-1.088-4.005-.81l-1.124.165v3.143h1.472c.81 0 1.706-.125 1.99-.278.82-.439 1.257.217 1.204 1.812-.056 1.685-.518 2.279-1.112 1.431-.344-.491-.66-.584-1.982-.584h-1.572v1.742c0 1.651.049 1.79.95 2.665.523.508.882.993.797 1.078-.244.243-6.81.228-6.961-.017zm-21.941-5.147c.07-.114-.071-.234-.315-.267-1.582-.21-6.58-.621-11.657-.961-3.256-.218-5.991-.467-6.078-.553-.35-.35.715-.623 2.985-.761a606 606 0 0 1 8.22-.39c3.202-.134 6.143-.37 6.535-.524.594-.234.738-.206.86.17.08.248.623.65 1.204.894.73.307 1.01.564.908.833-.178.465-1.646.737-1.787.331-.055-.156-.186.103-.292.576s-.31.86-.453.86c-.142 0-.2-.094-.13-.208zm39.325-.413c0-.515-.795-.967-1.702-.967-.427 0-.68-.147-.68-.396s.252-.397.674-.397c.657 0 .995-.195 1.929-1.113.406-.4.58-.412 1.508-.103.636.211 3.76.47 7.929.654 6.81.303 8.07.432 8.07.827 0 .322-1.363.483-6.747.796-5.507.321-9.126.65-10.253.934-.564.142-.728.09-.728-.235zM50.2 122.249c-5.862-.999-9.68-3.373-12.762-7.936-2.425-3.588-3.521-10.31-2.438-14.944.606-2.595 2.34-5.865 4.192-7.908 2.524-2.784 4.947-4.25 8.81-5.335 1.82-.51 2.505-.561 6.028-.447 5.175.168 7.276.876 11.077 3.732 4.336 3.257 6.79 8.44 6.79 14.347 0 4.876-1.228 8.452-4.147 12.084-1.463 1.821-4.345 4.085-6.363 5-3.102 1.405-7.761 1.991-11.187 1.407zm6.948-5.101c1.854-.913 3.58-2.712 4.365-4.55 1.154-2.701 1.475-4.57 1.495-8.73.02-3.977-.005-4.173-.827-6.444-1.488-4.11-3.25-6.239-6.06-7.322-4.344-1.675-8.74.081-10.798 4.316-1.257 2.587-1.864 5.683-1.853 9.45.017 6.082 1.86 10.615 5.274 12.963 2.332 1.605 5.542 1.726 8.404.317zm69.517 4.994c-4.91-1.048-7.267-2.275-10.511-5.469-2.495-2.455-3.76-4.735-4.467-8.052-.562-2.635-.367-7.363.405-9.78.679-2.13 2.489-5.45 2.917-5.352.176.04.236-.06.134-.225-.427-.69 4.13-4.582 6.892-5.884 3.348-1.58 8.728-2.078 15.14-1.402 4.694.495 6.418.89 6.435 1.474.006.224.227 2.492.492 5.038.444 4.27.424 5.141-.13 5.786-.178.208-.84-.687-1.538-2.082-.401-.8-1.018-1.834-1.37-2.297-.693-.911-.82-1.284-.335-.985.19.118.233.073.114-.12-.106-.171-.293-.248-.416-.172s-.561-.138-.974-.476c-3.302-2.705-7.758-3.482-11.597-2.023-3.182 1.209-6.153 5.16-7.002 9.31-.45 2.198-.408 6.345.089 8.897.497 2.555 1.606 4.814 3.273 6.668 1.398 1.555 2.33 2.147 4.547 2.89 3.09 1.037 5.922.581 7.096-1.14.55-.805.595-1.167.595-4.677 0-4.656-.18-5.034-3.03-6.389-3.306-1.572-2.682-1.74 6.647-1.781 3.808-.018 7.112.04 7.342.129.636.244.544 1.427-.11 1.427-.292 0-.53.119-.53.264s-.16.265-.356.265c-.542 0-1.44.878-1.78 1.742-.328.832-.41 8.53-.114 10.68.21 1.528.13 1.602-2.705 2.492-5.445 1.71-10.88 2.157-15.153 1.244zm32.544-.142c-.8-.19-2.023-.425-2.717-.524-.695-.1-1.207-.27-1.14-.378.18-.293-2.247.094-3.072.49-1.024.491-1.536.2-1.482-.843.025-.479-.05-3.384-.167-6.456s-.135-5.83-.04-6.127c.367-1.16.856-.818 1.985 1.388 1.233 2.41 3.996 5.548 5.563 6.317 1.529.752 4.014 1.291 5.919 1.285 3.458-.01 5.456-1.773 5.465-4.823.003-1.124-.147-1.682-.654-2.428-.647-.952-3.88-3.261-6.22-4.445-.656-.33-1.251-.687-1.324-.79-.073-.105-.43-.345-.793-.534-1.252-.65-4.245-2.672-5.21-3.518-1.236-1.084-2.523-3.109-3.11-4.892-.345-1.048-.438-2.043-.37-3.969.08-2.252.199-2.8.965-4.422 1.882-3.988 5.83-6.645 10.76-7.238 1.857-.224 4.07.025 7.597.854 1.328.312 1.966.346 2.56.14 1.505-.525 1.79-.095 1.977 2.991.09 1.498.246 3.956.343 5.462.143 2.203.105 2.783-.193 2.972-.204.13-.45.237-.545.239s-.83-.992-1.631-2.21c-1.616-2.453-3.005-3.712-5.244-4.753-2.166-1.008-3.977-1.125-5.76-.371-1.752.74-2.444 1.617-2.67 3.385-.205 1.596.305 2.864 1.659 4.125.858.8 5.136 3.596 6.83 4.466 2.147 1.101 6.175 4.02 7.139 5.17 2.336 2.791 3.114 6.175 2.239 9.746-1.15 4.692-5.268 8.38-10.82 9.689-1.98.467-5.87.468-7.84.002zm-147.638-.253c-5.55-1.152-4.963-1.112-6.255-.426-.846.449-1.255.542-1.462.335-.323-.323-.417-12.52-.104-13.506.329-1.035.853-.62 2.234 1.774 1.597 2.768 3.98 5.147 6.29 6.282 1.24.608 1.983.777 3.75.852 2.895.124 4.29-.279 5.463-1.577 1.075-1.19 1.312-1.943 1.127-3.586-.11-.967-.36-1.43-1.29-2.378-.635-.648-1.728-1.547-2.43-1.998-.948-.61-1.185-.882-.925-1.062.243-.17.184-.197-.193-.092-.528.146-4.296-1.922-7.264-3.986-5.36-3.729-7.015-9.92-4.224-15.81 1.38-2.913 4.5-5.156 8.567-6.16 1.588-.392 2.157-.41 4.364-.139 1.396.171 3.193.435 3.994.587 1.358.454 4.435-.517 4.959.61.27.592.788 7.994.686 9.803-.04.701-.438 1.206-.961 1.216-.116.002-.414-.37-.662-.826s-.84-1.355-1.318-1.997c-.477-.641-.786-1.298-.687-1.46.11-.18.06-.217-.132-.099-.181.112-.708-.153-1.25-.63-1.58-1.386-2.88-2.079-4.55-2.423-2.122-.439-3.494-.038-4.988 1.456-2.088 2.088-1.753 4.793.858 6.926 2.208 1.803 3.14 2.433 5.299 3.578 1.146.608 2.263 1.249 2.48 1.423.219.174.942.627 1.607 1.006 1.46.833 4.526 4.02 5.272 5.484 1.02 2 1.378 6.746.655 8.69-1.343 3.606-4.128 6.314-7.84 7.622-1.656.584-2.487.698-5.646.777-2.43.06-4.296-.031-5.424-.265zm61.45-.632c-1.244-.12-1.16-.944.165-1.62 1.43-.73 2.35-1.92 2.558-3.31.097-.646.194-6.152.215-12.236.03-8.63-.04-11.324-.32-12.252-.415-1.38-1.935-2.966-3.326-3.469-1.004-.363-1.397-.948-.942-1.404.18-.181 2.233-.317 5.553-.368l5.268-.082.607.723c1.392 1.66 7.27 8.27 8.442 9.494 1.15 1.202 7.415 8.246 9.813 11.032l.98 1.14.038-1.853c.085-4.123-.214-14.699-.448-15.875-.276-1.387-.84-2.171-1.87-2.606-1.596-.673-2.073-1.135-1.671-1.619.485-.585 12.014-.606 12.597-.023.333.332.294.443-.3.86-1.722 1.208-2.355 1.868-2.856 2.982-.515 1.146-.546 1.85-.687 15.752l-.148 14.552-1.33.078c-2.23.13-2.92-.35-8.175-5.706-2.675-2.726-5.382-5.568-6.014-6.318s-2.102-2.42-3.267-3.712c-2.87-3.186-3.916-4.426-5.365-6.357-.678-.903-1.297-1.537-1.376-1.41-.08.129-.18 4.083-.224 8.787-.065 6.969-.007 8.788.312 9.821.386 1.253 1.58 3.097 2.004 3.097.12 0 .64.176 1.154.391.7.293.903.514.807.882-.07.27-.328.522-.572.56-.673.105-10.64.163-11.622.069z" style="fill:url(#h);fill-opacity:1;stroke:#7d5268;stroke-width:1;stroke-dasharray:none;stroke-opacity:1"/></svg>