<svg xmlns="http://www.w3.org/2000/svg" xmlns:xlink="http://www.w3.org/1999/xlink" xml:space="preserve" width="860.859" height="786.482" viewBox="0 0 227.769 208.09"><defs><linearGradient id="b"><stop offset="0" style="stop-color:#5a2840;stop-opacity:1"/><stop offset="1" style="stop-color:#340015;stop-opacity:1"/></linearGradient><linearGradient id="a"><stop offset="0" style="stop-color:#aca793;stop-opacity:1"/><stop offset="1" style="stop-color:#000;stop-opacity:0"/></linearGradient><linearGradient xlink:href="#a" id="c" x1="72.488" x2="69.273" y1="20.438" y2="116.899" gradientUnits="userSpaceOnUse"/><linearGradient xlink:href="#b" id="d" x1="65.695" x2="86.222" y1="99.859" y2="195.546" gradientUnits="userSpaceOnUse"/></defs><path d="M821.204 189.12c-.185 0 .389 1.074 1.273 2.387 3.794 5.633 8.183 16.422 9.518 23.4 1.058 5.532 1.04 17.44-.034 23.534-1.36 7.722-5.5 17.691-10.558 25.418-3.574 5.459-15.587 16.783-26.121 24.623-6.133 4.564-7.343 4.872-6.37 1.623 1.614-5.385.916-12.502-1.783-18.201-1.276-2.696-1.458-2.895-1.814-1.971-.218.565-.707 3.556-1.088 6.65-1.507 12.228-5.481 19.854-14.078 27.016-10.702 8.916-28.087 20.595-29.12 19.562-.116-.116-.013-1.956.23-4.088.453-3.995-.025-11.907-.852-14.082-.49-1.288-1.768-2.484-2.198-2.054-.16.16-.451 2.497-.646 5.191-.446 6.177-1.932 10.992-4.93 15.98-2.644 4.4-3.748 5.787-11.441 14.393-3.156 3.53-7.022 8.034-8.592 10.008-4.036 5.078-14.084 20.27-14.084 21.293 0 .991 4.01-2.45 12.684-10.885 11.737-11.413 16.713-15.816 21.353-18.888 4.664-3.088 15.373-8.384 19.746-9.766 7.77-2.455 17.072-.929 29.3 4.81 2.562 1.203 4.66 1.965 4.66 1.692 0-1.133-2.428-4.506-4.659-6.475-2.602-2.296-7.743-4.99-10.475-5.488-2.226-.406-3.66-1.551-3.257-2.6.325-.848 1.203-1.143 14.299-4.82 12.476-3.503 15.39-3.92 27.275-3.894 9.598.02 10.51.095 14.775 1.23 9.566 2.546 17.946 8.02 20.479 13.373 2.955 6.246 1.594 12.49-4.56 20.918-2.382 3.261-3.016 4.682-2.09 4.682.229 0 1.925-1.01 3.769-2.243 4.796-3.207 7.764-6.54 10.037-11.271 1.896-3.945 1.916-4.043 1.916-9.014 0-4.883-.047-5.12-1.693-8.45-2.08-4.208-5.37-7.651-9.14-9.57-1.543-.784-5.364-2.29-8.49-3.347-3.125-1.056-5.607-2.097-5.517-2.312.09-.216 1.42-.801 2.955-1.301 4.127-1.344 6.955-3.168 10.559-6.807 4.162-4.202 6.553-8.738 6.553-12.435v-2.53l-5.116 5.018c-7.34 7.2-13.028 10.772-19.836 12.457-1.98.49-8.5 1.265-15.234 1.81-11.483.93-20.201 2.4-28.037 4.727-2.793.83-3.607.89-3.607.268 0-.625 4.347-2.753 11.218-5.493 15.794-6.295 23.085-9.888 31.743-15.636 8.72-5.79 9.95-7.21 15.81-18.268 5.104-9.63 6.12-12.474 7.895-22.084.96-5.205 1.074-16.026.218-20.812-1.99-11.133-8.15-23.637-15.554-31.578-2.57-2.756-6.337-5.7-7.291-5.7m-619.155.922c-.755.13-2.765 1.991-5.234 4.88-8.624 10.087-13.083 18.768-15.727 30.622-1.518 6.807-1.515 18.044.004 25.147 3.703 17.304 11.085 29.106 23.258 37.18 5.727 3.798 14.748 8.297 21.594 10.77 8.256 2.984 14.052 5.487 14.775 6.382.375.464 1.961 1.481 3.524 2.26 5.327 2.653 2.472 3.232-3.883.787-5.364-2.064-7.005-2.4-18.064-3.694-23.381-2.734-32.192-5.918-42.182-15.248-1.94-1.812-3.656-3.166-3.813-3.01-.596.597 1.519 6.074 3.528 9.137 2.761 4.21 8.19 9.317 11.611 10.92 3.482 1.632 4.053 2.08 3.272 2.576-.325.206-1.205.382-1.956.39-2.092.026-7.347 2.04-10.115 3.878-5.23 3.473-9.42 8.927-11.095 14.441-2.618 8.618 1.532 17.864 9.843 21.93 3.87 1.893 4.44 1.363 1.729-1.61-3.827-4.195-4.453-5.795-4.453-11.365 0-4.432.104-4.994 1.46-7.86 4.983-10.519 18.303-15.86 37.864-15.18 8.443.292 14 1.377 29.549 5.767 9.598 2.71 11.924 3.55 11.699 4.226-.088.263-2.053.945-4.367 1.512-7.057 1.731-13.778 5.952-15.367 9.652-.361.84-.593 1.585-.516 1.657.077.071 2.827-1.079 6.11-2.555 7.634-3.433 11.746-4.492 17.429-4.492 7.012 0 13.542 1.977 22.746 6.892 9.223 4.926 15.856 10.406 30.68 25.338 7.065 7.117 8.837 8.485 8.16 6.3-1.714-5.534-12.818-20.796-24.443-33.593-8.633-9.503-9.813-11.901-11.018-22.43-1.069-9.334-1.317-10.123-2.484-7.94-1.367 2.553-1.905 5.571-2.133 11.945-.257 7.17-.378 7.5-2.545 6.957-.579-.146-3.798-2.029-7.154-4.186-16.383-10.53-26.883-20.36-30.887-28.916-1.628-3.48-2.729-8.77-2.729-13.113 0-3.752-.624-5.793-1.539-5.033-.338.28-1.205 1.786-1.926 3.345-1.18 2.556-1.305 3.282-1.267 7.381.034 3.675.268 5.178 1.223 7.842.65 1.813 1.052 3.297.894 3.297-1.865 0-15.93-10.87-22.258-17.201-8.835-8.84-16.35-20.188-19.847-29.973-4.81-13.457-3.999-31.342 2.06-45.342 3.177-7.34 4.413-10.439 4.235-10.617q-.083-.08-.245-.053" style="fill:#6c5d53;stroke-width:.454615" transform="translate(-24.462 -16.025)scale(.26458)"/><path d="M49.553 20.386c-.2 0-1.149.815-3.538 3.019-1.125 1.038-1.999 1.82-2.777 2.464.655.464 1.25.964 1.736 1.502l-2.354-1.004a22 22 0 0 1-1.647 1.173c.72.496 1.369 1.034 1.895 1.617l-2.668-1.14c-.452.27-.94.545-1.492.847l-.293.161c.996.61 1.887 1.295 2.573 2.055l-3.543-1.513c-.557.317-1 .578-1.149.68a6 6 0 0 1-.79.41c1.04.626 1.968 1.335 2.678 2.122l-3.849-1.644a26 26 0 0 0-1.733.774 11 11 0 0 1-.383.182c.97.6 1.839 1.273 2.51 2.016L31.1 32.558c-.207.08-.404.151-.574.207a21 21 0 0 0-1.599.59c-.11.05-.306.134-.529.227 1.479.758 2.812 1.674 3.762 2.726l-5.104-2.18c-.5.211-1.393.634-2.466 1.16 1.744.814 3.343 1.844 4.435 3.053L23.33 35.91c-.987.492-2.044 1.027-3.053 1.545 1.943.849 2.82 1.122 4.02 2.45l-5.249-1.813a90 90 0 0 0-2.746 1.48c2 .855 2.87 1.259 4.1 2.621l-5.204-1.935a30 30 0 0 0-2.18 1.62c2.056.863 3.075 1.235 4.336 2.63l-5.247-1.864c-1.143.994-2.208 2.046-2.996 2.981.049.01.1.014.149.024 2.567.544 3.747.838 5.455 2.273l-6.281-1.418c-.443.652-.976 1.61-1.48 2.633 2.363.477 3.197 1.126 4.806 2.378L6.49 50.11c-.38.835-.72 1.663-.952 2.357a11.7 11.7 0 0 0-.57 2.534c.387-.049.774-.09 1.155-.106 2.621-.109 3.881.403 5.891 1.371l-7.113-.349c-.04.979.004 2.126.118 3.63q.032.42.066.795c.409-.136.818-.263 1.227-.36 2.553-.606 3.82-.627 5.978-.06l-7.11 1.32c.144 1.195.346 2.197.706 3.605.136.536.251.97.362 1.353.666-.328 1.333-.669 2.01-.924 2.455-.925 3.67-1.294 5.882-1.005l-7.665 2.654c.31.896.677 1.61 1.465 3.038.538.975.951 1.711 1.335 2.351.495-.4.99-.802 1.508-1.143 2.192-1.442 3.214-2.394 5.436-2.599L9.7 73.002c.796 1.241 1.613 2.257 3.343 4.34l.074.09c.213-.181.425-.366.645-.529 2.11-1.559 3.066-2.646 5.273-2.97l-5.307 4.237a316 316 0 0 1 3.4 4.195c.339-.3.68-.592 1.035-.854 2.111-1.559 1.543-1.953 3.75-2.278l-4.227 3.834a188 188 0 0 1 4.229 5.522c.03-.028.058-.062.088-.09 1.919-1.79.218-1.859 2.373-2.433l-1.858 3.36c.386.545.708 1.017.951 1.397.345.541.89 1.6 1.212 2.35.321.752.872 1.787 1.224 2.302.352.514.723 1.083.825 1.263s.31.467.463.636.57.839.929 1.49c.58 1.052.701 1.176 1.11 1.133.439-.047.46-.014.46.715 0 .7.048.786.57 1.035.315.149.789.497 1.054.773.59.617.838.625 1.672.059.36-.245.968-.487 1.353-.538.635-.086 2.33-1.087 2.322-1.373 0-.062-.112-.418-.247-.793a5.3 5.3 0 0 1-.253-1.454c-.004-.425-.092-.859-.196-.962-.198-.2-.859-1.948-1.265-3.35a12 12 0 0 0-.584-1.542c-.189-.39-.344-.888-.344-1.106s-.188-.787-.418-1.265c-.651-1.35-1.907-4.387-2.031-4.914-.062-.261-.582-1.486-1.157-2.722-.87-1.872-1.052-2.418-1.083-3.271-.042-1.15-.329-1.965-.96-2.718a7 7 0 0 1-.728-1.106c-.31-.61-3.246-4.183-5.936-7.223-1.574-1.778-3.635-4.42-4.415-5.66-.25-.395-.658-1.314-.909-2.04-.397-1.15-.456-1.587-.454-3.363.004-4.025 1.208-6.84 4.214-9.845 1.253-1.253 3.092-2.714 4.011-3.186a16 16 0 0 0 1.53-.934c.422-.297 1.877-1.134 3.233-1.86a139 139 0 0 0 3.827-2.122c.749-.441 1.935-1.132 2.637-1.535 1.904-1.093 6.576-4.394 7.456-5.269 1.292-1.284 2.68-3.14 3.68-4.922.816-1.453 3.323-6.79 3.323-7.072q0-.047-.042-.048m53.296.34q-.043 0-.042.049c0 .282 2.507 5.618 3.322 7.071 1.001 1.783 2.388 3.639 3.68 4.923.88.874 5.553 4.176 7.457 5.269.701.403 1.888 1.093 2.636 1.534s2.47 1.396 3.827 2.122 2.812 1.564 3.233 1.86c.42.298 1.11.718 1.53.934.92.472 2.759 1.933 4.012 3.186 3.005 3.006 4.21 5.82 4.214 9.845.002 1.776-.058 2.213-.454 3.363-.251.727-.66 1.645-.91 2.041-.78 1.24-2.84 3.882-4.414 5.66-2.69 3.04-5.627 6.612-5.936 7.223a7 7 0 0 1-.729 1.105c-.63.754-.918 1.568-.96 2.718-.03.854-.212 1.4-1.082 3.272-.575 1.236-1.095 2.46-1.157 2.722-.125.526-1.38 3.564-2.031 4.914-.23.477-.419 1.046-.419 1.264 0 .219-.154.717-.343 1.107s-.452 1.084-.585 1.542c-.405 1.402-1.066 3.15-1.265 3.35-.103.103-.192.536-.196.962a5.3 5.3 0 0 1-.252 1.454c-.135.374-.247.73-.248.792-.007.287 1.688 1.288 2.323 1.373.385.052.994.294 1.353.538.834.567 1.081.558 1.672-.058a4.3 4.3 0 0 1 1.053-.774c.523-.248.57-.335.57-1.035 0-.729.022-.761.46-.715.41.044.53-.08 1.11-1.133.359-.65.776-1.32.93-1.49.152-.169.361-.455.463-.635s.473-.75.825-1.264c.351-.514.902-1.55 1.224-2.3.322-.752.867-1.81 1.212-2.351.242-.38.565-.853.951-1.398l-1.86-3.359c2.156.574.456.643 2.375 2.432.03.029.058.062.088.09a188 188 0 0 1 4.228-5.521l-4.227-3.834c2.207.324 1.64.719 3.75 2.278.355.261.697.553 1.035.853a316 316 0 0 1 3.4-4.194l-5.306-4.238c2.207.325 3.162 1.412 5.273 2.97.22.164.432.348.645.529l.073-.09c1.731-2.083 2.547-3.098 3.343-4.34l-6.518-4.429c2.221.204 3.243 1.156 5.435 2.599.518.34 1.014.742 1.509 1.143.384-.64.797-1.377 1.335-2.352.788-1.428 1.156-2.141 1.465-3.037l-7.666-2.654c2.212-.29 3.428.08 5.883 1.005.677.255 1.343.596 2.01.923.11-.382.225-.816.362-1.352.36-1.408.562-2.41.706-3.605l-7.11-1.32c2.157-.567 3.424-.547 5.977.06.41.097.819.224 1.228.36q.034-.377.066-.795c.114-1.505.158-2.652.118-3.63l-7.114.349c2.01-.968 3.27-1.48 5.892-1.372.381.016.767.058 1.155.107a11.7 11.7 0 0 0-.57-2.534 25 25 0 0 0-.953-2.357l-5.268 1.404c1.608-1.252 2.443-1.901 4.807-2.378-.505-1.023-1.038-1.981-1.481-2.633l-6.282 1.418c1.708-1.436 2.889-1.73 5.456-2.273.048-.01.1-.014.149-.024-.788-.936-1.853-1.988-2.996-2.981l-5.247 1.864c1.26-1.396 2.28-1.768 4.335-2.63a30 30 0 0 0-2.18-1.62L132 42.532c1.23-1.363 2.1-1.766 4.1-2.622a90 90 0 0 0-2.746-1.48l-5.25 1.813c1.2-1.327 2.078-1.6 4.02-2.449a271 271 0 0 0-3.052-1.545l-5.696 2.432c1.092-1.21 2.692-2.239 4.435-3.054a61 61 0 0 0-2.465-1.16l-5.104 2.18c.95-1.051 2.283-1.967 3.761-2.725a21 21 0 0 1-.528-.227c-.281-.128-1-.394-1.6-.59a14 14 0 0 1-.574-.207l-3.629 1.549c.672-.744 1.54-1.416 2.51-2.016-.139-.064-.27-.126-.383-.182a26 26 0 0 0-1.733-.774l-3.848 1.643c.71-.786 1.638-1.495 2.678-2.121-.346-.156-.646-.31-.79-.41a23 23 0 0 0-1.15-.68l-3.542 1.512c.686-.76 1.577-1.445 2.572-2.054l-.293-.162a46 46 0 0 1-1.492-.846l-2.668 1.14c.527-.583 1.175-1.122 1.896-1.618a22 22 0 0 1-1.648-1.173l-2.353 1.005c.486-.539 1.08-1.038 1.735-1.503-.778-.643-1.651-1.426-2.777-2.464-2.389-2.203-3.338-3.019-3.537-3.019" style="fill:url(#c);fill-opacity:1;stroke-width:.17;stroke-dasharray:none" transform="translate(34.896 -20.386)"/><path d="m411.176 118.618-2.937 2.627c-1.723 1.54-3.222 3.338-3.623 4.342-1.728 4.318-1.753 5.951-1.92 127.861l-.164 118.655 4.133 4.16c5.847 5.888 7.493 6.363 8.652 2.496.344-1.148.616-26.733.885-83.486.22-46.509.567-82.645.804-83.717.283-1.273.257-2.158-.08-2.727-.34-.575-.498-6.989-.498-20.273v-19.43l1.25-1.16c1.087-1.008 1.25-1.497 1.237-3.754-.01-1.558-.283-2.949-.684-3.478-1.24-1.64-.689-12.288.703-13.588.451-.422.512-.226.293.945-.231 1.238-.14 1.477.572 1.477.467 0 1.026.359 1.24.796.215.438.42 13.582.458 29.21.041 17.36.26 29.89.562 32.212.324 2.498.498 19.014.508 48.19.018 51.726.724 116.071 1.295 118.037.39 1.345.4 1.336.664-.682 1.17-8.93 1.319-21.32.974-82.285-.197-34.88-.333-73.495-.3-85.808.058-22.13.715-54.581 1.289-63.684.278-4.405.363-4.72 1.383-5.107 1.625-.619 12.994-1.055 17.554-.674 3.655.305 3.971.408 3.719 1.203-.488 1.538 1.07 1.546 4.043.023 2.59-1.327 3.3-1.463 9.838-1.896 12.566-.832 43.315-1.215 67.283-.836 28.21.445 54.855 1.194 56.258 1.58.562.155 1.023.578 1.023.941 0 .557.114.548.715-.052.986-.986 5.768-.986 6.754 0 .393.392.715.934.715 1.2 0 .268.303.713.674.991.389.291.864 1.875 1.127 3.748.672 4.8 1.294 29.662 1.83 73.13.262 21.254.69 41.45.949 44.878.377 4.978.351 6.442-.123 7.273-.48.841-.575 10.194-.498 48.776.052 26.254.257 49.064.455 50.69.315 2.588.487 2.971 1.383 3.099.987.14 1.021.02 1.021-3.494 0-2.002.194-4.146.43-4.766.325-.856.27-1.188-.229-1.379-.846-.325-.847-2.68-.004-4.312.561-1.085.596-9.388.256-60.1-.865-129.243-.948-151.81-.566-151.81.217 0 1.405 1.17 2.64 2.601l2.247 2.602v97.527c0 78.557-.114 97.973-.59 99.82-.44 1.707-.472 2.831-.121 4.397.259 1.156.667 6.905.906 12.775.451 11.07.862 13.332 2.603 14.344 2.161 1.256 5.226.056 9.336-3.654l1.676-1.514.397-105.016c.294-78.258.528-105.336.923-106.267.664-1.563 2.055-1.635 3.416-.178 2.002 2.141 3.656 2.657 22.127 6.887 12.23 2.8 26.68 6.528 31.344 8.088l2.994 1.001.137 2.092c.264 4.06-2.61 15.074-11.723 44.961a1466 1466 0 0 0-5.406 18.184c-1.259 4.375-2.718 9.183-3.242 10.683-1.206 3.452-15.585 53.725-18.4 64.334-1.161 4.373-3.926 14.19-6.145 21.817-2.22 7.626-4.57 15.99-5.223 18.586-1.165 4.632-1.36 8.148-.46 8.357 1.029.24 4.366-8.618 6.124-16.26.518-2.25 1.54-5.933 2.272-8.183 1.806-5.554 6.32-21.347 9.826-34.383 1.59-5.909 3.812-13.625 4.942-17.148 2.643-8.248 5.821-18.944 11.841-39.846 2.665-9.252 6.17-21.22 7.79-26.596 1.619-5.376 3.063-10.738 3.208-11.918.153-1.24.621-2.468 1.112-2.912.466-.422.847-1.161.847-1.643 0-1.178 4.611-14.924 6.092-18.162.65-1.421 1.182-3.069 1.182-3.66 0-1.286.782-2.166 1.924-2.166 1.154 0 1.586 1.364.65 2.049-.461.337-.756 1.187-.756 2.18 0 .895-.21 1.757-.467 1.916-.256.158-.409.632-.34 1.05.07.42-.1.72-.376.67-.316-.057-.615 1.3-.801 3.637-.321 4.037-1.254 8.11-3.405 14.867-.756 2.376-2.426 8.002-3.712 12.502-1.287 4.501-5.716 19.74-9.84 33.867-11.286 38.653-18.024 62.564-21.336 75.694-4.38 17.362-7.38 28.267-8.67 31.506-1.338 3.36-1.167 4.415.65 4.006 3.942-.89 6.538-1.106 9.201-.77 1.626.205 2.97.348 2.989.318s.465-1.69.992-3.691c9.267-35.154 16.168-60.219 17.7-64.287 1.717-4.564 6.297-20.379 12.583-43.457 5.76-21.145 11.91-42.556 15.215-52.963 3.457-10.885 6.502-23.692 7.158-30.102.28-2.738.188-3.306-.894-5.52-1.476-3.014-4.303-5.695-7.948-7.534-4.654-2.35-24.95-7.733-49.16-13.04-18.126-3.972-20.438-4.438-20.709-4.167-.276.275-1.546 9.567-1.558 11.402-.012 1.615 1.462 2.27 6.81 3.023 2.125.3 4.684.92 5.684 1.375 1 .457 6.216 1.882 11.592 3.168 5.375 1.287 10.97 2.643 12.431 3.014 4.316 1.096 9.846 4.16 9.846 5.453 0 .358-.398.65-.885.65s-5.55-1.325-11.252-2.945c-9.411-2.673-27.394-6.404-35.404-7.345-2.39-.281-2.467-.335-2.486-1.705-.15-10.548-.999-27.065-1.52-29.602-1.433-6.972-3.744-11.105-7.42-13.266l-2.18-1.28-100.14-.134zm192.453 17.733c.504.21.803 1.752.526 3.972-.306 2.445-1.1 4.1-1.688 3.512-.482-.482-.402-4.93.114-6.285.37-.973.746-1.325 1.048-1.2m2.454 5.635q.24-.14.55.05c.641.397.64 1.594-.004 4.149-.705 2.8-1.31 2.524-1.302-.594.006-2.085.274-3.33.755-3.605m-211.221 4.332c-.521.025-1.201.161-2.098.35-5.16 1.08-38.24 9.186-46.347 11.355-9.592 2.566-20.888 6.245-22.827 7.435-1.649 1.013-2.908 3.213-3.923 6.856-1.617 5.798-1.467 10.08.425 12.123.732.789 1.094 1.721 1.096 2.818.005 2.432 1.213 7.086 7.465 28.787 7.109 24.675 18.91 67.446 24.367 88.322 4.078 15.6 6.445 24.097 9.754 35.006.91 3 2.6 9.343 3.758 14.094 1.701 6.988 2.11 9.448 2.133 12.879l.029 4.242 7.576-.15c4.168-.083 7.736-.308 7.928-.5.515-.517-.778-5.23-11.87-43.293-1.894-6.501-5.086-17.856-7.093-25.233s-4.236-15.267-4.955-17.537-1.722-6.054-2.229-8.41-1.738-6.636-2.734-9.512c-.997-2.875-3.643-12.49-5.881-21.367-2.238-8.876-5.841-22.378-8.01-30.004-4.559-16.034-7.967-28.779-7.967-29.804 0-.532.38-.677 1.479-.57 2.028.195 2.406 1.104 6.209 14.917 1.755 6.376 4.333 15.372 5.728 19.992 1.396 4.62 3.361 11.678 4.366 15.684 2.822 11.257 9.339 34.934 16.795 61.012 3.73 13.047 7.92 27.878 9.31 32.959 1.391 5.08 3.846 13.27 5.455 18.197 1.61 4.928 3.68 11.969 4.6 15.647 1.048 4.187 1.995 7.008 2.535 7.548 1.216 1.217 1.967.777 1.809-1.058-.226-2.614-6.758-28.3-9.643-37.916-6.511-21.704-16.616-57.384-23.883-84.33-2.663-9.877-6.68-24.401-8.924-32.278-4.625-16.23-6.108-22.058-6.755-26.529-.566-3.906.017-6.553 1.507-6.85 5.471-1.087 30.502-7.956 43.457-11.925 6.01-1.842 10.057-3.542 10.057-4.225 0-1.56-12.315.836-26.822 5.217-3.626 1.095-10.07 2.922-14.32 4.062-4.251 1.14-9.415 2.575-11.475 3.188s-4.767 1.25-6.016 1.416c-1.922.255-2.316.178-2.578-.504-.195-.509-.032-1.01.445-1.36.416-.303.756-.785.756-1.07s.484-.517 1.074-.517c.887 0 1.037-.19.866-1.088-.259-1.353-.842-1.157 15.633-5.24 14.43-3.578 19.597-4.58 23.63-4.582 2.406-.001 2.823-.126 3.028-.91.202-.773.62-.909 2.781-.909 1.399 0 2.543-.197 2.543-.437 0-.572 2.646-1.226 6.504-1.608 2.623-.26 3.151-.458 3.474-1.308.21-.552.71-1.277 1.112-1.61.456-.379.727-1.306.722-2.48-.005-1.392-.123-1.701-.455-1.196-.695 1.06-1.191-.072-1.545-3.521-.352-3.44-.494-4.352-2.056-4.275m295.803 31.892c.37 0 .58.254.464.567s-.479 1.627-.806 2.92c-.527 2.075-.508 2.483.162 3.505.417.637.758 1.37.758 1.63 0 .69-.527.555-1.932-.493-.876-.653-1.25-1.338-1.25-2.287 0-1.86 1.775-5.842 2.604-5.842" style="fill:#806600;stroke-width:.454615" transform="translate(-24.462 -16.025)scale(.26458)"/><path d="M479.306 320.699c.544-4.622-.71-5.275-2.56-7.126-1.78-1.727 1.629-3.657 2.824-4.969.69-1.065-.191-1.072-1.184-2.648a36 36 0 0 1-1.8-3.31c-1.059-2.277-4.576-6.814-6.015-7.758-.72-.47-2.09-.752-3.665-.752-2.167 0-2.516.12-2.516.862 0 .475.758 1.528 1.684 2.342l1.685 1.479-1.798-.323c-6.571-1.18-14.31-3.192-16.163-4.2-3.06-1.666-6.247-5.84-8.194-10.734-1.043-2.62-2.73-10.333-2.383-10.894.12-.194.726-.353 1.346-.353 3.038 0 8.562-4.977 9.907-8.926.418-1.225 1.032-5.944 1.438-11.041.39-4.896 1.035-10.333 1.432-12.084s.815-4.273.927-5.606c.198-2.331.165-2.419-.862-2.273-.817.115-1.44.916-2.658 3.415-.875 1.796-1.92 3.637-2.322 4.092-1.71 1.933-2.279 6.034-1.077 7.75.603.86.61 1.182.056 2.488l-.637 1.5-.51-1.28c-.28-.704-.51-1.582-.51-1.95 0-.37-.395-1.444-.877-2.388-1.334-2.616-1.99-8.488-2.012-18.022-.027-11.544 1.101-17.632 5.607-30.263 3.79-10.625 6.804-15.221 14.422-21.993 21.515-19.125 51.438-24.936 76.112-14.78 6.81 2.804 17.118 9.803 21.396 14.528 8.093 8.94 17.48 26.606 19.3 36.321.92 4.908 1.313 22.142.672 29.37-.69 7.778-.924 8.6-2.498 8.785-.686.08-1.365.454-1.51.83-.144.376-.731.862-1.305 1.08-1.442.549-1.828 3.527-1.106 8.545.312 2.17.619 4.508.682 5.196.062.688.14 1.454.17 1.704.032.249 1.48 1.95 3.22 3.782 4.589 4.831 4.936 6.289 2.978 12.489-1.94 6.138-4.106 8.244-11.39 11.072-4.44 1.725-8.383 2.16-9.996 1.103-1.412-.925-1.416-.923-7.573 3.93-4.832 3.807-7.345 6.6-8.38 9.308-.701 1.836 3.092 4.58-.215 6.085-1.967.894-3.182 1.01-3.138 6.431-21.453 8.812-45.075 3.73-61.004-.814m28.272-23.636c1.125-.166 2.26-.473 2.522-.684.267-.214 1.363-.075 2.5.317 1.294.447 3.912.727 7.253.775l5.228.075.13-4.637c.115-4.138.001-4.938-1.053-7.443-.65-1.544-1.568-4.615-2.04-6.824s-1.176-4.63-1.564-5.381c-.388-.75-1.009-2.67-1.379-4.267-.91-3.925-1.782-5.89-3.464-7.806l-1.417-1.613-1.653.986c-5.14 3.064-10.506 11.076-14.158 21.137-.984 2.712-2.133 5.182-2.554 5.49-.712.52-.694.804.263 4.094 1.189 4.085 1.95 5.464 3.343 6.05.987.416 4.098.312 8.043-.27m-25.367-25.139c2.374-.568 4.453-1.457 6.456-2.762 3.35-2.183 8.91-7.41 8.91-8.378 0-.353.627-1.983 1.394-3.622l1.394-2.98-.965-4.458c-.532-2.452-1.447-5.584-2.035-6.96-.588-1.375-1.175-2.836-1.305-3.247-.139-.44-1.518-1.172-3.338-1.775-1.706-.565-3.521-1.3-4.035-1.633-1.497-.971-5.835-2.337-8.47-2.666-3.218-.402-7.654.437-11.184 2.115-3.758 1.787-8.182 5.966-10.141 9.58-1.51 2.782-1.549 2.987-1.537 8.083.01 4.37.182 5.656 1.053 7.836 2.239 5.604 4.927 8.363 10.3 10.57 3.414 1.402 8.425 1.513 13.503.297m73.556-.76c1.376-.742 4.16-2.986 6.188-4.987 4.505-4.443 5.415-6.582 5.072-11.924-.187-2.913-.524-4-2.37-7.645-1.386-2.738-2.974-5.072-4.464-6.562-9.074-9.074-26.774-7.414-33.582 3.149-.717 1.111-1.303 2.584-1.303 3.272 0 .718-.504 1.795-1.18 2.525-1.552 1.673-1.345 3.175 1.239 8.976 1.865 4.189 2.178 4.608 5.169 6.92 5.271 4.078 7.766 5.651 10.774 6.795 2.454.933 3.516 1.07 7.41.96 4.041-.115 4.825-.28 7.047-1.48m15.284-28.843-.289-1.808 1.436.287 1.435.287-.313-2.36c-.172-1.299-.712-3.632-1.199-5.185-.487-1.554-.888-3.373-.89-4.044-.005-.837-.306-1.315-.962-1.523-1.59-.505-1.989.372-1.395 3.068.29 1.321.649 4.55.796 7.175.3 5.384.403 5.91 1.144 5.91.36 0 .435-.573.237-1.807" style="fill:#ac9d93;stroke-width:.454615" transform="translate(-24.462 -16.025)scale(.26458)"/><path d="M50.402 195.539c-5.77-1.356-9.385-3.343-11.64-6.4-1.262-1.71-2.722-4.818-3.183-6.776-.866-3.672-.253-9.438 1.347-12.668.93-1.877 3.102-4.708 3.502-4.563.19.07.278.018.197-.113-.273-.442 2.843-2.913 4.997-3.963q5.62-2.739 12.021-1.369c3.275.701 4.65 1.268 6.794 2.797 5.095 3.636 7.505 8.397 7.523 14.861.023 8.326-4.607 14.81-12.43 17.404-1.86.617-2.797.76-5.424.83-1.746.046-3.413.028-3.704-.04zm5.793-3.857c-.057-.095.252-.297.686-.448 1.354-.472 3.164-1.881 3.9-3.036 2.687-4.216 3.298-11.288 1.48-17.113-1.588-5.084-4.382-7.6-8.753-7.883-3.618-.235-5.943 1.206-7.689 4.765-1.312 2.675-1.896 5.411-1.955 9.153-.145 9.214 4.079 14.99 10.81 14.784.894-.027 1.578-.127 1.521-.222zm33.182 3.583c-5.102-1.182-9.803-4.915-11.759-9.338-.872-1.973-1.665-5.194-1.805-7.334-.215-3.3.955-8.13 2.652-10.948 1.111-1.845 3.644-4.373 4.099-4.092.206.127.265.097.156-.08-.42-.677 3.277-2.658 6.576-3.524 3.039-.798 7.432-.8 10.428-.005 2.725.723 3.836 1.274 6.314 3.137 4.27 3.208 6.73 8.568 6.692 14.574-.02 3.123-.51 5.053-2.13 8.378-.984 2.023-1.65 2.997-2.83 4.136-2.928 2.829-6.474 4.693-10.003 5.256-2.312.37-6.446.29-8.39-.16zm7.49-3.631c2.404-.724 5.292-3.651 6.176-6.262 1.182-3.487 1.353-9.442.382-13.318-1.281-5.12-3.89-8.07-7.896-8.928-1.15-.247-1.672-.222-3.018.145-5.538 1.51-8.213 6.94-7.76 15.751.174 3.37.603 5.099 1.906 7.688 2.008 3.986 6.357 6.083 10.21 4.924zm75.64 1.472c-.054.87-1.922 1.418-2.588 1.402-.235-.005-3.686-.134-7.703-.11-9.26.052-8.883.064-9.536-.286-.806-.431-.309-1.16 1.073-1.574 2.76-.827 3.299-2.042 3.048-6.879-.095-1.831-.234-3.865-.31-4.52s-.376-4.287-.67-8.07c-.292-3.784-.644-7.699-.78-8.7-.137-1.002-.175-1.94-.086-2.085.09-.145.011-.213-.174-.151-.305.101-1.977 3.873-3.557 8.026-.332.873-1.583 3.968-2.78 6.879-1.198 2.91-2.397 5.887-2.665 6.614-.79 2.145-3.62 9-4.09 9.91-.345.668-.575.821-1.13.756-.809-.095-1.198-.815-4.698-8.681a884 884 0 0 0-2.727-6.086c-1.568-3.4-3.894-8.877-4.669-10.995-.949-2.592-1.666-4.307-2.615-6.256l-.606-1.244-.587 5.213a3972 3972 0 0 1-.71 6.277c-.289 2.516-.927 10.301-1.086 13.25-.162 3.022-.137 3.272.456 4.458.513 1.028.904 1.396 2.145 2.023 1.536.775 2.502 1.826 1.678 1.826-.223 0-.435.006-.472.013l-.992.199c-.51.102-3.75.126-7.2.053-5.347-.113-6.34-.197-6.71-.566-.401-.403-.293-.508 1.485-1.442 1.767-.929 1.968-1.123 2.568-2.476.359-.809.809-2.599 1.001-3.983.193-1.382.655-4.537 1.028-7.011s.68-4.654.681-4.844.1-.287.22-.213.169-.193.11-.592c-.059-.4.14-2.447.441-4.55 2.29-15.981 2.248-16.38-1.896-17.956-.398-.151-.724-.382-.724-.514 0-.756.925-.882 7.043-.957l6.269-.078.604.652c.333.36.964 1.506 1.404 2.55.439 1.042 1.405 3.324 2.146 5.07s1.81 4.366 2.375 5.821a163 163 0 0 0 2.125 5.16c2.243 5.136 3.173 7.546 3.044 7.883-.073.19-.027.28.103.2s.372.242.54.714c.278.789.327.818.591.355.159-.278.8-1.766 1.425-3.307a471 471 0 0 1 1.975-4.787c.858-2.034 1.374-3.365 4.155-10.716.88-2.328 2.122-5.424 2.76-6.879l1.16-2.646h6.739c6.675 0 6.74.005 6.82.564.066.464-.162.65-1.287 1.055-.766.276-1.661.842-2.038 1.289l-.671.797.192 5.159c.105 2.838.231 5.576.28 6.085.048.51.165 1.938.259 3.175s.216 2.785.272 3.44.173 2.262.262 3.572c.333 4.941 1.246 13.266 1.606 14.65.658 2.526 1.161 2.95 4.214 2.96 1.454.312 1.51.5 1.46 1.104zm-186.746 1.045c-.716-.104-1.045-.745-.608-1.183.168-.168.977-.547 1.797-.842 1.76-.634 2.462-1.457 2.754-3.232.254-1.544.308-28.903.066-33.112-.215-3.724-.555-4.343-2.852-5.192-1.855-.685-2.39-1.306-1.619-1.878.412-.306 1.723-.383 6.615-.388 3.355-.004 7.896-.077 10.091-.163 4.71-.184 9.377.199 13.438 1.102 3.14.7 5.313 1.837 8.381 4.39 2.636 2.195 5.773 6.896 5.389 8.077-.114.349-.088.391.087.147.174-.242.437.269.885 1.72.573 1.855.636 2.52.616 6.562-.019 4.027-.096 4.772-.737 7.12-2.234 8.178-7.838 13.91-15.555 15.91-3.71.96-4.353 1.001-16.23 1.026-6.548.014-12.181-.015-12.518-.064zm25.328-5.681c1.079-.382 2.064-.63 2.19-.553.124.077.194.028.154-.11-.04-.137.579-.74 1.376-1.342 3.982-3.006 5.832-7.552 5.822-14.306-.013-8.143-2.557-13.608-8.09-17.378-1.734-1.182-5.998-2.217-9.13-2.217-2.336 0-3.263.681-3.501 2.574-.088.694-.181 8.052-.208 16.351-.05 15.737-.05 15.744 1.06 16.805.812.775 2.221 1.026 5.322.947 2.475-.063 3.409-.207 5.005-.771zm55.982-30.056c-1.378-.36-2.932-1.288-3.789-2.264-1.609-1.833-2.023-5.175-.927-7.484.99-2.086 3.505-3.866 5.933-4.199 1.407-.192 3.93.387 5.363 1.232 1.54.909 3.303 3.854 3 5.011-.076.292-.03.465.102.383.32-.198.303.885-.04 2.487-.59 2.746-3.557 4.857-6.996 4.977-1.02.035-2.21-.03-2.646-.143zm4.365-2.392c1.263-.898 1.72-2.068 1.72-4.404 0-1.899-.082-2.26-.745-3.262-.993-1.5-2.13-1.977-3.815-1.6-2.317.52-3.245 1.908-3.245 4.853 0 2.582.596 3.673 2.493 4.56 1.478.693 2.468.652 3.592-.147zm6.693 2.01c-.075-.12.205-.575.62-1.008.731-.762.76-.896.848-3.877.137-4.678-.094-6.234-1.07-7.21-.443-.443-.742-.868-.665-.946.109-.108 9.895-.214 11.178-.12.151.01.301.661.334 1.446.045 1.082-.039 1.463-.35 1.583-.23.088-.473-.007-.552-.215-.275-.716-2.115-1.088-4.005-.81l-1.124.165v3.143h1.472c.81 0 1.706-.125 1.99-.278.821-.439 1.257.217 1.204 1.812-.056 1.685-.518 2.279-1.112 1.431-.344-.491-.66-.584-1.982-.584h-1.572v1.742c0 1.651.049 1.79.95 2.665.523.508.882.993.797 1.078-.244.243-6.81.228-6.961-.017zm-21.941-5.147c.07-.114-.071-.234-.315-.267-1.582-.21-6.579-.621-11.657-.961-3.256-.218-5.991-.467-6.078-.553-.35-.35.715-.623 2.985-.761a606 606 0 0 1 8.22-.39c3.202-.134 6.143-.37 6.535-.524.594-.234.738-.206.86.17.08.248.623.65 1.204.894.73.307 1.011.564.908.833-.178.465-1.646.737-1.787.331-.055-.156-.186.103-.292.576s-.31.86-.453.86c-.142 0-.2-.094-.13-.208zm39.325-.413c0-.515-.795-.967-1.702-.967-.427 0-.679-.147-.679-.396s.251-.397.673-.397c.657 0 .995-.195 1.929-1.113.406-.4.58-.412 1.508-.103.636.211 3.76.47 7.929.654 6.81.303 8.07.432 8.07.827 0 .322-1.363.483-6.747.796-5.507.321-9.126.65-10.253.934-.564.142-.728.09-.728-.235zm-60.854-9.837c-5.862-.999-9.68-3.373-12.762-7.936-2.425-3.588-3.521-10.31-2.438-14.944.606-2.595 2.34-5.865 4.192-7.908 2.524-2.784 4.947-4.25 8.81-5.335 1.82-.51 2.505-.561 6.028-.447 5.175.168 7.276.876 11.077 3.732 4.336 3.257 6.79 8.44 6.79 14.347 0 4.876-1.228 8.452-4.147 12.084-1.463 1.821-4.345 4.085-6.363 5-3.102 1.405-7.761 1.991-11.187 1.407zm6.948-5.101c1.854-.913 3.58-2.712 4.365-4.55 1.154-2.701 1.475-4.57 1.495-8.73.02-3.977-.005-4.173-.827-6.444-1.488-4.11-3.25-6.239-6.06-7.322-4.344-1.675-8.74.081-10.798 4.316-1.257 2.587-1.864 5.683-1.853 9.45.017 6.082 1.861 10.615 5.274 12.963 2.332 1.605 5.542 1.726 8.404.317zm69.517 4.994c-4.91-1.048-7.267-2.275-10.511-5.469-2.495-2.455-3.76-4.735-4.467-8.052-.562-2.635-.367-7.363.405-9.78.679-2.13 2.489-5.45 2.917-5.352.176.04.236-.06.134-.225-.427-.69 4.13-4.582 6.892-5.884 3.348-1.58 8.728-2.078 15.14-1.402 4.694.495 6.418.89 6.435 1.474.006.224.227 2.492.492 5.038.444 4.27.424 5.141-.13 5.786-.178.208-.84-.687-1.538-2.082-.401-.8-1.018-1.834-1.37-2.297-.693-.911-.82-1.284-.335-.985.19.118.233.073.114-.12-.106-.171-.293-.248-.416-.172s-.561-.138-.974-.476c-3.302-2.705-7.758-3.482-11.597-2.023-3.182 1.209-6.153 5.16-7.002 9.31-.45 2.198-.408 6.345.089 8.897.497 2.555 1.606 4.814 3.273 6.668 1.398 1.555 2.33 2.147 4.547 2.89 3.09 1.037 5.922.581 7.096-1.14.55-.805.595-1.167.595-4.677 0-4.656-.179-5.034-3.029-6.389-3.307-1.572-2.683-1.74 6.646-1.781 3.808-.018 7.112.04 7.342.129.636.244.544 1.427-.11 1.427-.292 0-.53.119-.53.264s-.16.265-.356.265c-.542 0-1.44.878-1.78 1.742-.328.832-.41 8.53-.114 10.68.21 1.528.13 1.602-2.705 2.492-5.445 1.71-10.88 2.157-15.153 1.244zm32.544-.142c-.8-.19-2.023-.425-2.717-.524-.695-.1-1.207-.27-1.14-.378.181-.293-2.247.094-3.072.49-1.024.491-1.536.2-1.482-.843.025-.479-.05-3.384-.167-6.456s-.135-5.83-.04-6.127c.367-1.16.856-.818 1.985 1.388 1.233 2.41 3.996 5.548 5.563 6.317 1.529.752 4.014 1.291 5.919 1.285 3.458-.01 5.456-1.773 5.465-4.823.003-1.124-.147-1.682-.654-2.428-.647-.952-3.879-3.261-6.22-4.445-.656-.33-1.251-.687-1.324-.79-.073-.105-.43-.345-.793-.534-1.252-.65-4.245-2.672-5.21-3.518-1.236-1.084-2.523-3.109-3.11-4.892-.345-1.048-.438-2.043-.37-3.969.08-2.252.199-2.8.965-4.422 1.882-3.988 5.831-6.645 10.76-7.238 1.857-.224 4.07.025 7.597.854 1.328.312 1.966.346 2.56.14 1.505-.525 1.79-.095 1.977 2.991.091 1.498.246 3.956.343 5.462.143 2.203.105 2.783-.193 2.972-.204.13-.449.237-.545.239-.095.002-.83-.992-1.631-2.21-1.616-2.453-3.005-3.712-5.244-4.753-2.166-1.008-3.977-1.125-5.76-.371-1.752.74-2.444 1.617-2.67 3.385-.205 1.596.305 2.864 1.659 4.125.858.8 5.136 3.596 6.831 4.466 2.146 1.101 6.174 4.02 7.138 5.17 2.336 2.791 3.114 6.175 2.239 9.746-1.15 4.692-5.268 8.38-10.819 9.689-1.98.467-5.87.468-7.84.002zm-147.638-.253c-5.55-1.152-4.963-1.112-6.255-.426-.846.449-1.255.542-1.462.335-.323-.323-.417-12.52-.104-13.506.329-1.035.853-.62 2.234 1.774 1.597 2.768 3.98 5.147 6.291 6.282 1.239.608 1.982.777 3.75.852 2.894.124 4.289-.279 5.462-1.577 1.075-1.19 1.312-1.943 1.127-3.586-.11-.967-.36-1.43-1.29-2.378-.635-.648-1.728-1.547-2.429-1.998-.949-.61-1.186-.882-.926-1.062.243-.17.184-.197-.193-.092-.528.146-4.296-1.922-7.264-3.986-5.36-3.729-7.015-9.92-4.224-15.81 1.38-2.913 4.5-5.156 8.567-6.16 1.588-.392 2.157-.41 4.364-.139 1.396.171 3.193.435 3.994.587 1.358.454 4.435-.517 4.959.61.27.592.788 7.994.686 9.803-.039.701-.438 1.206-.961 1.216-.116.002-.414-.37-.662-.826s-.84-1.355-1.318-1.997c-.477-.641-.786-1.298-.687-1.46.111-.18.06-.217-.132-.099-.181.112-.708-.153-1.25-.63-1.58-1.386-2.88-2.079-4.55-2.423-2.122-.439-3.494-.038-4.988 1.456-2.088 2.088-1.753 4.793.858 6.926 2.208 1.803 3.14 2.433 5.299 3.578 1.146.608 2.263 1.249 2.481 1.423s.941.627 1.606 1.006c1.461.833 4.526 4.02 5.272 5.484 1.021 2 1.378 6.746.655 8.69-1.343 3.606-4.128 6.314-7.839 7.622-1.657.584-2.488.698-5.647.777-2.43.06-4.296-.031-5.424-.265zm61.45-.632c-1.244-.12-1.16-.944.165-1.62 1.43-.73 2.35-1.92 2.558-3.31.097-.646.194-6.152.215-12.236.03-8.63-.04-11.324-.32-12.252-.415-1.38-1.935-2.966-3.326-3.469-1.004-.363-1.397-.948-.942-1.404.18-.181 2.233-.317 5.553-.368l5.268-.082.607.723c1.392 1.66 7.27 8.27 8.442 9.494 1.15 1.202 7.415 8.246 9.813 11.032l.98 1.14.038-1.853c.085-4.123-.214-14.699-.448-15.875-.276-1.387-.84-2.171-1.87-2.606-1.596-.673-2.073-1.135-1.671-1.619.485-.585 12.014-.606 12.597-.023.333.332.294.443-.3.86-1.722 1.208-2.355 1.868-2.856 2.982-.515 1.146-.546 1.85-.687 15.752l-.148 14.552-1.329.078c-2.23.13-2.92-.35-8.176-5.706-2.675-2.726-5.382-5.568-6.014-6.318s-2.102-2.42-3.267-3.712c-2.87-3.186-3.916-4.426-5.365-6.357-.678-.903-1.297-1.537-1.376-1.41-.08.129-.18 4.083-.224 8.787-.065 6.969-.007 8.788.312 9.821.386 1.253 1.58 3.097 2.004 3.097.12 0 .64.176 1.154.391.7.293.903.514.807.882-.07.27-.328.522-.572.56-.673.105-10.64.163-11.622.069z" style="fill:url(#d);fill-opacity:1;stroke:#7d5268;stroke-width:1;stroke-dasharray:none;stroke-opacity:1" transform="translate(34.896 -20.386)"/><path d="M180.283 150.545a.1.1 0 0 0-.06.025c-.033.033.375.892.908 1.908 1.422 2.712 2.137 4.854 2.602 7.794.272 1.724.363 4.697.19 6.277-.142 1.312-.718 4.682-1.049 6.142-.307 1.357-.646 1.036-1.184-1.123-.446-1.79-1.408-3.694-2.42-4.787-.723-.78-2.39-2.042-2.524-1.909-.031.032.326.54.795 1.127 1.898 2.382 2.502 4.15 2.708 7.925.21 3.847-.675 7.356-2.336 10.403-.947 1.874-1.914 3.865-3.413 5.64-.298.502-1.051 1.498-1.615 2.136l-.345.391c-.7 1.046-2.088 2.19-3.014 2.96-.347.288-.633.55-2.887 2.645-1.2 1.115-1.883 1.709-2.926 2.539-2.175 1.731-4.687 3.476-7.359 5.112-1.488.91-1.894 1.107-1.894.918 0-.034.16-.474.354-.977.39-1.01.619-1.703.752-2.28.324-1.405.254-3.687-.114-3.687-.146 0-.241.198-.33.691-.109.61-.69 2.286-1.023 2.953-1.203 2.407-3.748 4.957-6.405 6.418-1.926 1.06-6.516 2.903-7.472 3.002-.302.032-.316.027-.316-.11 0-.186.306-.69.872-1.437.894-1.18 1.519-2.214 1.815-3 .406-1.078.693-2.89.485-3.062-.078-.065-.12-.044-.264.132-.213.26-.67.998-1.16 1.876-.59 1.05-1.236 1.874-2.311 2.944-1.61 1.6-3.317 2.785-6.024 4.18-1.413.73-1.893.815-1.893.337 0-.272.098-.535.625-1.685.863-1.88 1.172-3.198 1.223-5.21.037-1.458-.061-2.415-.374-3.639-.312-1.218-.713-2.143-1.343-3.095-.345-.523-1.715-1.987-1.79-1.913-.063.064.132.604.517 1.43.708 1.519 1.077 3.253 1.202 5.657.092 1.766-.064 3.822-.367 4.834-.176.587-.516 1.237-1.104 2.11-1.114 1.651-3 2.273-4.875 3.634-2.627 1.447-4.786 2.29-7.728 2.394-1.035.06-1.868-.147-1.519-.582 1.168-1.346 1.712-2.125 2.303-3.302.828-1.651 1.18-3.494.95-4.984-.125-.818-.273-1.255-.433-1.278-.232-.033-.38.406-.451 1.333-.085 1.116-.364 2-1.078 3.418q-1.396 2.776-3.565 4.606a5 5 0 0 0-.243.216c-4.299-.638-7.591-1.209-5.023-1.764 1.205-.26 3.949-2.14 4.733-3.241.363-.509.771-1.375.909-1.925.24-.961.177-.932-1.674.758-2.96 2.702-5.811 4.54-10.75 3.885-3.132-.414-9.365-2.312-9.546-2.906-.057-.188.737-.78 1.764-1.317 1.086-.567 2.153-1.438 2.55-2.081.9-1.455.867-1.826-.081-.937-1.284 1.203-4.373 2.456-6.062 2.46-3.375.007-7.083-2.412-12.517-5.544-5.738-3.307-11.746-5.721-11.29-6.034.073-.05.58-.02 1.126.064 1.02.157 2.43.03 2.061-.186-.113-.067-.712-.22-1.33-.34-1.81-.354-3.77-1.115-5.312-2.064-.812-.5-1.437-.639-1.437-.639 0 .363 1.033 1.629 2.779 3.408 1.32 1.345 2.202 2.493 3.66 4.765.24.37.278.283.293-.654l.016-1.082.688.348c1.429.722 5.111 2.903 4.752 3.059-.206.089-1.734.942-3.396 1.895-4.008 2.298-5.27 2.708-8.34 2.715-2.835.006-4.295-.455-6.006-1.898-.803-.676-1.106-.791-1.106-.418 0 1.313 1.92 3.064 4.31 3.638.514.124.812.454.812.612 0 .413-4.983 1.994-8.744 2.083-2.846.066-3.3-.394-5.492-.828-4.121-1.183-4.408-6.347-4.284-5.453-.96 2.224-.827 5.065 2.294 6.877.934.542 1.332.529.388.815-1.759.849-4.557.54-6.11-.304-2.051-.741-4.732-9.17-3.846-4.17.4 2.03 1.07 2.587 1.951 4.2-.34.223-5.303-.325-8.202-1.743-3.347-1.637-3.057-.687-4.978-2.23-1.327-1.067-1.655-2.337-1.648-5.686.008-3.323.119-4.328.67-6.055.197-.618.33-1.152.296-1.186-.16-.16-1.602 1.82-2.222 3.049-.768 1.522-1.068 4.354-.692 6.538.23 1.33.96 2.1.071 3.366-.435.62-1.106.463-1.663.316-2.4-.635-2.723-.87-4.096-2.179-1.531-1.458-2.398-2.662-3.465-4.811l-.896-1.804.05 1.383c.077 2.1.46 2.955 2.674 5.972.562.766.26 1.167.183 1.221-.467.335-.49.491-3.793-1.112q-5.395-2.62-8.012-5.089c-1.54-1.452-2.281-2.906-2.827-5.542-.182-.88-.396-1.688-.476-1.798-.127-.173-.163-.137-.278.278-.315 1.134-.086 3.608.476 5.13.44 1.194.45 1.421.056 1.421-.951 0-4.705-2.215-7.763-4.58-3.151-2.439-7.283-7.1-9.313-10.506-1.885-3.161-2.762-6.987-2.54-11.076.206-3.775.81-5.543 2.709-7.925.468-.588.826-1.095.794-1.126-.133-.133-1.801 1.128-2.524 1.909-1.011 1.093-1.974 2.996-2.42 4.787-.538 2.158-.877 2.48-1.184 1.122-.33-1.46-.907-4.83-1.05-6.142-.171-1.58-.08-4.553.192-6.277.464-2.94 1.18-5.082 2.601-7.794.533-1.016.941-1.874.908-1.908a.1.1 0 0 0-.06-.024.2.2 0 0 0-.088.018c-.207.082-.596.43-1.22 1.088-1.811 1.906-3.042 4.21-3.755 7.026-.8 3.166-.826 7.433-.07 11.698.1.562.18 1.252.181 1.534 0 .45-.032.51-.27.51-.15 0-.937-.323-1.75-.718-2.773-1.345-4.33-1.721-5.203-1.256l-.415.22.619.081c2.033.265 5.635 3.025 7.521 5.763.901 1.309 1.78 2.802 2.867 4.872 1.214 2.31 3.077 5.529 4.165 7.194 1.68 2.57 1.707 2.673.675 2.58-.864-.08-3.61-1.238-5.322-2.072-1.55-.754-2.515-1.318-4.448-2.636-.667-.456-1.24-.802-1.27-.77-.167.165 1.697 2.564 2.861 3.536 2.01 1.678 2.187 1.676 6.886 3.774 5.644 2.52 12.45 6.202 12.45 6.734 0 .145-.58.3-2.487.666-1.892.364-2.823.665-4.129 1.336-2.625 1.35-4.2 3.154-5.102 5.84-.17.509-.31 1.043-.31 1.188 0 .229.025.243.191.105.106-.087.704-.797 1.33-1.576 1.697-2.115 3.32-3.373 5.476-4.246 1.39-.563 2.615-.716 4.968-.621 2.367.095 3.153.218 4.693.733 2.734.914 7.278 2.938 7.278 3.243 0 .215-.394.433-1.323.733-1.394.45-3.85 1.881-4.624 2.695-.494.52-.189.494 1.124-.097 1.075-.485 2.541-.96 3.8-1.235 1.015-.22 4.047-.187 5.509.062 5.129.873 11.25-1.105 19.43 2.922 0 0-.215.34-2.7.36 1.808.842 7.065 1.812 10.982 2.07-2.28 2.36-18.891 4.663-17.082 5.095 3.5.835 21.339-3.487 28.804-6.008 1.844-.464 4.652.302 4.757.407s-.148.91-.562 1.792c-.78 1.66-.875 2.198-.74 4.208.077 1.156.102 1.13.848-.877 1.64-4.41 2.753-5.528 8.123-8.169 3.898-1.917 5.055-2.172 3.86-.851-.865.955-1.9 4.578-1.9 6.652 0 1.826.626 4.098 1.457 5.283.39.558.435.087.308-3.252-.148-3.858-.137-3.932.967-6.194 1.332-2.727 5.034-6.56 7.74-8.012l1.79-.96.48 1.15c.264.631.584 1.562.711 2.068.448 1.782.836 1.268.836-1.107 0-1.698.125-2.4.426-2.395.739.012 6.813 5.205 8.157 6.973 2.107 2.773 2.739 4.89 2.54 8.5-.094 1.684-.285 3.43-.427 3.88-.394 1.257.403.584 1.3-1.097.615-1.152.758-1.972.757-4.314-.002-2.638-.114-3.128-1.281-5.578-.704-1.478-1.187-2.779-1.075-2.89.37-.372 8.011 3.804 9.638 5.267 1.59 1.429 3.268 4.299 3.66 6.256.113.565.36 1.027.55 1.027.65 0 .012-4.073-.92-5.868-.488-.942-.837-1.763-.776-1.825.215-.215 7.072.862 9.227 1.782 4.13 1.553 27.904 5.099 30.006 4.003-1.632-.746-17.855-2.71-15.678-3.854 7.158-3.573 13.593-4.876 17.962-5.852 2.531-.565 3.93-.718 6.627-.721 2.742-.004 3.045.05 4.9.853 1.106.48 1.92.797 2.044.797.16 0 .1-.143-.184-.44-.647-.675-2.206-1.765-3.242-2.265a5.5 5.5 0 0 0-1.083-.392c-.537-.113-.923-.264-1.04-.405-.065-.08-.052-.112.09-.213.696-.492 5.893-2.766 7.581-3.317 1.318-.43 1.568-.455 4.586-.455 3.44 0 3.596.027 5.329.927 1.905.989 2.93 1.823 4.33 3.523.653.793 1.306 1.474 1.414 1.474.209 0-.202-1.132-.913-2.512-.648-1.257-1.149-1.998-1.719-2.54-1.396-1.33-4.441-2.871-6.045-3.06l-1.103-.13a8 8 0 0 1-1.052-.2c-.402-.114-.453-.145-.47-.285-.021-.189.17-.36 1.364-1.219 1.797-1.293 3.828-2.506 6.142-3.667 1.649-.827 2.542-1.222 4.17-1.842 1.306-.497 3.119-1.27 3.888-1.655 1.106-.555 2.552-1.726 4.301-3.485 1.159-1.164 1.714-1.87 1.714-2.174 0-.427-.292-.332-1.058.343-1.769 1.557-6.035 3.96-8.753 4.93-.701.25-1.83.554-1.932.52-.034-.01.233-.262.593-.557.826-.676 2.838-2.65 3.71-3.637 1.136-1.286 1.809-2.271 3.232-4.725.286-.492 1.025-1.932 1.517-2.926a113 113 0 0 0 2.251-4.046c1.087-2.07 1.966-3.563 2.867-4.872 1.886-2.738 5.489-5.498 7.522-5.762l.618-.081-.414-.221c-.873-.465-2.43-.09-5.204 1.257-.813.394-1.6.717-1.75.717-.238 0-.27-.06-.27-.51 0-.281.082-.972.182-1.534.756-4.265.73-8.531-.07-11.697-.714-2.817-1.945-5.121-3.755-7.027-.624-.657-1.014-1.006-1.22-1.088a.2.2 0 0 0-.09-.018zm-90.238 46.09c-.014-.142-.901.387-1.765.875a16.6 16.6 0 0 1-5.588 1.973c-1.85.304-1.532.554.605.475 1.011-.037 1.84-.03 1.84.016s-1.597 1.134-3.548 2.417c-3.412 2.245-3.83 2.6-3.308 2.81.21.084.89-.235 3.714-1.743l.716-.382.195 1.153.194 1.152.445-1.027c.6-1.384 1.324-2.267 3.44-4.196 1.733-1.58 3.304-3.376 3.08-3.522a.04.04 0 0 0-.02-.002" style="fill:#6c5d53;fill-opacity:1;stroke-width:.340214" transform="translate(34.896 -20.386)"/></svg>