<svg xmlns="http://www.w3.org/2000/svg" width="1600" height="1600" viewBox="0 0 1200 1200"><path d="M334.31 974.44 201 1095.57c-2.812 2.438-4.312 5.813-4.687 9.563-.563 9.937-4.688 19.312-11.812 27.375-12.563 14.625-33.75 19.875-51.939 12.75-13.875-5.25-23.812-15.75-28.5-29.438-4.312-13.5-2.624-28.125 5.063-40.125 8.813-14.062 23.812-22.125 40.312-22.125h.75c3.938 0 7.875-1.688 10.688-4.688l115.69-127.31 36.938 33.562zm150.94 27-78.375-71.812c-.187 0-.187 0-.375-.187l-86.25-79.125-76.688-70.312c-9.375-8.625-21.562-13.312-34.312-12.562-12.562.562-24.188 6-32.625 15.375-17.812 19.125-16.5 49.312 2.813 66.938 14.625 13.5 36.562 16.312 54 6.75 2.062-1.125 4.312-1.5 6.562-1.5 3.563 0 6.938 1.125 9.563 3.562l35.625 32.625 79.5 72.938h.187l41.438 38.062c4.313 3.938 5.625 10.312 3.375 15.75-7.875 18.562-3.187 39.938 11.438 53.25 9.375 8.625 21.375 13.312 34.125 12.562 12.75-.562 24.188-6 32.812-15.188v-.188c8.625-9.187 12.938-21.375 12.375-33.938-.562-12.75-6-24.375-15.188-33m605.63 74.25c-8.812-14.25-24-22.125-41.062-22.125-4.125 0-7.875-1.687-10.688-4.687l-115.69-127.31-36.938 33.562-20.812 19.312L999 1095.572c2.813 2.437 4.313 5.812 4.688 9.562.562 9.938 4.687 19.312 11.625 27.375 12.75 14.625 34.125 19.875 52.125 12.938 13.874-5.437 23.811-15.938 28.5-29.625 4.312-13.5 2.624-28.125-5.063-40.125zm-67.5-292.87c-8.437-9.375-20.062-14.812-32.625-15.375h-2.25c-11.812 0-23.25 4.313-32.062 12.562l-76.688 70.312-86.25 79.125c-.187.188-.187.188-.375.188l-78.375 71.812c-9.187 8.625-14.625 20.25-15.188 33-.562 12.562 3.75 24.75 12.375 33.938v.187c8.625 9.188 20.062 14.625 32.812 15.188 12.75.75 24.75-3.937 34.125-12.562 14.625-13.312 19.312-34.688 11.438-53.25-2.25-5.437-.937-11.812 3.375-15.75l41.438-38.062h.188l79.5-72.938 35.625-32.625c4.312-3.937 10.875-4.687 16.125-2.062 17.625 9.375 39.375 6.75 54.188-6.75 19.125-17.625 20.438-47.812 2.625-66.938zm-245.81-37.5c-23.438-31.688-46.688-65.062-69.375-99.188-11.812 14.438-24 28.5-36.188 42.562-2.062 2.438-4.125 5.063-6.375 7.5-15 17.062-30.562 33.938-46.125 50.438 41.25 42.938 86.25 84.938 133.5 125.26l30.938 28.125 66.75-61.312c-25.688-30.75-50.25-62.062-73.125-93.375zM583.88 440.63c-7.687 14.062-15.938 28.312-24.188 42.562-4.125 7.125-7.875 14.25-12.188 21.375-13.312 22.688-27.188 45.188-41.25 67.875-5.625 8.625-11.25 17.25-16.688 25.875a1890 1890 0 0 1-254.26-428.06l-36.375-84.375 69 57.188c29.625 24.938 63.75 43.688 101.25 55.875 34.312 11.062 69.375 16.125 104.62 14.812 32.812 76.688 69.938 153 110.06 226.87zm-47.25-24.375c-24.188-46.312-48.375-96.188-71.812-148.5-3.187-6.937-11.438-10.312-18.562-6.937-6.937 3-10.125 11.438-6.937 18.562 23.438 52.688 47.812 103.12 72.375 150 2.437 4.687 7.312 7.5 12.375 7.5 2.25 0 4.5-.563 6.562-1.688 6.75-3.562 9.563-12 6-18.938zm464.44-330.37-36.375 84.375c-68.062 159.37-157.69 308.63-266.44 443.26-34.125 42.75-70.5 84.375-108.38 123.37-44.062 46.312-92.062 91.688-143.06 135.37l-30.75 27.75-66.75-61.312c25.688-30.75 50.25-62.062 73.125-93.375 27.188-36.75 54-75.562 79.875-115.12 9.563-14.25 18.562-28.312 27.562-42.75a2639 2639 0 0 0 82.5-139.87c41.625-76.125 79.875-154.69 113.81-233.81 35.062 1.125 70.312-3.75 104.62-14.812 37.5-12.188 71.625-30.938 101.25-55.688zm-228.74 174.94c-7.125-3.187-15.375 0-18.562 7.125-30.562 68.25-64.312 136.31-100.31 202.13-3.75 6.75-1.125 15.375 5.625 19.125 2.063 1.125 4.5 1.688 6.75 1.688 4.875 0 9.75-2.625 12.375-7.313 36.375-66.375 70.5-135.19 101.25-204.19 3.188-7.125 0-15.375-7.125-18.562z"/></svg>