<?xml version="1.0" encoding="UTF-8"?>
<svg width="1200pt" height="1200pt" version="1.1" viewBox="0 0 1200 1200" xmlns="http://www.w3.org/2000/svg">
 <path d="m1130.6 356.06-183.56-131.95c-16.922-12.141-37.172-18.703-58.031-18.703h-128.58c-4.0781 0-7.4062 3-8.0625 6.9844-12.281 73.125-75.75 128.9-152.34 128.9s-140.11-55.734-152.34-128.9c-0.65625-4.0312-3.9844-6.9844-8.0625-6.9844h-128.58c-20.812 0-41.109 6.5156-58.031 18.703l-183.56 131.95c-10.172 7.3125-12.469 21.469-5.1562 31.641l104.39 145.22c7.3125 10.172 21.469 12.469 31.641 5.1562l65.391-47.016c5.5781-3.9844 13.312-0.046875 13.312 6.7969v457.08c0 21.844 17.719 39.609 39.609 39.609h562.82c21.844 0 39.609-17.719 39.609-39.609v-457.08c0-6.8438 7.7344-10.828 13.312-6.7969l65.391 47.016c10.172 7.3125 24.328 4.9688 31.641-5.1562l104.39-145.22c7.3125-10.172 4.9688-24.328-5.1562-31.641z"/>
</svg>
