<?xml version="1.0" encoding="UTF-8"?>
<svg width="1200pt" height="1200pt" version="1.1" viewBox="0 0 1200 1200" xmlns="http://www.w3.org/2000/svg">
 <path d="m88.801 1122.2c-12.719-12.719-40.078-25.32-66.84-35.641 28.078-10.32 57-23.398 70.32-36.84 6-6.1211 11.762-15.48 17.398-26.52 5.5195-11.039 10.68-23.762 15.359-36.48 9.3594 25.559 20.762 50.879 32.762 63 13.199 13.441 42.121 26.398 70.199 36.84-26.879 10.32-54.121 22.922-66.84 35.641-12.961 12.961-25.801 40.922-36.121 68.16-10.438-27.238-23.277-55.199-36.238-68.16zm344.16-654c-66.723 67.562-282 138.72-396.96 173.16 112.2 35.281 319.68 106.8 384.84 172.08 65.641 65.641 137.52 274.8 172.56 386.64 35.039-111.84 106.92-321 172.56-386.64 65.281-65.281 272.64-136.8 384.84-172.08-115.08-34.441-330.36-105.6-396.96-173.16-63.238-64.078-127.8-265.68-160.44-379.2-32.633 113.52-97.195 315-160.43 379.2zm636.36-368.52c-18-18.238-35.281-60.84-48.359-99.719-12.961 38.879-30.359 81.48-48.359 99.719-19.559 19.922-67.078 39.359-108.72 53.52 39.961 14.281 85.199 33.359 104.16 52.32 19.199 19.199 38.52 65.281 52.922 105.6 14.281-40.32 33.602-86.398 52.922-105.6 18.961-18.961 64.199-38.16 104.16-52.32-41.527-14.16-89.047-33.598-108.73-53.52z"/>
</svg>
