<?xml version="1.0" encoding="UTF-8" standalone="no"?>
<svg
   xml:space="preserve"
   width="714"
   height="714"
   viewBox="0 0 188.91242 188.91226"
   version="1.1"
   id="svg118"
   sodipodi:docname="favicon.svg"
   inkscape:version="1.2.2 (b0a8486541, 2022-12-01)"
   xmlns:inkscape="http://www.inkscape.org/namespaces/inkscape"
   xmlns:sodipodi="http://sodipodi.sourceforge.net/DTD/sodipodi-0.dtd"
   xmlns:xlink="http://www.w3.org/1999/xlink"
   xmlns="http://www.w3.org/2000/svg"
   xmlns:svg="http://www.w3.org/2000/svg"><sodipodi:namedview
     id="namedview120"
     pagecolor="#ffffff"
     bordercolor="#000000"
     borderopacity="0.25"
     inkscape:showpageshadow="2"
     inkscape:pageopacity="0.0"
     inkscape:pagecheckerboard="0"
     inkscape:deskcolor="#d1d1d1"
     showgrid="false"
     inkscape:zoom="0.63142526"
     inkscape:cx="-281.90193"
     inkscape:cy="399.09711"
     inkscape:window-width="2560"
     inkscape:window-height="1011"
     inkscape:window-x="1920"
     inkscape:window-y="32"
     inkscape:window-maximized="1"
     inkscape:current-layer="svg118" /><defs
     id="defs106"><linearGradient
       id="d"><stop
         offset="0"
         style="stop-color:#c3b488;stop-opacity:1"
         id="stop82" /><stop
         offset="1"
         style="stop-color:#2c2617;stop-opacity:.21650223"
         id="stop84" /></linearGradient><linearGradient
       id="c"><stop
         offset="0"
         style="stop-color:#ac9d93;stop-opacity:1"
         id="stop87" /><stop
         offset="1"
         style="stop-color:#7c2c0b;stop-opacity:1"
         id="stop89" /></linearGradient><linearGradient
       id="b"><stop
         offset="0"
         style="stop-color:#5a2840;stop-opacity:1"
         id="stop92" /><stop
         offset="1"
         style="stop-color:#340015;stop-opacity:1"
         id="stop94" /></linearGradient><linearGradient
       id="a"><stop
         offset="0"
         style="stop-color:#aca793;stop-opacity:1"
         id="stop97" /><stop
         offset="1"
         style="stop-color:#000;stop-opacity:0"
         id="stop99" /></linearGradient><linearGradient
       xlink:href="#a"
       id="f"
       x1="72.487999"
       x2="69.273003"
       y1="20.438"
       y2="116.899"
       gradientTransform="translate(15.54,-20.386)"
       gradientUnits="userSpaceOnUse" /><linearGradient
       xlink:href="#b"
       id="h"
       x1="65.695"
       x2="86.222"
       y1="99.859001"
       y2="195.54601"
       gradientTransform="translate(15.54,-20.386)"
       gradientUnits="userSpaceOnUse" /><linearGradient
       xlink:href="#c"
       id="e"
       x1="93.545998"
       x2="93.545998"
       y1="53.716"
       y2="33.639"
       gradientUnits="userSpaceOnUse" /><linearGradient
       xlink:href="#d"
       id="g"
       x1="92.348"
       x2="92.348"
       y1="30.068001"
       y2="85.682999"
       gradientUnits="userSpaceOnUse" /></defs><rect
     style="fill:#000000;fill-opacity:1;stroke-width:0.264583"
     id="rect1029"
     width="188.91234"
     height="188.91234"
     x="0"
     y="0" /><g
     id="g282"
     transform="matrix(1.8197674,0,0,1.8197674,-72.609716,2.8099852)"><path
       d="m 64.972,15.359 -0.778,0.695 c -0.455,0.407 -0.852,0.883 -0.958,1.149 -0.457,1.142 -0.464,1.574 -0.508,33.83 l -0.044,31.393 1.094,1.1 c 1.547,1.559 1.983,1.684 2.29,0.661 0.09,-0.304 0.162,-7.073 0.233,-22.089 0.059,-12.305 0.15,-21.866 0.213,-22.15 0.075,-0.336 0.068,-0.57 -0.021,-0.721 -0.089,-0.151 -0.132,-1.85 -0.132,-5.364 v -5.14 l 0.33,-0.308 c 0.288,-0.266 0.332,-0.396 0.328,-0.993 -0.002,-0.412 -0.075,-0.78 -0.18,-0.92 -0.329,-0.434 -0.183,-3.251 0.185,-3.595 0.12,-0.112 0.136,-0.06 0.078,0.25 -0.061,0.327 -0.037,0.39 0.151,0.39 0.124,0 0.271,0.096 0.328,0.211 0.057,0.116 0.111,3.594 0.121,7.729 0.011,4.593 0.069,7.908 0.149,8.522 0.086,0.661 0.132,5.031 0.134,12.75 0.005,13.686 0.192,30.71 0.343,31.23 0.103,0.357 0.106,0.354 0.176,-0.18 0.31,-2.362 0.349,-5.64 0.257,-21.77 -0.052,-9.23 -0.088,-19.446 -0.079,-22.704 0.015,-5.855 0.19,-14.44 0.341,-16.85 0.074,-1.165 0.096,-1.248 0.366,-1.35 0.43,-0.164 3.438,-0.28 4.644,-0.179 0.967,0.08 1.051,0.108 0.984,0.318 -0.129,0.407 0.283,0.41 1.07,0.007 0.685,-0.352 0.873,-0.388 2.603,-0.502 3.325,-0.22 11.46,-0.322 17.802,-0.221 7.464,0.117 14.513,0.316 14.884,0.418 0.15,0.04 0.271,0.153 0.271,0.249 0,0.147 0.03,0.145 0.19,-0.014 0.26,-0.26 1.525,-0.26 1.786,0 0.104,0.104 0.19,0.247 0.19,0.317 0,0.07 0.08,0.19 0.178,0.263 0.103,0.077 0.228,0.496 0.298,0.991 0.178,1.27 0.342,7.848 0.484,19.349 0.07,5.623 0.183,10.967 0.251,11.874 0.1,1.317 0.093,1.704 -0.032,1.924 -0.127,0.223 -0.152,2.697 -0.132,12.905 0.014,6.947 0.068,12.982 0.12,13.412 0.084,0.685 0.13,0.786 0.366,0.82 0.261,0.037 0.27,0.005 0.27,-0.925 0,-0.53 0.052,-1.097 0.114,-1.26 0.086,-0.227 0.072,-0.315 -0.06,-0.366 -0.224,-0.085 -0.225,-0.709 -0.001,-1.14 0.148,-0.287 0.157,-2.484 0.067,-15.902 -0.229,-34.195 -0.25,-40.166 -0.15,-40.166 0.058,0 0.372,0.31 0.699,0.689 l 0.595,0.688 v 25.804 c 0,20.784 -0.03,25.921 -0.157,26.41 -0.116,0.452 -0.124,0.75 -0.032,1.164 0.069,0.305 0.177,1.826 0.24,3.38 0.12,2.928 0.228,3.527 0.689,3.795 0.572,0.332 1.383,0.014 2.47,-0.967 l 0.443,-0.4 0.105,-27.786 c 0.078,-20.705 0.14,-27.87 0.245,-28.116 0.175,-0.413 0.543,-0.433 0.903,-0.047 0.53,0.566 0.968,0.703 5.855,1.822 3.236,0.74 7.059,1.727 8.293,2.14 l 0.792,0.265 0.036,0.553 c 0.07,1.075 -0.69,3.989 -3.102,11.896 a 388,388 0 0 0 -1.43,4.811 c -0.333,1.158 -0.719,2.43 -0.858,2.827 -0.319,0.913 -4.123,14.214 -4.868,17.021 a 328,328 0 0 1 -1.626,5.773 c -0.587,2.017 -1.209,4.23 -1.382,4.917 -0.308,1.226 -0.36,2.156 -0.121,2.211 0.272,0.064 1.155,-2.28 1.62,-4.302 0.137,-0.595 0.407,-1.57 0.601,-2.165 0.478,-1.47 1.672,-5.648 2.6,-9.097 0.42,-1.563 1.008,-3.605 1.307,-4.537 0.7,-2.182 1.54,-5.012 3.133,-10.542 a 773,773 0 0 1 2.061,-7.037 c 0.429,-1.423 0.81,-2.841 0.85,-3.153 0.04,-0.329 0.163,-0.653 0.293,-0.77 0.124,-0.113 0.224,-0.308 0.224,-0.436 0,-0.311 1.22,-3.948 1.612,-4.805 0.172,-0.376 0.313,-0.812 0.313,-0.968 0,-0.34 0.207,-0.573 0.51,-0.573 0.303,0 0.419,0.36 0.171,0.542 -0.122,0.089 -0.2,0.314 -0.2,0.577 0,0.236 -0.056,0.464 -0.124,0.506 -0.067,0.042 -0.108,0.168 -0.09,0.278 0.018,0.11 -0.026,0.19 -0.099,0.178 -0.084,-0.016 -0.163,0.343 -0.212,0.962 -0.085,1.068 -0.332,2.146 -0.9,3.933 -0.2,0.629 -0.643,2.117 -0.983,3.308 -0.34,1.191 -1.512,5.223 -2.603,8.96 -2.987,10.227 -4.77,16.554 -5.646,20.028 -1.158,4.593 -1.952,7.479 -2.293,8.336 -0.354,0.889 -0.31,1.168 0.172,1.06 1.043,-0.236 1.73,-0.293 2.434,-0.204 0.43,0.054 0.786,0.092 0.79,0.084 0.006,-0.008 0.124,-0.447 0.263,-0.977 2.452,-9.3 4.278,-15.932 4.683,-17.009 0.455,-1.207 1.666,-5.392 3.33,-11.498 1.523,-5.594 3.15,-11.259 4.025,-14.012 0.915,-2.88 1.72,-6.269 1.894,-7.965 0.074,-0.724 0.05,-0.875 -0.237,-1.46 -0.39,-0.798 -1.138,-1.507 -2.102,-1.994 -1.232,-0.621 -6.602,-2.046 -13.007,-3.45 -4.796,-1.05 -5.408,-1.174 -5.48,-1.102 -0.072,0.072 -0.408,2.53 -0.412,3.016 -0.003,0.428 0.387,0.601 1.802,0.8 0.562,0.08 1.24,0.244 1.504,0.364 0.265,0.12 1.645,0.498 3.067,0.838 1.422,0.34 2.902,0.7 3.289,0.798 1.142,0.29 2.605,1.1 2.605,1.442 0,0.095 -0.105,0.172 -0.234,0.172 -0.129,0 -1.468,-0.35 -2.977,-0.779 -2.49,-0.707 -7.248,-1.694 -9.367,-1.943 -0.633,-0.074 -0.653,-0.089 -0.658,-0.451 -0.04,-2.791 -0.264,-7.161 -0.402,-7.832 -0.38,-1.845 -0.99,-2.939 -1.963,-3.51 l -0.577,-0.339 -26.495,-0.035 z m 50.919,4.692 c 0.133,0.055 0.212,0.463 0.139,1.05 -0.081,0.648 -0.291,1.085 -0.447,0.93 -0.127,-0.128 -0.106,-1.305 0.03,-1.663 0.098,-0.257 0.198,-0.35 0.278,-0.318 m 0.65,1.491 q 0.063,-0.037 0.145,0.014 c 0.17,0.105 0.169,0.421 -0.001,1.097 -0.187,0.741 -0.347,0.668 -0.345,-0.157 0.002,-0.551 0.073,-0.88 0.2,-0.954 M 60.655,22.688 A 4,4 0 0 0 60.1,22.78 c -1.365,0.286 -10.118,2.43 -12.263,3.004 -2.537,0.68 -5.526,1.653 -6.04,1.968 -0.435,0.268 -0.769,0.85 -1.037,1.814 -0.428,1.534 -0.388,2.667 0.112,3.207 q 0.29,0.312 0.29,0.746 c 0.002,0.643 0.321,1.874 1.975,7.616 1.881,6.529 5.004,17.845 6.447,23.368 1.08,4.128 1.706,6.376 2.581,9.262 0.24,0.794 0.688,2.472 0.994,3.73 0.45,1.848 0.559,2.499 0.565,3.407 l 0.007,1.122 2.005,-0.04 c 1.103,-0.022 2.047,-0.081 2.098,-0.132 0.136,-0.137 -0.206,-1.384 -3.141,-11.454 a 472,472 0 0 1 -1.877,-6.676 c -0.53,-1.952 -1.12,-4.04 -1.31,-4.64 a 30,30 0 0 1 -0.59,-2.226 26,26 0 0 0 -0.724,-2.516 c -0.264,-0.76 -0.964,-3.305 -1.556,-5.653 a 332,332 0 0 0 -2.12,-7.939 c -1.205,-4.242 -2.107,-7.614 -2.107,-7.886 0,-0.14 0.1,-0.179 0.391,-0.15 0.537,0.051 0.637,0.292 1.643,3.946 a 276,276 0 0 0 1.516,5.29 c 0.369,1.222 0.889,3.09 1.155,4.15 0.746,2.978 2.47,9.242 4.443,16.142 0.987,3.452 2.096,7.376 2.464,8.72 a 126,126 0 0 0 1.443,4.815 c 0.426,1.304 0.974,3.167 1.217,4.14 0.277,1.108 0.528,1.854 0.67,1.997 0.322,0.322 0.521,0.206 0.48,-0.28 C 59.771,80.94 58.042,74.144 57.279,71.6 55.556,65.858 52.883,56.418 50.96,49.288 a 765,765 0 0 0 -2.361,-8.54 c -1.224,-4.294 -1.616,-5.836 -1.787,-7.019 -0.15,-1.033 0.004,-1.734 0.398,-1.812 1.448,-0.288 8.07,-2.105 11.498,-3.155 1.59,-0.488 2.661,-0.938 2.661,-1.118 0,-0.413 -3.258,0.22 -7.096,1.38 -0.96,0.29 -2.665,0.773 -3.79,1.075 a 156,156 0 0 0 -3.035,0.843 c -0.545,0.162 -1.262,0.33 -1.592,0.375 -0.509,0.067 -0.613,0.047 -0.682,-0.134 -0.052,-0.134 -0.009,-0.267 0.118,-0.36 0.11,-0.08 0.2,-0.207 0.2,-0.282 0,-0.076 0.128,-0.137 0.284,-0.137 0.235,0 0.274,-0.05 0.229,-0.288 -0.069,-0.358 -0.223,-0.306 4.136,-1.387 3.818,-0.946 5.185,-1.211 6.252,-1.212 0.637,0 0.747,-0.033 0.801,-0.24 0.054,-0.205 0.164,-0.241 0.736,-0.241 0.37,0 0.673,-0.052 0.673,-0.116 0,-0.151 0.7,-0.324 1.72,-0.425 0.695,-0.069 0.834,-0.121 0.92,-0.346 0.055,-0.146 0.188,-0.338 0.294,-0.426 0.12,-0.1 0.192,-0.346 0.191,-0.656 -0.001,-0.369 -0.032,-0.45 -0.12,-0.317 -0.184,0.28 -0.315,-0.019 -0.409,-0.931 -0.093,-0.91 -0.13,-1.152 -0.544,-1.131 m 78.264,8.438 c 0.097,0 0.153,0.067 0.122,0.15 -0.03,0.082 -0.126,0.43 -0.213,0.772 -0.14,0.55 -0.134,0.657 0.043,0.927 0.11,0.169 0.2,0.363 0.2,0.432 0,0.182 -0.139,0.147 -0.51,-0.13 -0.232,-0.173 -0.331,-0.355 -0.331,-0.606 0,-0.492 0.47,-1.545 0.689,-1.545"
       style="fill:url(#g);fill-opacity:1;stroke-width:0.120282"
       id="path112" /><path
       d="M 82.997,68.826 C 83.141,67.603 82.81,67.43 82.32,66.94 c -0.47,-0.457 0.431,-0.967 0.747,-1.315 0.183,-0.281 -0.05,-0.283 -0.313,-0.7 a 10,10 0 0 1 -0.476,-0.876 c -0.28,-0.602 -1.211,-1.803 -1.592,-2.053 -0.19,-0.124 -0.553,-0.198 -0.97,-0.198 -0.573,0 -0.665,0.031 -0.665,0.228 0,0.125 0.2,0.404 0.445,0.62 l 0.446,0.39 -0.475,-0.085 C 77.728,62.639 75.68,62.107 75.19,61.84 74.38,61.399 73.537,60.295 73.022,59 72.746,58.307 72.3,56.266 72.392,56.117 c 0.031,-0.05 0.192,-0.093 0.356,-0.093 0.804,0 2.265,-1.317 2.621,-2.362 0.11,-0.324 0.273,-1.572 0.38,-2.92 0.104,-1.296 0.274,-2.735 0.38,-3.198 0.104,-0.463 0.215,-1.13 0.245,-1.483 0.052,-0.617 0.043,-0.64 -0.228,-0.602 -0.217,0.03 -0.381,0.243 -0.704,0.904 -0.231,0.475 -0.508,0.962 -0.614,1.083 -0.453,0.511 -0.603,1.596 -0.285,2.05 0.16,0.228 0.161,0.313 0.015,0.658 l -0.169,0.397 -0.135,-0.338 c -0.074,-0.187 -0.135,-0.419 -0.135,-0.516 0,-0.097 -0.104,-0.382 -0.232,-0.632 -0.353,-0.692 -0.526,-2.246 -0.532,-4.768 -0.007,-3.055 0.291,-4.665 1.484,-8.007 1.002,-2.812 1.8,-4.028 3.815,-5.82 5.693,-5.06 13.61,-6.597 20.138,-3.91 1.802,0.742 4.53,2.594 5.661,3.844 2.141,2.365 4.625,7.04 5.106,9.61 0.244,1.298 0.348,5.858 0.178,7.77 -0.182,2.058 -0.244,2.276 -0.66,2.325 -0.182,0.021 -0.362,0.12 -0.4,0.22 -0.038,0.099 -0.194,0.228 -0.346,0.285 -0.381,0.145 -0.483,0.933 -0.292,2.261 0.082,0.574 0.164,1.193 0.18,1.375 0.017,0.182 0.037,0.385 0.045,0.45 0.008,0.067 0.392,0.517 0.852,1.001 1.214,1.279 1.306,1.664 0.788,3.305 -0.513,1.624 -1.086,2.18 -3.013,2.93 -1.175,0.455 -2.218,0.57 -2.645,0.29 -0.374,-0.244 -0.375,-0.243 -2.004,1.04 -1.278,1.008 -1.943,1.747 -2.217,2.463 -0.186,0.486 0.818,1.212 -0.057,1.61 -0.52,0.237 -0.842,0.268 -0.83,1.702 -5.676,2.331 -11.926,0.987 -16.14,-0.215 m 7.48,-6.254 c 0.297,-0.044 0.598,-0.125 0.667,-0.181 0.07,-0.057 0.36,-0.02 0.661,0.084 0.343,0.118 1.035,0.192 1.92,0.205 l 1.383,0.02 0.034,-1.227 c 0.03,-1.095 0,-1.307 -0.279,-1.97 -0.172,-0.408 -0.415,-1.22 -0.54,-1.805 -0.124,-0.584 -0.31,-1.225 -0.413,-1.424 -0.103,-0.199 -0.267,-0.706 -0.365,-1.129 -0.24,-1.038 -0.472,-1.558 -0.917,-2.065 l -0.374,-0.427 -0.438,0.261 c -1.36,0.81 -2.78,2.93 -3.746,5.593 -0.26,0.717 -0.564,1.37 -0.676,1.452 -0.188,0.138 -0.183,0.213 0.07,1.083 0.315,1.081 0.516,1.446 0.885,1.601 0.26,0.11 1.084,0.083 2.128,-0.071 M 83.766,55.92 a 5.3,5.3 0 0 0 1.708,-0.73 c 0.886,-0.578 2.358,-1.96 2.358,-2.217 0,-0.093 0.165,-0.525 0.368,-0.958 l 0.37,-0.789 -0.256,-1.18 c -0.14,-0.648 -0.383,-1.477 -0.539,-1.84 -0.155,-0.365 -0.31,-0.751 -0.345,-0.86 -0.037,-0.116 -0.401,-0.31 -0.883,-0.47 -0.451,-0.149 -0.932,-0.343 -1.068,-0.432 -0.396,-0.256 -1.543,-0.618 -2.24,-0.705 -0.852,-0.106 -2.026,0.116 -2.96,0.56 -0.994,0.472 -2.164,1.578 -2.683,2.534 -0.4,0.736 -0.41,0.79 -0.406,2.139 0.002,1.156 0.048,1.496 0.278,2.073 0.593,1.483 1.304,2.213 2.725,2.797 0.904,0.37 2.23,0.4 3.573,0.078 m 19.461,-0.2 c 0.364,-0.197 1.101,-0.79 1.638,-1.32 1.192,-1.176 1.432,-1.742 1.342,-3.155 -0.05,-0.77 -0.139,-1.058 -0.627,-2.023 -0.367,-0.724 -0.787,-1.342 -1.182,-1.736 -2.4,-2.4 -7.083,-1.961 -8.885,0.833 -0.19,0.294 -0.344,0.684 -0.344,0.866 0,0.19 -0.134,0.475 -0.313,0.668 -0.41,0.443 -0.355,0.84 0.328,2.375 0.494,1.108 0.576,1.22 1.368,1.83 1.394,1.08 2.055,1.496 2.85,1.799 0.65,0.246 0.93,0.283 1.96,0.254 1.07,-0.03 1.278,-0.074 1.865,-0.392 m 4.044,-7.631 -0.076,-0.479 0.38,0.076 0.38,0.076 -0.083,-0.624 a 10,10 0 0 0 -0.318,-1.372 c -0.129,-0.411 -0.235,-0.892 -0.235,-1.07 -0.001,-0.221 -0.081,-0.348 -0.255,-0.403 -0.42,-0.134 -0.526,0.099 -0.369,0.812 0.077,0.35 0.172,1.204 0.21,1.898 0.08,1.425 0.107,1.564 0.304,1.564 0.095,0 0.115,-0.152 0.062,-0.478"
       style="fill:#ac9d93;stroke-width:0.120282"
       id="path114" /></g></svg>
