<svg xmlns="http://www.w3.org/2000/svg" width="1600" height="1600" viewBox="0 0 1200 1200"><path d="m409.22 517.22-18-67.219c-48 8.39-93.609-6-111.61-34.781l-18 4.781-72-268.78 32.391-8.39-18-66.047c-62.391-15.61-127.22 0-174 46.78l18 66.048 32.391-8.391 72 268.78-18 4.781c-2.39 33.61-33.609 68.438-80.391 85.22l18 67.218c28.781-13.219 57.609-24 86.391-34.78 7.219 213.61 92.391 415.22 243.61 589.22 51.609-200.39 15.609-439.22-84-631.22 30-6.048 60-10.829 91.219-13.22zm-159.61 78c-24 6-48-7.219-54-31.219v-2.39c-1.219-7.22-1.219-14.392 1.219-20.392 0-1.218 1.219-2.39 1.219-3.609s1.218-2.39 1.218-3.61 1.22-2.39 2.391-3.609c1.219-1.219 1.219-2.39 2.39-3.61 1.22-1.218 1.22-2.39 2.391-2.39l2.39-2.39c1.22-1.22 2.391-1.22 2.391-2.391 1.22-1.219 2.391-1.219 3.61-2.39 1.219-1.22 2.39-1.22 3.61-2.391 1.218 0 2.39-1.219 3.609-1.219s2.39-1.219 3.609-1.219 2.39-1.219 3.61-1.219h10.827c1.22 0 2.391 0 3.61 1.22 1.219 0 2.39 0 3.61 1.218 1.218 0 2.39 1.219 3.609 1.219s2.39 1.219 3.609 1.219c1.219 1.218 2.39 1.218 3.61 2.39 8.39 4.781 14.39 13.22 18 22.781 0 1.219 1.218 2.39 1.218 2.39 9.422 20.392-3.75 44.392-27.75 51.61zM996 76.781l-18 66 32.391 8.39-72 268.78-18-4.78c-19.219 28.78-63.609 43.218-111.61 34.78l-18 67.22C822 519.56 852 524.388 882 530.388c-99.609 193.22-135.61 430.78-84 631.22C949.22 988.83 1033.22 786 1041.61 572.39c28.781 10.781 57.609 21.61 86.391 34.781l18-67.219c-45.609-16.78-78-51.609-79.219-86.39l-18-4.782 72-268.78 32.391 8.39 18-66c-46.781-44.39-112.78-60-175.18-45.608zm9.61 483.61c0 1.219 0 1.219-1.22 2.39-6 24-31.218 38.392-54 31.22-24-6-38.39-31.22-31.218-54 0-1.22 0-2.391 1.218-2.391 3.61-9.61 9.61-18 18-22.781 1.22-1.219 2.391-1.219 3.61-2.39 1.219 0 2.39-1.22 3.61-1.22s2.39-1.218 3.609-1.218 2.39-1.219 3.609-1.219 2.39 0 3.61-1.219h10.827c1.22 0 2.391 0 3.61 1.219s2.39 1.219 3.61 1.219 2.39 1.219 3.609 1.219 2.39 1.218 3.609 2.39c1.219 1.219 2.39 1.219 3.61 2.39 1.218 1.22 2.39 1.22 2.39 2.391l2.39 2.391c1.22 1.219 1.22 2.39 2.391 2.39 1.219 1.22 1.219 2.391 2.39 3.61 1.22 1.219 1.22 2.39 2.391 3.61 0 1.218 1.22 2.39 1.22 3.609s1.218 2.39 1.218 3.61c7.078 8.39 8.297 15.608 5.906 22.78zM675.61 408h-18V130.78h33.609V62.389c-56.391-32.391-123.61-31.219-180 0v68.391h33.609v278.39h-18c-10.781 33.609-50.391 58.781-98.391 62.391l-.047 68.438c30-4.781 61.22-9.61 91.22-10.781-46.782 212.39-19.22 451.22 81.608 632.39 100.78-206.39 130.78-423.61 82.781-631.22 31.22 2.39 61.22 6 92.391 10.781V471.56c-51.609-4.781-91.172-29.953-100.78-63.562zm-31.219 121.22c0 24-20.391 44.391-44.391 44.391s-44.391-20.391-44.391-44.391v-3.61c1.219-9.609 4.781-19.218 10.781-26.39 1.219-1.22 1.219-2.391 2.39-2.391 1.22-1.219 2.391-1.219 2.391-2.39 1.219-1.22 2.39-1.22 3.61-2.391 1.218-1.219 2.39-1.219 3.609-2.39 1.219 0 2.39-1.22 3.61-1.22s2.39-1.218 3.609-1.218 2.39-1.22 3.61-1.22h14.437c1.219 0 2.39 0 3.61 1.22 1.218 0 2.39 1.218 3.609 1.218s2.39 1.22 3.61 1.22 2.39 1.218 3.609 2.39c1.219 1.219 2.39 1.219 2.39 2.39 1.22 1.22 2.391 1.22 2.391 2.391l2.39 2.39c1.22 1.22 1.22 2.391 2.391 2.391 1.219 1.219 1.219 2.39 2.39 3.61 3.61 6 6 13.219 6 20.39 8.345 2.391 8.345 3.61 8.345 3.61"/></svg>