<?xml version="1.0" encoding="UTF-8"?>
<svg width="1200pt" height="1200pt" version="1.1" viewBox="0 0 1200 1200" xmlns="http://www.w3.org/2000/svg">
 <path d="m1068.7 419.76-325.74 388.18c-7.5938 9.0469-17.766 14.344-28.547 16.266l139.45-383.16c20.484-56.25-8.625-118.69-64.875-139.18l-132.24-48.141 88.453-105.42c17.109-20.438 47.578-23.062 67.969-5.9531l249.56 209.39c20.438 17.109 23.062 47.578 5.9531 68.016zm-300.32-61.219-306.14-111.42c-25.031-9.0938-52.734 3.7969-61.875 28.828l-47.062 129.32h140.72c59.859 0 108.61 48.703 108.61 108.61v407.76c9.4688-5.4844 17.25-13.969 21.281-25.078l173.29-476.21c9.0938-25.031-3.7969-52.734-28.828-61.875zm-274.36 107.11h-325.78c-26.672 0-48.281 21.609-48.281 48.281v506.76c0 26.672 21.609 48.281 48.281 48.281h325.78c26.672 0 48.281-21.609 48.281-48.281v-506.76c0-26.672-21.609-48.281-48.281-48.281z"/>
</svg>
